<?xml version="1.0" encoding="utf-8"?><svg width="14" height="14" fill="none" xmlns="http://www.w3.org/2000/svg" viewBox="0 0 14 14"><path fill-rule="evenodd" clip-rule="evenodd" d="M4.373 2.15a.438.438 0 00-.35-.8 7.465 7.465 0 00-3.22 2.704.437.437 0 00.728.484 6.59 6.59 0 012.842-2.387zm5.604-.8a.438.438 0 00-.35.8 6.59 6.59 0 012.842 2.388.438.438 0 10.729-.484 7.465 7.465 0 00-3.22-2.705zm1.101 9.54a5.25 5.25 0 10-8.157 0l-.97 1.73a.438.438 0 10.764.427l.841-1.5A5.23 5.23 0 007 12.832a5.23 5.23 0 003.443-1.287l.842 1.501a.438.438 0 00.763-.428l-.97-1.73zM7 4.23c.242 0 .437.195.437.437v2.682l1.556 1.037a.437.437 0 01-.486.728l-1.75-1.167a.438.438 0 01-.195-.364V4.667c0-.242.196-.438.438-.438z" fill="#808191"/></svg>