<?xml version="1.0" encoding="utf-8"?><svg width="34" height="34" fill="none" xmlns="http://www.w3.org/2000/svg" viewBox="0 0 34 34"><path d="M28.293 8.24l-.922.387.922-.386zm-.813.647a1 1 0 001.844-.774l-1.844.774zm-3.734-6.274a1 1 0 10-.743 1.857l.743-1.857zm-.134 1.023l-.372.929.372-.929zM5.775 8.241l.922.386-.922-.386zm-1.03-.128a1 1 0 001.844.774l-1.845-.774zm6.32-3.643a1 1 0 00-.743-1.857l.743 1.857zm-.608-.834l-.372-.928.372.928zm15.382 9.079l-.993.113.993-.113zm.634 5.582l.993-.113-.993.113zm-18.946 0l-.994-.113.994.113zm.634-5.582l.993.113-.993-.113zM6.3 21.069l-.762-.648.762.648zm21.398 0l-.762.648.762-.648zM20.216 6.196h-1a1 1 0 00.676.946l.324-.946zm-6.432 0l.324.946a1 1 0 00.676-.946h-1zm8.402 22.488a1 1 0 10-1.873-.702l1.873.702zm-8.5-.702a1 1 0 00-1.873.702l1.873-.702zM27.371 8.627l.109.26 1.844-.774-.109-.26-1.844.774zM23.003 4.47l.237.095.743-1.857-.237-.095-.743 1.857zm6.212 3.384a9.5 9.5 0 00-5.232-5.146l-.743 1.857a7.5 7.5 0 014.131 4.062l1.844-.773zm-24.362 0l-.109.26 1.845.773.108-.26-1.844-.773zm5.47-5.24l-.238.094.743 1.857.237-.095-.743-1.857zM6.696 8.626a7.5 7.5 0 014.131-4.062l-.742-1.857a9.5 9.5 0 00-5.233 5.146l1.844.773zM25.184 24.5H8.815v2h16.37v-2zm-.338-11.672l.633 5.581 1.987-.225-.633-5.582-1.987.226zM8.52 18.409l.633-5.581-1.987-.226-.634 5.582 1.988.225zm-1.459 3.308a6.179 6.179 0 001.459-3.308l-1.988-.225a4.18 4.18 0 01-.994 2.237l1.523 1.296zM25.48 18.41a6.178 6.178 0 001.458 3.308l1.523-1.296a4.18 4.18 0 01-.994-2.237l-1.987.225zM8.815 24.5c-.95 0-1.627-.47-1.941-1.024-.305-.537-.3-1.186.188-1.759L5.54 20.421c-1.066 1.252-1.098 2.82-.405 4.042.684 1.205 2.04 2.037 3.681 2.037v-2zm16.37 2c1.64 0 2.997-.832 3.68-2.037.694-1.223.661-2.79-.405-4.042l-1.523 1.296c.488.573.494 1.222.189 1.759-.315.554-.992 1.024-1.942 1.024v2zm-3.97-20.304V6.05h-2v.147h2zm5.618 6.406c-.393-3.457-2.958-6.21-6.293-7.352l-.648 1.892c2.734.936 4.663 3.124 4.954 5.686l1.987-.226zM14.784 6.196V6.05h-2v.147h2zm-5.63 6.632c.29-2.562 2.22-4.75 4.954-5.686L13.46 5.25c-3.335 1.142-5.9 3.895-6.293 7.352l1.987.226zM17 3.833c1.224 0 2.216.992 2.216 2.216h2A4.216 4.216 0 0017 1.833v2zm0-2a4.216 4.216 0 00-4.216 4.216h2c0-1.224.992-2.216 2.216-2.216v-2zm3.313 26.15c-.466 1.245-1.752 2.184-3.313 2.184v2c2.363 0 4.416-1.427 5.186-3.483l-1.873-.702zM17 30.166c-1.562 0-2.847-.94-3.314-2.185l-1.873.702c.771 2.056 2.824 3.483 5.187 3.483v-2z" fill="#fff"/></svg>