<?xml version="1.0" encoding="utf-8"?><svg width="34" height="34" fill="none" xmlns="http://www.w3.org/2000/svg" viewBox="0 0 34 34"><path d="M11.333 8.5h11.333m5.667 17v-17a5.667 5.667 0 00-5.666-5.667H11.332A5.667 5.667 0 005.666 8.5v17a5.667 5.667 0 005.667 5.667h11.333a5.667 5.667 0 005.667-5.667z" stroke="#fff" stroke-width="2" stroke-linecap="round"/><path d="M12.396 14.167a1.063 1.063 0 11-2.125 0 1.063 1.063 0 012.125 0zM18.063 14.167a1.063 1.063 0 11-2.125 0 1.063 1.063 0 012.125 0zM23.73 14.167a1.063 1.063 0 11-2.126 0 1.063 1.063 0 012.125 0zM12.396 19.833a1.063 1.063 0 11-2.125 0 1.063 1.063 0 012.125 0zM18.063 19.833a1.063 1.063 0 11-2.125 0 1.063 1.063 0 012.125 0zM23.73 19.833a1.063 1.063 0 11-2.126 0 1.063 1.063 0 012.125 0zM12.396 25.5a1.063 1.063 0 11-2.125 0 1.063 1.063 0 012.125 0zM18.063 25.5a1.063 1.063 0 11-2.125 0 1.063 1.063 0 012.125 0zM23.73 25.5a1.063 1.063 0 11-2.126 0 1.063 1.063 0 012.125 0z" fill="#fff"/></svg>