<?xml version="1.0" encoding="utf-8"?><svg width="109" height="66" fill="none" xmlns="http://www.w3.org/2000/svg" viewBox="0 0 109 66"><path d="M.49 56.96c0-.607.107-1.2.322-1.778.215-.588.527-1.12.938-1.596.42-.485.929-.868 1.526-1.148.597-.29 1.274-.434 2.03-.434.896 0 1.67.205 2.324.616.653.401 1.139.92 1.456 1.554L7.854 55c-.187-.401-.425-.719-.714-.952a2.46 2.46 0 00-.924-.49 3.506 3.506 0 00-.966-.14c-.523 0-.98.107-1.372.322a3.04 3.04 0 00-.994.826 3.927 3.927 0 00-.602 1.162c-.13.43-.196.859-.196 1.288 0 .476.08.938.238 1.386.159.439.378.83.658 1.176.29.336.63.602 1.022.798a2.84 2.84 0 001.288.294c.317 0 .649-.056.994-.168.345-.112.663-.285.952-.518.299-.243.532-.56.7-.952l1.302.742a3.095 3.095 0 01-.966 1.26c-.43.345-.915.607-1.456.784a4.98 4.98 0 01-1.582.266c-.7 0-1.34-.145-1.918-.434a4.985 4.985 0 01-1.498-1.176 5.69 5.69 0 01-.98-1.652 5.221 5.221 0 01-.35-1.862zm14.12-.952c-.597.01-1.129.145-1.596.406-.457.261-.784.63-.98 1.106V62h-1.54v-7.322h1.428v1.638c.252-.504.584-.905.994-1.204.411-.308.845-.476 1.302-.504h.224c.066 0 .122.005.168.014v1.386zm1.373 7.714l.406.056c.14.028.252.042.336.042a.58.58 0 00.406-.154c.121-.093.242-.27.364-.532.121-.261.27-.64.448-1.134l-3.01-7.322h1.61l2.24 5.754 1.988-5.754h1.484l-3.318 9.016c-.103.27-.252.518-.448.742a2.024 2.024 0 01-.728.546c-.29.13-.63.196-1.022.196a2.3 2.3 0 01-.35-.028 4.564 4.564 0 01-.406-.084v-1.344zm11.562-1.582c-.588 0-1.106-.14-1.554-.42a3.135 3.135 0 01-1.064-1.092v4.354h-1.54V54.678h1.358v1.316c.28-.439.644-.789 1.092-1.05a2.918 2.918 0 011.498-.392c.504 0 .966.103 1.386.308.42.196.784.471 1.092.826.308.355.546.76.714 1.218.177.448.266.924.266 1.428 0 .7-.14 1.34-.42 1.918a3.419 3.419 0 01-1.148 1.386c-.485.336-1.045.504-1.68.504zm-.504-1.316c.327 0 .62-.07.882-.21.27-.14.5-.327.686-.56.196-.233.345-.5.448-.798a2.822 2.822 0 00-.014-1.876 2.273 2.273 0 00-.49-.784 2.292 2.292 0 00-.728-.532c-.27-.13-.57-.196-.896-.196-.196 0-.401.037-.616.112a2.446 2.446 0 00-.602.308c-.187.13-.35.285-.49.462a1.62 1.62 0 00-.294.56v1.918c.13.299.303.57.518.812.215.233.462.425.742.574.28.14.565.21.854.21zm9.101.798c-.13.065-.294.135-.49.21a4.85 4.85 0 01-.672.196 3.35 3.35 0 01-.755.084c-.318 0-.612-.056-.883-.168-.27-.112-.49-.29-.657-.532-.16-.252-.239-.574-.239-.966v-4.578h-.965v-1.19h.965V52.27h1.54v2.408h1.597v1.19h-1.596v4.088c.018.252.097.439.237.56.15.121.332.182.547.182.214 0 .42-.037.615-.112.197-.075.341-.135.434-.182l.322 1.218zm4.261.518c-.578 0-1.096-.098-1.553-.294a3.718 3.718 0 01-1.19-.84 3.858 3.858 0 01-.756-1.204 3.99 3.99 0 01-.267-1.456c0-.513.09-.999.267-1.456.177-.457.429-.859.755-1.204.337-.355.733-.63 1.19-.826a3.818 3.818 0 011.555-.308c.569 0 1.082.103 1.54.308.466.196.863.471 1.19.826.335.345.592.747.77 1.204.177.457.265.943.265 1.456s-.088.999-.265 1.456c-.178.448-.435.85-.77 1.204a3.526 3.526 0 01-1.19.84c-.458.196-.971.294-1.54.294zm-2.184-3.78c0 .467.099.887.294 1.26.197.373.458.667.785.882.326.215.695.322 1.105.322.402 0 .766-.107 1.093-.322.335-.224.601-.523.797-.896.197-.383.294-.803.294-1.26 0-.467-.098-.887-.294-1.26a2.282 2.282 0 00-.797-.882 1.888 1.888 0 00-1.093-.336c-.41 0-.779.112-1.105.336a2.439 2.439 0 00-.785.896c-.195.364-.294.784-.294 1.26zm10.341-1.4c0-.607.108-1.2.322-1.778.215-.588.528-1.12.938-1.596.42-.485.929-.868 1.526-1.148.598-.29 1.274-.434 2.03-.434.896 0 1.671.205 2.324.616.654.401 1.139.92 1.456 1.554L55.924 55c-.186-.401-.424-.719-.714-.952a2.46 2.46 0 00-.924-.49 3.506 3.506 0 00-.966-.14c-.522 0-.98.107-1.372.322-.392.205-.723.48-.994.826a3.928 3.928 0 00-.602 1.162c-.13.43-.196.859-.196 1.288 0 .476.08.938.238 1.386.159.439.378.83.658 1.176.29.336.63.602 1.022.798a2.84 2.84 0 001.288.294c.318 0 .649-.056.994-.168.346-.112.663-.285.952-.518.299-.243.532-.56.7-.952l1.302.742a3.094 3.094 0 01-.966 1.26c-.429.345-.914.607-1.456.784a4.98 4.98 0 01-1.582.266c-.7 0-1.339-.145-1.918-.434a4.985 4.985 0 01-1.498-1.176 5.69 5.69 0 01-.98-1.652 5.222 5.222 0 01-.35-1.862zm9.935 2.198v-4.48h1.54v4.172c0 .653.116 1.148.35 1.484.242.327.592.49 1.05.49.289 0 .569-.06.84-.182.28-.121.532-.299.756-.532.233-.243.42-.532.56-.868v-4.564h1.54v5.586c0 .177.032.303.098.378.065.075.172.117.322.126V62a4.87 4.87 0 01-.392.056c-.103.01-.201.014-.294.014-.28 0-.514-.075-.7-.224a.9.9 0 01-.322-.602l-.028-.728a3.319 3.319 0 01-1.274 1.218 3.688 3.688 0 01-1.722.406c-.766 0-1.344-.252-1.736-.756-.392-.504-.588-1.246-.588-2.226zm12.717-3.15c-.597.01-1.13.145-1.596.406-.457.261-.784.63-.98 1.106V62h-1.54v-7.322h1.428v1.638c.252-.504.583-.905.994-1.204.41-.308.844-.476 1.302-.504h.224c.065 0 .121.005.168.014v1.386zm5.236 0c-.597.01-1.13.145-1.596.406-.457.261-.784.63-.98 1.106V62h-1.54v-7.322h1.428v1.638c.252-.504.584-.905.994-1.204.41-.308.845-.476 1.302-.504h.224c.066 0 .121.005.168.014v1.386zm4.316 6.132c-.57 0-1.088-.098-1.554-.294a3.832 3.832 0 01-1.19-.826 3.942 3.942 0 01-.784-1.204 3.992 3.992 0 01-.267-1.456c0-.69.16-1.32.477-1.89.317-.579.76-1.04 1.33-1.386.569-.355 1.236-.532 2.002-.532.765 0 1.423.177 1.973.532.56.345.995.803 1.302 1.372a3.795 3.795 0 01.42 2.394h-5.865c.027.43.144.807.35 1.134.214.317.485.57.811.756.327.177.677.266 1.05.266.411 0 .799-.103 1.162-.308.374-.205.626-.476.757-.812l1.316.378a2.84 2.84 0 01-.728.966c-.318.28-.696.504-1.134.672a4.168 4.168 0 01-1.428.238zm-2.198-4.312h4.424a2.196 2.196 0 00-.364-1.106 2.134 2.134 0 00-.799-.756 2.059 2.059 0 00-1.064-.28 2.168 2.168 0 00-1.848 1.036 2.278 2.278 0 00-.35 1.106zM92.338 62h-1.54v-4.102c0-.681-.112-1.18-.336-1.498-.215-.317-.537-.476-.966-.476-.299 0-.598.075-.896.224-.29.15-.551.355-.784.616a2.245 2.245 0 00-.504.882V62h-1.54v-7.322h1.4v1.47a2.85 2.85 0 01.728-.84c.308-.243.653-.43 1.036-.56.382-.13.788-.196 1.218-.196.438 0 .798.08 1.078.238.289.159.513.378.672.658.168.27.28.588.336.952.065.355.098.733.098 1.134V62zm5.105.14c-.57 0-1.087-.098-1.554-.294a3.718 3.718 0 01-1.19-.84 3.895 3.895 0 01-.784-1.218 3.99 3.99 0 01-.266-1.456c0-.69.154-1.32.462-1.89a3.71 3.71 0 011.316-1.372c.57-.345 1.241-.518 2.016-.518.747 0 1.395.168 1.946.504.56.327.971.765 1.232 1.316l-1.498.476a1.754 1.754 0 00-.714-.714 1.91 1.91 0 00-.994-.266c-.41 0-.784.107-1.12.322a2.214 2.214 0 00-.784.868c-.186.364-.28.789-.28 1.274 0 .467.098.891.294 1.274.196.373.457.672.784.896.336.215.71.322 1.12.322.252 0 .495-.042.728-.126a2.19 2.19 0 00.63-.364c.177-.159.303-.331.378-.518l1.512.448a2.728 2.728 0 01-.714.966c-.308.28-.676.504-1.106.672-.42.159-.891.238-1.414.238zm4.618 1.582l.406.056c.14.028.252.042.336.042a.58.58 0 00.406-.154c.121-.093.242-.27.364-.532.121-.261.27-.64.448-1.134l-3.01-7.322h1.61l2.24 5.754 1.988-5.754h1.484l-3.318 9.016c-.103.27-.252.518-.448.742a2.028 2.028 0 01-.728.546c-.29.13-.63.196-1.022.196-.112 0-.229-.01-.35-.028a4.485 4.485 0 01-.406-.084v-1.344z" fill="#000"/><g clip-path="url(#amclip0_332_13781)"><path fill-rule="evenodd" clip-rule="evenodd" d="M58.904 2h26.193c.625 0 1.202.33 1.514.866l7.63 13.11c.396.68.279 1.539-.286 2.09L72.951 38.583a1.761 1.761 0 01-2.456 0L49.52 18.093a1.712 1.712 0 01-.26-2.131l8.156-13.138A1.751 1.751 0 0158.904 2zm22.81 5.854v3.678h-7.46v2.55c5.24.273 9.171 1.393 9.2 2.735v2.797c-.029 1.342-3.96 2.461-9.2 2.734v6.259h-4.955v-6.26c-5.24-.272-9.172-1.391-9.201-2.733v-2.797c.03-1.342 3.96-2.462 9.201-2.734v-2.55h-7.461v-3.68h19.877zm-9.938 12.572c5.593 0 10.267-.947 11.41-2.21-.97-1.073-4.478-1.916-8.933-2.148v2.67a47.695 47.695 0 01-4.954 0v-2.67c-4.455.232-7.963 1.075-8.933 2.147 1.144 1.264 5.818 2.21 11.41 2.21z" fill="#009393"/></g><g clip-path="url(#amclip1_332_13781)"><path d="M58.342 26.08c-2.939 11.25-14.877 18.097-26.666 15.291-11.784-2.804-18.957-14.2-16.017-25.449C18.596 4.671 30.535-2.176 42.319.628 54.108 3.433 61.28 14.83 58.342 26.08z" fill="#F7931A"/><path d="M46.701 18.008c.438-2.795-1.791-4.297-4.84-5.299l.99-3.786-2.415-.574-.962 3.686c-.635-.15-1.287-.293-1.935-.434l.97-3.71-2.413-.575-.99 3.785a83.25 83.25 0 01-1.541-.346l.003-.012-3.33-.794-.642 2.461s1.791.392 1.753.416c.978.233 1.155.851 1.125 1.34l-1.126 4.313c.067.017.155.04.251.077l-.255-.06-1.58 6.041c-.119.284-.422.71-1.105.548.024.033-1.755-.418-1.755-.418l-1.199 2.638 3.142.747c.585.14 1.157.287 1.721.424l-.999 3.83 2.412.573.99-3.788c.658.17 1.298.328 1.924.477l-.987 3.77 2.415.574.999-3.822c4.117.744 7.213.444 8.516-3.11 1.05-2.861-.053-4.512-2.218-5.588 1.577-.348 2.765-1.338 3.082-3.384zm-5.516 7.383c-.746 2.862-5.794 1.315-7.43.927l1.325-5.073c1.637.39 6.885 1.162 6.105 4.146zm.747-7.424c-.681 2.603-4.883 1.28-6.245.956l1.202-4.6c1.362.323 5.752.929 5.043 3.644z" fill="#fff"/></g><defs><clipPath id="amclip0_332_13781"><path fill="#fff" transform="translate(49 2)" d="M0 0h46v38H0z"/></clipPath><clipPath id="amclip1_332_13781"><path fill="#fff" transform="translate(15)" d="M0 0h44v42H0z"/></clipPath></defs></svg>