<?xml version="1.0" encoding="utf-8"?><svg width="22" height="18" fill="none" xmlns="http://www.w3.org/2000/svg" viewBox="0 0 22 18"><g filter="url(#aofilter0_d_623_3516)"><g clip-path="url(#aoclip0_623_3516)"><mask id="aoa" style="mask-type:luminance" maskUnits="userSpaceOnUse" x="3" y="1" width="16" height="12"><path fill="#fff" d="M3 1h16v12H3z"/></mask><g mask="url(#aoa)"><path fill-rule="evenodd" clip-rule="evenodd" d="M3 1v12h16V1H3z" fill="#3D58DB"/><mask id="aob" style="mask-type:luminance" maskUnits="userSpaceOnUse" x="3" y="1" width="16" height="12"><path fill-rule="evenodd" clip-rule="evenodd" d="M3 1v12h16V1H3z" fill="#fff"/></mask><g mask="url(#aob)" fill-rule="evenodd" clip-rule="evenodd"><path d="M3 1v4h16V1H3z" fill="#F7FCFF"/><path d="M3 9v4h16V9H3z" fill="#C51918"/></g></g><path fill="url(#aopaint0_linear_623_3516)" style="mix-blend-mode:overlay" d="M3 1h16v12H3z"/></g><rect x="3.5" y="1.5" width="15" height="11" rx=".5" stroke="#000" stroke-opacity=".1" style="mix-blend-mode:multiply"/></g><defs><linearGradient id="aopaint0_linear_623_3516" x1="11" y1="1" x2="11" y2="13" gradientUnits="userSpaceOnUse"><stop stop-color="#fff" stop-opacity=".7"/><stop offset="1" stop-opacity=".3"/></linearGradient><clipPath id="aoclip0_623_3516"><rect x="3" y="1" width="16" height="12" rx="1" fill="#fff"/></clipPath><filter id="aofilter0_d_623_3516" x="0" y="0" width="22" height="18" filterUnits="userSpaceOnUse" color-interpolation-filters="sRGB"><feFlood flood-opacity="0" result="BackgroundImageFix"/><feColorMatrix in="SourceAlpha" values="0 0 0 0 0 0 0 0 0 0 0 0 0 0 0 0 0 0 127 0" result="hardAlpha"/><feOffset dy="2"/><feGaussianBlur stdDeviation="1.5"/><feColorMatrix values="0 0 0 0 0 0 0 0 0 0 0 0 0 0 0 0 0 0 0.1 0"/><feBlend in2="BackgroundImageFix" result="effect1_dropShadow_623_3516"/><feBlend in="SourceGraphic" in2="effect1_dropShadow_623_3516" result="shape"/></filter></defs></svg>