<?xml version="1.0" encoding="utf-8"?><svg width="27" height="25" fill="none" xmlns="http://www.w3.org/2000/svg" viewBox="0 0 27 25"><g clip-path="url(#apclip0_623_6270)"><path d="M22.507 1.613c.384.254.663.503.896.89.384.635.406.825-.243 1.976-.216.383-.507.415-.834.117-.996-1.012-2.104-1.719-3.57-1.63-.198-1.085.521-2.01 1.574-1.989.233.005.662.046.896 0-.179-.21-.796-.648-1.024-.762-.897-.509-2.137-.087-2.922.973-.388.524-.675 1.124-.991 1.698-.957 1.998-1.454 3.176-3.937 2.89-1.763-.146-3.531-.309-5.297-.306-1.114.001-2.251.203-3.336.478-1.637.39-3.12 1.746-3.23 3.49-.055.709.283.919 1.002.78 4.292-.946 8.71 2.525 7.862 6.852-.294 1.518-.856 2.925-1.887 4.11-1.222 1.405-3.244 1.945-5.012 1.36-.957-.316-1.472-.99-1.443-2.003.014-.523.134-1.041.219-1.655-.365.525-.418.555-.493.652-1.292 1.628-.833 3.39.94 4.48 2.345 1.44 4.77 1.224 7.024-.137 1.196-.724 2.173-1.812 3.217-2.77.86-.79 1.603-1.714 2.515-2.431 2.59-2.037 5.478-1.868 7.845.414.824.796 1.552 1.69 2.35 2.512.919.948 1.558.823 1.977-.439.813-2.449.332-4.729-1.108-6.818-.564-.819-1.228-1.571-1.87-2.334-1.258-1.497-1.269-2.347-.18-3.98.701-1.054 1.412-2.134 1.891-3.294.695-1.684-.83-3.453-2.832-3.122v-.002zM12.179 16.04a.228.228 0 01-.087-.264c.108-.302.197-.618.364-.885 1.538-2.425 2.643-4.347 4.546-6.545.266-.3.712-.875 1.149-.455.422.407-.034.793-.3 1.143-1.661 2.174-3.205 4.205-4.774 6.433-.16.221-.4.385-.624.562a.234.234 0 01-.274.011z" fill="#416FF4"/></g><defs><clipPath id="apclip0_623_6270"><path fill="#fff" transform="matrix(-1 0 0 1 27 0)" d="M0 0h27v25H0z"/></clipPath></defs></svg>