<?xml version="1.0" encoding="utf-8"?><svg width="88" height="34" fill="none" xmlns="http://www.w3.org/2000/svg" viewBox="0 0 88 34"><g clip-path="url(#arclip0_254_14144)"><path d="M41.07 16.538v10.025h-3.232V1.807H46.4a7.832 7.832 0 012.985.521 7.74 7.74 0 012.551 1.613 7.14 7.14 0 011.717 2.38 7.044 7.044 0 010 5.714 7.14 7.14 0 01-1.717 2.38 7.728 7.728 0 01-2.554 1.598 7.817 7.817 0 01-2.982.507h-5.33v.018zm0-11.683v8.631h5.417a4.371 4.371 0 001.734-.31 4.315 4.315 0 001.462-.967 4.17 4.17 0 00.965-1.385 4.116 4.116 0 00.332-1.648 4.383 4.383 0 00-1.354-3.056 4.518 4.518 0 00-3.139-1.251H41.07v-.014zM62.71 9.062c2.389 0 4.272.63 5.652 1.888 1.38 1.26 2.07 2.983 2.07 5.172V26.56H67.35v-2.355h-.134c-1.329 1.939-3.113 2.899-5.334 2.899a6.989 6.989 0 01-4.763-1.657 5.303 5.303 0 01-1.438-1.856 5.224 5.224 0 01-.487-2.284 4.94 4.94 0 01.49-2.331 5.02 5.02 0 011.529-1.844c1.347-1.046 3.145-1.558 5.384-1.558 1.918 0 3.5.356 4.728 1.045v-.71a3.564 3.564 0 00-.342-1.557 3.618 3.618 0 00-.987-1.26 4.602 4.602 0 00-3.132-1.16 4.97 4.97 0 00-2.427.56 4.88 4.88 0 00-1.834 1.663l-2.842-1.757c1.565-2.229 3.88-3.34 6.948-3.336zM58.54 21.357c-.003.405.094.806.283 1.166.188.36.463.67.8.904.715.55 1.6.842 2.507.828.675 0 1.344-.132 1.967-.388a5.13 5.13 0 001.666-1.102 4.687 4.687 0 001.18-1.58 4.621 4.621 0 00.42-1.916c-1.012-.779-2.406-1.177-4.208-1.177a5.584 5.584 0 00-3.283.928c-.895.647-1.336 1.426-1.336 2.337h.004zM87.999 9.61L77.226 34h-3.33l4.005-8.536-7.1-15.858h3.535L79.45 21.77h.069l4.98-12.163 3.5.004z" fill="#3C4043"/><path d="M28.22 14.51c0-1-.09-1.999-.27-2.983H14.405V17h7.797c-.15.89-.483 1.74-.98 2.497a6.628 6.628 0 01-1.909 1.906v3.556h4.64c2.71-2.479 4.266-6.131 4.266-10.448z" fill="#4285F4"/><path d="M19.318 21.403a8.86 8.86 0 01-7.617.88 8.752 8.752 0 01-3.324-2.077 8.58 8.58 0 01-2.06-3.302H1.53v3.652a14.28 14.28 0 005.315 5.711 14.584 14.584 0 007.567 2.114c3.893 0 7.165-1.263 9.545-3.432l-4.64-3.546z" fill="#34A853"/><path d="M5.869 14.19c0-.923.153-1.841.451-2.717V7.817H1.532A14.05 14.05 0 000 14.192c0 2.214.524 4.396 1.532 6.375l4.788-3.66a8.442 8.442 0 01-.451-2.717z" fill="#FABB05"/><path d="M14.413 5.62a7.9 7.9 0 015.53 2.133l4.112-4.047A13.965 13.965 0 0014.41.007c-2.672 0-5.292.732-7.567 2.114a14.281 14.281 0 00-5.315 5.71l4.79 3.66a8.5 8.5 0 013.089-4.218 8.712 8.712 0 015.007-1.654z" fill="#E94235"/></g><defs><clipPath id="arclip0_254_14144"><path fill="#fff" d="M0 0h88v34H0z"/></clipPath></defs></svg>