<?xml version="1.0" encoding="utf-8"?><svg width="33" height="30" fill="none" xmlns="http://www.w3.org/2000/svg" viewBox="0 0 33 30"><g clip-path="url(#asclip0_164_8294)"><path d="M0 30c6.01-3.325 10.847-8.309 15.349-13.387.226-.168-.437-.37-.265-.993.26-.949.306-1.874.315-2.859.017-2.1.08-4.31-.829-6.263C13.37 3.916 11.476 1.085 8.388.679 7.745.585 7.62-.028 8.42.001c3.196.1 6.514-.007 9.488 1.343 4.489 1.854 3.246.454 7.024.139a15.627 15.627 0 011.574-.02c.115.005.183-.005.263-.087.453-.47.99-.76 1.656-.856.336-.049 1.585-.198 1.235.34-.548.844-3.024.989-2.147 2.525.195.342.738.69.993.91 1.496 1.297 1.755 1.36 2.84-.505.175-.301.894-1.264.92-.563.01.268.092.864-.076 1.49-.129.482-.417.871-.774 1.213-.081.078-.11.144-.084.261.41 1.607-.326 3.15-.76 4.646-.014 2.379 1.478 4.37 1.868 6.656.383 2.011.448 4.053.554 6.092.07.595-.387 1.826-.68.577-.234-.997-.509-1.8-1.075-2.57-2.443-3.175-6.574-4.207-10.501-4.304-1.358-.033-3.4.662-4.008.289-.293-.18-.397-.388-.601-.194C12.89 20.215 3.785 30.036 0 30z" fill="#416FF4"/></g><defs><clipPath id="asclip0_164_8294"><path fill="#fff" transform="matrix(-1 0 0 1 33 0)" d="M0 0h33v30H0z"/></clipPath></defs></svg>