<?xml version="1.0" encoding="utf-8"?><svg width="32" height="32" fill="none" xmlns="http://www.w3.org/2000/svg" viewBox="0 0 32 32"><circle cx="16" cy="16" r="15.5" fill="#fff" stroke="#DBDEE7"/><path d="M10 10l12 12m-4.5-4.323a2.25 2.25 0 01-3.177-3.177m7.383 4.206c.428-.373.812-.749 1.142-1.096.87-.915.87-2.305 0-3.22-1.467-1.543-3.986-3.64-6.848-3.64-.668 0-1.318.114-1.94.31m-2.185 1.042c-1.094.699-2.027 1.556-2.723 2.288a2.314 2.314 0 000 3.22c1.467 1.544 3.986 3.64 6.848 3.64 1.401 0 2.72-.503 3.874-1.197" stroke="#808191" stroke-width="1.5" stroke-linecap="round"/></svg>