<?xml version="1.0" encoding="utf-8"?><svg width="18" height="18" fill="none" xmlns="http://www.w3.org/2000/svg" viewBox="0 0 18 18"><path d="M3 3l12 12m-4.5-4.323A2.25 2.25 0 017.323 7.5m7.383 4.206c.428-.373.812-.749 1.142-1.096.87-.915.87-2.305 0-3.22C14.38 5.847 11.862 3.75 9 3.75c-.669 0-1.318.114-1.94.31M4.875 5.102C3.781 5.8 2.848 6.658 2.152 7.39a2.314 2.314 0 000 3.22C3.62 12.153 6.138 14.25 9 14.25c1.401 0 2.72-.503 3.874-1.197" stroke="currentColor" stroke-width="1.5" stroke-linecap="round"/></svg>