<?xml version="1.0" encoding="utf-8"?><svg width="16" height="16" fill="none" xmlns="http://www.w3.org/2000/svg" viewBox="0 0 16 16"><g clip-path="url(#bjclip0_659_3321)"><path d="M8 1.333v1.334m6 .666l-1 1m-11-1l1 1m5 10.334c2.403 0 4.542-1.564 5.918-2.881.998-.955.998-2.617 0-3.572-1.376-1.317-3.515-2.88-5.918-2.88s-4.542 1.563-5.918 2.88c-.998.955-.998 2.617 0 3.572 1.376 1.317 3.515 2.88 5.918 2.88zM10 10a2 2 0 11-4 0 2 2 0 014 0z" stroke="currentColor" stroke-width="1.5" stroke-linecap="round"/></g><defs><clipPath id="bjclip0_659_3321"><path fill="#fff" d="M0 0h16v16H0z"/></clipPath></defs></svg>