<?xml version="1.0" encoding="utf-8"?><svg width="18" height="18" fill="none" xmlns="http://www.w3.org/2000/svg" viewBox="0 0 18 18"><path d="M6 4.5h6m3 9v-9a3 3 0 00-3-3H6a3 3 0 00-3 3v9a3 3 0 003 3h6a3 3 0 003-3z" stroke="currentColor" stroke-width="1.5" stroke-linecap="round"/><path d="M6.563 7.5a.563.563 0 11-1.126 0 .563.563 0 011.125 0zM9.563 7.5a.563.563 0 11-1.126 0 .563.563 0 011.126 0zM12.563 7.5a.562.562 0 11-1.125 0 .562.562 0 011.124 0zM6.563 10.5a.562.562 0 11-1.125 0 .562.562 0 011.125 0zM9.563 10.5a.562.562 0 11-1.125 0 .562.562 0 011.124 0zM12.563 10.5a.562.562 0 11-1.125 0 .562.562 0 011.124 0zM6.563 13.5a.562.562 0 11-1.125 0 .562.562 0 011.125 0zM9.563 13.5a.562.562 0 11-1.125 0 .562.562 0 011.124 0zM12.563 13.5a.562.562 0 11-1.125 0 .562.562 0 011.124 0z" fill="currentColor"/></svg>