<?xml version="1.0" encoding="utf-8"?><svg width="76" height="60" fill="none" xmlns="http://www.w3.org/2000/svg" viewBox="0 0 76 60"><g clip-path="url(#bxclip0_254_14124)"><path d="M74.503 59.186v.155h.141a.147.147 0 00.076-.02.069.069 0 00.029-.059.067.067 0 00-.029-.057.135.135 0 00-.076-.02h-.141v.001zm.143-.109a.26.26 0 01.17.05.164.164 0 01.06.137.158.158 0 01-.048.12.232.232 0 01-.136.057l.19.22h-.146l-.175-.218h-.057v.218h-.122v-.583h.266-.002zm-.038.785a.45.45 0 00.186-.038.49.49 0 000-.9.492.492 0 00-.532.104.5.5 0 000 .695.486.486 0 00.346.143m0-1.118a.632.632 0 01.581.873.652.652 0 01-.135.2.678.678 0 01-.2.135.623.623 0 01-.496 0 .647.647 0 01-.201-.135.652.652 0 01-.133-.207.628.628 0 01.586-.873m-58.188-2.246c0-1.113.718-2.026 1.892-2.026 1.122 0 1.88.874 1.88 2.026 0 1.152-.758 2.026-1.88 2.026-1.174 0-1.892-.914-1.892-2.026zm5.05 0v-3.166h-1.356v.771c-.43-.57-1.083-.927-1.97-.927-1.748 0-3.12 1.391-3.12 3.323 0 1.933 1.37 3.324 3.12 3.324.887 0 1.54-.358 1.97-.928v.77h1.354v-3.167h.002zm45.825 0c0-1.113.718-2.026 1.892-2.026 1.123 0 1.879.874 1.879 2.026 0 1.152-.756 2.026-1.879 2.026-1.174 0-1.892-.914-1.892-2.026zm5.05 0v-5.707H70.99V54.1c-.43-.57-1.082-.927-1.97-.927-1.748 0-3.12 1.391-3.12 3.323 0 1.933 1.372 3.324 3.12 3.324.888 0 1.54-.358 1.97-.928v.77h1.358v-3.167zm-34.043-2.092c.874 0 1.435.556 1.579 1.535h-3.236c.145-.913.691-1.535 1.658-1.535m.027-1.234c-1.828 0-3.107 1.35-3.107 3.324 0 2.012 1.33 3.323 3.197 3.323.94 0 1.8-.238 2.557-.886l-.664-1.02a2.947 2.947 0 01-1.815.662c-.874 0-1.67-.41-1.865-1.55h4.63c.014-.172.028-.344.028-.53-.014-1.973-1.216-3.323-2.962-3.323m16.374 3.324c0-1.113.718-2.027 1.892-2.027 1.122 0 1.879.875 1.879 2.026 0 1.152-.757 2.027-1.879 2.027-1.174 0-1.892-.914-1.892-2.026m5.05 0v-3.164h-1.356v.771c-.432-.57-1.083-.927-1.97-.927-1.748 0-3.12 1.391-3.12 3.323 0 1.933 1.371 3.324 3.12 3.324.887 0 1.538-.358 1.97-.928v.77h1.355V56.492zm-12.709 0c0 1.92 1.317 3.323 3.327 3.323.94 0 1.566-.212 2.242-.755l-.65-1.112c-.51.371-1.045.57-1.635.57-1.082-.014-1.879-.808-1.879-2.026 0-1.219.797-2.013 1.88-2.027.588 0 1.122.199 1.633.57l.651-1.112c-.678-.543-1.303-.755-2.242-.755-2.01 0-3.327 1.403-3.327 3.324zm17.484-3.324c-.782 0-1.292.371-1.644.927v-.767h-1.344v6.329h1.357V56.11c0-1.047.444-1.63 1.33-1.63.29-.003.579.05.849.16l.418-1.297c-.3-.12-.692-.173-.967-.173m-36.352.662c-.653-.436-1.552-.662-2.543-.662-1.58 0-2.598.769-2.598 2.026 0 1.032.758 1.669 2.152 1.867l.64.093c.745.106 1.096.304 1.096.662 0 .49-.494.768-1.422.768-.94 0-1.617-.304-2.074-.662l-.638 1.073c.744.556 1.683.822 2.7.822 1.802 0 2.846-.86 2.846-2.066 0-1.112-.822-1.694-2.18-1.893l-.638-.094c-.588-.077-1.058-.197-1.058-.621 0-.463.444-.741 1.188-.741.796 0 1.566.304 1.944.542l.587-1.112-.002-.002zm17.5-.66c-.783 0-1.293.37-1.644.927v-.77H42.69v6.329h1.356V56.11c0-1.047.443-1.63 1.33-1.63.29-.003.578.05.848.16l.418-1.297c-.3-.12-.692-.173-.967-.173m-11.572.16h-2.218v-1.92h-1.37v1.92h-1.266v1.257h1.265v2.887c0 1.468.562 2.343 2.166 2.343.589 0 1.267-.185 1.697-.49l-.392-1.178c-.404.238-.848.358-1.2.358-.678 0-.9-.424-.9-1.06v-2.859h2.218v-1.259zm-20.276 6.33v-3.973c0-1.495-.94-2.502-2.454-2.515-.796-.014-1.617.238-2.192 1.126-.43-.702-1.108-1.126-2.061-1.126-.667 0-1.318.198-1.827.94v-.783H3.936v6.329h1.368v-3.51c0-1.098.6-1.682 1.527-1.682.9 0 1.356.596 1.356 1.669v3.522h1.371v-3.51c0-1.098.626-1.682 1.527-1.682.925 0 1.367.596 1.367 1.669v3.522l1.375.003z" fill="#231F20"/><path d="M75.276 38.608v-.926h-.237l-.275.635-.273-.635h-.238v.925h.168v-.697l.257.602h.175l.257-.603v.699h.167zm-1.506 0v-.767h.304v-.157h-.777v.157h.304v.767h.169z" fill="#F79410"/><path d="M48.281 42.577H27.73V5.096h20.553v37.48z" fill="#FF5F00"/><path d="M29.032 23.837c0-7.603 3.508-14.376 8.971-18.74A23.172 23.172 0 0023.487 0C10.515 0 0 10.672 0 23.837s10.515 23.837 23.487 23.837a23.172 23.172 0 0014.516-5.097c-5.462-4.364-8.971-11.137-8.971-18.74z" fill="#EB001B"/><path d="M76.01 23.837c0 13.165-10.516 23.837-23.488 23.837a23.18 23.18 0 01-14.518-5.097c5.464-4.364 8.973-11.137 8.973-18.74 0-7.604-3.509-14.376-8.973-18.74A23.18 23.18 0 0152.52 0C65.493 0 76.01 10.672 76.01 23.837" fill="#F79E1B"/></g><defs><clipPath id="bxclip0_254_14124"><path fill="#fff" d="M0 0h76v60H0z"/></clipPath></defs></svg>