<?xml version="1.0" encoding="utf-8"?><svg width="80" height="23" fill="none" xmlns="http://www.w3.org/2000/svg" viewBox="0 0 80 23"><g clip-path="url(#bzclip0_254_14265)" fill-rule="evenodd" clip-rule="evenodd"><path d="M71.02 0H55.836c.816 5.093 5.714 9.857 11.102 9.857H79.02c.163-.493.163-1.15.163-1.643C79.183 3.614 75.59 0 71.02 0z" fill="url(#bzpaint0_linear_254_14265)"/><path d="M57.143 10.679V23h7.347v-6.571h6.53c3.592 0 6.694-2.465 7.674-5.75H57.143zM31.02 0v23h6.53s1.633 0 2.45-1.643l5.713-11.5h.817V23h7.347V0h-6.53s-1.634.164-2.45 1.643l-5.714 11.5h-.816V0H31.02zM0 23V0h7.347s2.122 0 3.265 3.286c2.939 8.707 3.266 9.857 3.266 9.857s.653-2.136 3.265-9.857C18.286 0 20.408 0 20.408 0h7.347v23h-7.347V10.679h-.816L15.51 23h-3.265L8.163 10.679h-.816V23H0z" fill="#4DB45F"/></g><defs><linearGradient id="bzpaint0_linear_254_14265" x1="55.794" y1="4.929" x2="79.183" y2="4.929" gradientUnits="userSpaceOnUse"><stop stop-color="#00B4E6"/><stop offset="1" stop-color="#088CCB"/></linearGradient><clipPath id="bzclip0_254_14265"><path fill="#fff" d="M0 0h80v23H0z"/></clipPath></defs></svg>