<?xml version="1.0" encoding="utf-8"?><svg width="34" height="34" fill="none" xmlns="http://www.w3.org/2000/svg" viewBox="0 0 34 34"><path d="M21.667 9.917A4.667 4.667 0 0117 14.583v2a6.667 6.667 0 006.667-6.666h-2zM17 14.583a4.667 4.667 0 01-4.666-4.666h-2A6.667 6.667 0 0017 16.583v-2zm-4.666-4.666A4.667 4.667 0 0117 5.25v-2a6.667 6.667 0 00-6.666 6.667h2zM17 5.25a4.667 4.667 0 014.667 4.667h2A6.667 6.667 0 0017 3.25v2zm8.917 19.542c0 .786-.664 1.767-2.352 2.611-1.628.815-3.948 1.347-6.565 1.347v2c2.86 0 5.499-.578 7.46-1.558 1.9-.95 3.457-2.448 3.457-4.4h-2zM17 28.75c-2.617 0-4.936-.532-6.565-1.347-1.688-.844-2.351-1.825-2.351-2.611h-2c0 1.952 1.556 3.45 3.457 4.4 1.96.98 4.6 1.558 7.46 1.558v-2zm-8.916-3.958c0-.787.663-1.768 2.351-2.612 1.629-.814 3.948-1.347 6.565-1.347v-2c-2.86 0-5.498.578-7.46 1.558-1.9.95-3.456 2.449-3.456 4.4h2zM17 20.833c2.617 0 4.937.533 6.565 1.347 1.688.844 2.352 1.825 2.352 2.612h2c0-1.952-1.557-3.45-3.458-4.4-1.96-.981-4.599-1.559-7.459-1.559v2z" fill="#fff"/></svg>