<?xml version="1.0" encoding="utf-8"?><svg width="103" height="52" fill="none" xmlns="http://www.w3.org/2000/svg" viewBox="0 0 103 52"><path d="M50.426 29.51h1.615v3.63h1.171l2.093-3.63h1.745l-2.526 4.225v.022l2.678 4.636H55.37l-2.158-3.889h-1.15v3.89h-1.614l-.022-8.895v.011zm10.386 2.35c1.941 0 3.524 1.377 3.524 3.348 0 1.972-1.572 3.348-3.523 3.348-1.952 0-3.524-1.376-3.524-3.348.021-1.96 1.572-3.347 3.523-3.347zm0 5.33c1.106.066 2.028-.8 2.093-1.895.065-1.105-.802-2.026-1.897-2.09-1.106-.066-2.028.8-2.093 1.895v.108a1.887 1.887 0 001.81 1.983h.087zm4.793-5.177h1.507v5.048h1.984v-5.048h1.507v5.048h2.006v-5.048h1.485v6.391h-8.533l.022-6.392h.022zm13.108-.152c1.832 0 2.83 1.343 2.83 3.022 0 .217-.022.412-.044.629h-4.38c.109 1.126.954 1.679 1.92 1.679a2.996 2.996 0 001.831-.715l.63 1.148a4.133 4.133 0 01-2.57.91c-2.115 0-3.459-1.527-3.459-3.347-.022-1.94 1.323-3.326 3.242-3.326zm1.236 2.546c0-.845-.564-1.354-1.28-1.354-.78 0-1.441.585-1.528 1.354h2.808zm2.353 2.654c.802-.108 1.344-.78 1.344-3.044v-2.005h4.662v6.392h-1.594v-5.092h-1.55v.716c0 2.784-.737 4.376-2.852 4.441v-1.397l-.01-.011zm10.56-5.2c1.832 0 2.83 1.343 2.83 3.022 0 .217-.022.412-.044.629h-4.38a1.805 1.805 0 001.919 1.679 2.996 2.996 0 001.832-.715l.63 1.148a4.133 4.133 0 01-2.57.91c-2.115 0-3.459-1.527-3.459-3.347-.022-1.94 1.323-3.326 3.242-3.326zm1.236 2.546c-.022-.845-.564-1.354-1.28-1.354-.78 0-1.442.585-1.528 1.354h2.808zm2.938-2.373h1.594v2.438h.78l1.551-2.438h1.767l-2.027 3.044v.022l2.287 3.326h-1.832l-1.68-2.59h-.825v2.59h-1.593v-6.392h-.022z" fill="#2D3540"/><path d="M72.826 9.674v15.102a.412.412 0 01-.412.412h-3.09a.412.412 0 01-.412-.412V9.674c0-.216.174-.412.412-.412h3.09c.217 0 .412.174.412.412zm24.06-.412h-3.46a.416.416 0 00-.39.304l-2.743 8.916-3.003-8.938a.417.417 0 00-.39-.282h-2.418a.417.417 0 00-.39.282l-3.004 8.938-2.721-8.938a.416.416 0 00-.39-.303h-3.46c-.13 0-.26.065-.346.173a.378.378 0 00-.065.369l5.096 15.101a.417.417 0 00.39.282h2.743a.417.417 0 00.39-.282l2.982-8.829 2.981 8.83a.417.417 0 00.39.28h2.744a.417.417 0 00.39-.28l5.096-15.103a.378.378 0 00-.065-.368c-.109-.108-.239-.173-.369-.152h.011zm5.203 0h-3.09a.412.412 0 00-.412.412v15.102c0 .216.174.412.412.412h3.09a.411.411 0 00.412-.412V9.674a.411.411 0 00-.412-.412zM67.124 24.667c.13.109.13.304.021.434a.4.4 0 01-.26.108H63.1a.464.464 0 01-.39-.195l-.65-.78c-3.871 2.503-9.054 1.376-11.559-2.48-2.504-3.857-1.376-9.047 2.483-11.549 3.871-2.503 9.053-1.376 11.558 2.48a8.337 8.337 0 010 9.047l2.57 2.936h.01zm-7.514-3.369l-1.659-2.004a.336.336 0 01.043-.455.35.35 0 01.196-.065h3.48a4.79 4.79 0 00.26-1.549c0-2.503-1.854-4.637-4.402-4.637-2.548-.021-4.402 2.135-4.402 4.615 0 2.481 1.854 4.615 4.402 4.615.738 0 1.464-.173 2.093-.52h-.011zM35.595 31.98c-.304-.152-.694-.065-.868.238-.217.412-.065 1.235.39 1.94.456.704.868 1.083 1.172 1.083.303 0 .563-.368.433-1.279-.043-.52-.347-1.679-1.127-1.982zm-4.554 3.37a1.195 1.195 0 00-.976.41c-.542.672-.303 1.853.542 2.568.39.325.89.499 1.399.499.477.021.932-.174 1.236-.542.477-.65.217-1.57-.716-2.35a2.465 2.465 0 00-1.485-.586zm-10.452 8.655C9.205 44.005 0 34.797 0 23.422 0 12.047 9.227 2.86 20.6 2.86c11.373 0 20.578 9.22 20.578 20.583 0 3.716-1.019 7.356-2.916 10.552-.044.065-.109.087-.174.043-.043-.021-.065-.065-.065-.086-.715-5.049-3.805-7.854-8.294-8.678-.39-.065-.455-.303.043-.347a19.145 19.145 0 014.316.087c.065-.52.086-1.061.086-1.57 0-7.508-6.093-13.596-13.607-13.596-7.513 0-13.596 6.088-13.596 13.595 0 7.508 6.094 13.596 13.607 13.596h.65a17.362 17.362 0 01-.26-3.672c.044-.845.196-.954.586-.304 1.876 3.24 4.576 6.197 9.845 7.356 4.293.954 8.597 2.07 13.26 7.941.412.52-.217 1.04-.694.628-4.75-4.181-9.032-5.546-12.978-5.546-4.38-.022-7.384.563-10.409.563h.011z" fill="#FF8C00"/></svg>