<?xml version="1.0" encoding="utf-8"?><svg width="14" height="14" fill="none" xmlns="http://www.w3.org/2000/svg" viewBox="0 0 14 14"><path fill-rule="evenodd" clip-rule="evenodd" d="M2.438 1.167c.241 0 .437.196.437.437v.146H9c.644 0 1.167.522 1.167 1.167v4.521a.73.73 0 01-.73.729h-.435-6.127v4.229a.438.438 0 01-.875 0V1.604c0-.241.196-.437.438-.437zm1.895 8.166v-.291h5.104c.886 0 1.605-.718 1.605-1.604V4.083h.291c.645 0 1.167.523 1.167 1.167v4.083c0 .645-.522 1.167-1.167 1.167H5.5a1.167 1.167 0 01-1.167-1.167z" fill="#808191"/></svg>