<?xml version="1.0" encoding="utf-8"?><svg width="96" height="49" fill="none" xmlns="http://www.w3.org/2000/svg" viewBox="0 0 96 49"><path d="M83.01 13.987v11.98h-4.207v-8.404H74.75v8.404h-4.208v-11.98H83.01z" fill="#000"/><path fill-rule="evenodd" clip-rule="evenodd" d="M61.902 26.395c3.767 0 6.565-2.348 6.565-5.907 0-3.445-2.064-5.682-5.513-5.682-1.592 0-2.906.57-3.895 1.552.236-2.031 1.926-3.514 3.787-3.514l3.662-.007 1.828-3.557s-4.059.094-5.945.094c-4.311.077-7.223 4.06-7.223 8.898 0 5.636 2.84 8.123 6.734 8.123zm.023-8.44c1.399 0 2.369.935 2.369 2.532 0 1.438-.862 2.623-2.369 2.626-1.44 0-2.41-1.098-2.41-2.601 0-1.598.97-2.556 2.41-2.556z" fill="#000"/><path d="M51.743 21.956s-.993.582-2.478.692c-1.706.052-3.226-1.044-3.226-2.99 0-1.899 1.341-2.987 3.183-2.987 1.13 0 2.624.796 2.624.796s1.094-2.04 1.66-3.06c-1.037-.799-2.419-1.237-4.025-1.237-4.055 0-7.196 2.688-7.196 6.464 0 3.824 2.952 6.45 7.196 6.37 1.186-.045 2.822-.468 3.82-1.12l-1.558-2.928z" fill="#000"/><path d="M0 10.666l5.837 10.606v6.47L.007 38.327 0 10.666z" fill="#5B57A2"/><path d="M22.412 17.413l5.47-3.408 11.193-.011-16.663 10.377v-6.958z" fill="#D90751"/><path d="M22.38 10.603l.031 14.043-5.85-3.655V0l5.82 10.603z" fill="#FAB718"/><path d="M39.075 13.994l-11.195.01-5.5-3.4L16.56 0l22.515 13.994z" fill="#ED6F26"/><path d="M22.411 38.386v-6.813l-5.85-3.585L16.564 49l5.847-10.614z" fill="#63B22F"/><path d="M27.868 35.01L5.837 21.271 0 10.666l39.052 24.33-11.184.013z" fill="#1487C9"/><path d="M16.566 49l5.847-10.614 5.456-3.377 11.184-.014L16.566 49z" fill="#017F36"/><path d="M.006 38.327l16.602-10.339-5.581-3.481-5.19 3.235L.005 38.327z" fill="#984995"/><path d="M46.038 34.03a1.212 1.212 0 01-.5.376c-.209.087-.431.13-.656.13a1.831 1.831 0 01-.656-.112 1.451 1.451 0 01-.507-.32 1.448 1.448 0 01-.33-.5 1.73 1.73 0 01-.12-.648c0-.22.038-.425.116-.619.074-.194.182-.36.317-.5a1.502 1.502 0 011.092-.462c.24 0 .463.031.666.092.203.062.375.164.517.306l-.247.425c-.119-.11-.26-.193-.412-.245a1.428 1.428 0 00-.45-.07 1.039 1.039 0 00-.72.296 1.092 1.092 0 00-.31.781c0 .166.03.315.087.444.058.133.136.245.233.34a.95.95 0 00.345.214c.132.051.27.075.42.075.182 0 .348-.038.49-.11.14-.068.266-.164.372-.28l.253.386zm.696.434V31.44h.534v2.253l1.737-2.253h.535v3.024h-.535v-2.252l-1.737 2.252h-.534zm6.344-.435a1.21 1.21 0 01-.5.377c-.208.087-.43.13-.656.13a1.833 1.833 0 01-.655-.112 1.453 1.453 0 01-.507-.32 1.446 1.446 0 01-.331-.5 1.729 1.729 0 01-.119-.648c0-.22.037-.425.115-.619.075-.194.183-.36.318-.5.135-.142.297-.25.48-.335.192-.087.401-.13.611-.126.24 0 .464.03.666.091.203.062.376.164.518.306l-.247.425a1.15 1.15 0 00-.412-.245 1.43 1.43 0 00-.45-.07c-.268 0-.526.106-.72.295a1.092 1.092 0 00-.31.781 1.089 1.089 0 00.32.785.953.953 0 00.345.214c.132.047.27.075.42.075.182 0 .344-.038.49-.11.14-.068.266-.164.371-.28l.253.386zm.274-2.589h2.742v.537h-1.102v2.487h-.534v-2.487h-1.102v-.537h-.004z" fill="#000"/><path fill-rule="evenodd" clip-rule="evenodd" d="M58.59 34.434c.203-.065.375-.163.524-.3l-.162-.42c-.098.088-.23.163-.389.224s-.338.092-.534.092c-.294 0-.537-.078-.73-.238-.192-.16-.297-.384-.32-.67h2.311c.024-.105.034-.224.034-.363a1.388 1.388 0 00-.41-1.003 1.321 1.321 0 00-.445-.281 1.463 1.463 0 00-.545-.103c-.25 0-.47.045-.662.126a1.46 1.46 0 00-.484.337 1.423 1.423 0 00-.3.5 1.77 1.77 0 00-.105.617c0 .238.04.456.115.65a1.393 1.393 0 00.831.819 1.994 1.994 0 001.27.014zm-1.352-2.328c.166-.152.386-.227.663-.227.26 0 .47.071.622.214.152.143.233.34.246.591h-1.825a.93.93 0 01.294-.578z" fill="#000"/><path d="M60.049 31.44h.487l1.156 1.499 1.095-1.499h.473v3.024h-.534V32.26l-1.041 1.404h-.02l-1.082-1.404v2.205h-.534V31.44z" fill="#000"/><path fill-rule="evenodd" clip-rule="evenodd" d="M64.713 31.45c-.163.044-.317.111-.46.2l.142.43c.121-.062.243-.113.365-.157s.277-.065.463-.065c.149 0 .267.024.358.072a.476.476 0 01.206.194.835.835 0 01.095.302c.017.118.024.247.024.387a.908.908 0 00-.365-.153 2.069 2.069 0 00-.385-.04c-.16 0-.308.023-.45.064a.985.985 0 00-.362.183.873.873 0 00-.236.303.95.95 0 00-.088.41c0 .296.084.528.253.69.17.164.392.245.67.245.25 0 .45-.044.6-.132.153-.089.275-.19.363-.306v.39h.5v-1.854c0-.395-.084-.7-.257-.915-.169-.214-.47-.322-.895-.322-.19 0-.37.027-.541.075zm.892 2.45c-.121.089-.28.13-.476.13-.173 0-.308-.045-.403-.13a.451.451 0 01-.142-.347c0-.084.017-.155.055-.22a.497.497 0 01.145-.156.634.634 0 01.206-.092.924.924 0 01.237-.03c.263 0 .49.064.676.2v.383c-.088.1-.188.189-.298.263zm5.517-3.523a.825.825 0 00.304-.262l-.291-.424a.587.587 0 01-.254.21c-.1.04-.204.07-.31.088l-.102.019-.284.05c-.163.03-.322.08-.473.15a1.5 1.5 0 00-.578.427c-.145.18-.26.384-.338.608a3.229 3.229 0 00-.159.704c-.027.245-.04.479-.04.703 0 .289.037.55.11.785.076.234.18.431.319.59.138.164.304.287.5.375.196.088.416.132.663.132.226 0 .436-.044.625-.126a1.507 1.507 0 00.805-.828 1.55 1.55 0 00.114-.599c0-.227-.033-.434-.098-.618a1.34 1.34 0 00-.277-.472 1.233 1.233 0 00-.443-.306 1.516 1.516 0 00-.956-.058 1.442 1.442 0 00-.619.367 1 1 0 00-.196.289h-.014c.01-.14.028-.282.058-.428.03-.146.074-.286.132-.418.058-.132.132-.252.223-.36.098-.11.218-.197.351-.255.148-.071.303-.123.464-.153l.106-.02c.105-.019.206-.038.302-.058a1.62 1.62 0 00.356-.112zm-1.88 2.905a1.72 1.72 0 01-.074-.53.861.861 0 01.122-.289c.057-.092.131-.173.22-.245.198-.158.443-.243.695-.24.315 0 .552.098.717.292.166.197.247.441.247.737 0 .146-.027.279-.074.4a.966.966 0 01-.916.623.942.942 0 01-.73-.347 1.284 1.284 0 01-.207-.401zm6.588-1.842h-.534v3.024h.534V31.44zm-3.326 0h.534v.908h.494c.233 0 .422.03.574.088a.98.98 0 01.365.231.81.81 0 01.193.333c.037.126.057.255.057.39 0 .136-.02.266-.064.395a.896.896 0 01-.206.343.992.992 0 01-.385.245 1.69 1.69 0 01-.595.095h-.97V31.44h.003zm.534 1.414v1.107h.389c.267 0 .456-.047.564-.142.109-.096.162-.231.162-.411 0-.184-.057-.323-.165-.419-.112-.095-.298-.142-.554-.142h-.396v.007z" fill="#000"/><path d="M79.364 34.03a1.21 1.21 0 01-.5.376c-.209.087-.431.13-.656.13a1.83 1.83 0 01-.656-.112 1.448 1.448 0 01-.507-.32 1.452 1.452 0 01-.331-.5 1.737 1.737 0 01-.118-.648c0-.22.037-.425.115-.619.074-.194.182-.36.317-.5.136-.142.298-.25.48-.335.193-.087.402-.13.612-.126.24 0 .463.03.666.091.203.062.375.164.517.306l-.246.425c-.12-.11-.26-.193-.413-.245a1.428 1.428 0 00-.45-.07 1.036 1.036 0 00-.72.296 1.094 1.094 0 00-.31.781c0 .166.03.315.087.444.058.133.136.245.234.34a.95.95 0 00.344.214c.133.047.271.075.42.075.182 0 .344-.038.49-.11.14-.068.266-.164.372-.28l.253.386zm.274-2.59h2.741v.537h-1.102v2.487h-.534v-2.487h-1.102v-.537h-.003z" fill="#000"/><path fill-rule="evenodd" clip-rule="evenodd" d="M83.493 31.44h-.534v4.37h.534v-1.485c.108.072.237.123.385.157.149.034.305.05.463.05.237 0 .45-.044.643-.125.185-.08.352-.197.493-.343.139-.147.243-.317.318-.517.074-.2.111-.414.111-.642 0-.225-.033-.432-.098-.619a1.446 1.446 0 00-.277-.482 1.204 1.204 0 00-.436-.316c-.182-.08-.38-.119-.578-.116-.21 0-.405.041-.591.123-.186.082-.332.18-.433.302v-.356zm.372.561c.152-.081.318-.122.497-.122.156 0 .294.024.42.075a.837.837 0 01.307.217.905.905 0 01.19.333 1.3 1.3 0 01.064.421c0 .164-.028.31-.075.446a.946.946 0 01-.534.574 1.064 1.064 0 01-.436.085c-.145 0-.28-.017-.41-.051a1.327 1.327 0 01-.394-.184v-1.498a1.22 1.22 0 01.371-.296zm6.138-.56h-.534v3.023h.534V31.44zm-3.33 0h.535v.907h.493c.234 0 .423.03.575.088a.98.98 0 01.365.231.806.806 0 01.192.333c.038.126.058.255.058.39 0 .136-.02.266-.064.395a.896.896 0 01-.206.343.992.992 0 01-.386.245 1.69 1.69 0 01-.594.095h-.97V31.44h.003zm.538 1.413v1.107h.39c.266 0 .456-.047.564-.142.108-.096.162-.231.162-.411 0-.184-.058-.323-.165-.419-.112-.095-.298-.142-.555-.142h-.395v.007z" fill="#000"/><path d="M92.567 32.898l1.142 1.566h-.656l-.882-1.223-.896 1.223h-.622l1.136-1.539-1.068-1.485h.656l.814 1.142.828-1.142h.622l-1.075 1.458zm-46.923 5.304h-1.64v2.521h-.533v-3.024h2.707v3.024h-.534v-2.521zm3.566.034h-1.055l-.034.51a6.235 6.235 0 01-.158 1.042 1.93 1.93 0 01-.26.612.75.75 0 01-.356.29c-.14.05-.287.076-.436.074l-.04-.524a.428.428 0 00.2-.044.56.56 0 00.219-.22c.07-.116.135-.28.193-.49a4.3 4.3 0 00.114-.843l.055-.94h2.092v3.023h-.534v-2.49z" fill="#000"/><path fill-rule="evenodd" clip-rule="evenodd" d="M51.185 37.706a1.658 1.658 0 00-.46.2l.142.429c.122-.062.244-.113.365-.157.122-.044.278-.064.463-.064.15 0 .267.023.359.07a.477.477 0 01.206.195.846.846 0 01.094.302c.017.12.024.248.024.387a.907.907 0 00-.365-.152 2.06 2.06 0 00-.385-.041 1.61 1.61 0 00-.45.064.981.981 0 00-.362.184.872.872 0 00-.236.302.952.952 0 00-.088.412c0 .295.085.526.254.69.168.162.392.244.669.244.25 0 .45-.044.602-.133.151-.088.273-.19.361-.306v.391h.5v-1.855c0-.394-.084-.7-.257-.914-.169-.214-.47-.322-.895-.322-.183 0-.365.025-.54.074zm.896 2.45c-.121.088-.28.129-.477.129-.175 0-.307-.044-.402-.13a.451.451 0 01-.142-.346c0-.085.017-.156.054-.22a.493.493 0 01.146-.157.633.633 0 01.206-.092.922.922 0 01.236-.03c.264 0 .49.064.677.2v.384c-.088.1-.188.187-.298.261z" fill="#000"/><path d="M53.4 37.7h2.742v.536H55.04v2.487h-.534v-2.487h-1.102V37.7H53.4z" fill="#000"/><path fill-rule="evenodd" clip-rule="evenodd" d="M58.636 40.692c.203-.064.375-.163.523-.299l-.162-.421c-.098.089-.23.163-.389.225a1.476 1.476 0 01-.533.091c-.294 0-.538-.078-.73-.238-.194-.16-.298-.383-.322-.67h2.312c.024-.104.034-.223.034-.363a1.39 1.39 0 00-.41-1.002 1.315 1.315 0 00-.445-.282 1.462 1.462 0 00-.544-.102c-.25 0-.47.044-.663.126a1.453 1.453 0 00-.483.336 1.431 1.431 0 00-.301.5 1.78 1.78 0 00-.105.618c0 .238.04.455.115.65a1.391 1.391 0 00.832.819 1.995 1.995 0 001.27.013zm-1.356-2.33c.166-.153.386-.228.663-.228.264 0 .47.075.622.214.152.143.233.34.247.591h-1.826a.928.928 0 01.294-.577zm2.35-.663h.675l1.031 1.458-1.102 1.566h-.655l1.155-1.566-1.105-1.458zm1.838 0h.534v3.024h-.534v-3.024zm2.444 3.024l-1.176-1.566 1.098-1.458h-.663l-1.037 1.458 1.115 1.566h.663zm2.44-.03c.203-.065.375-.164.524-.3l-.162-.421c-.098.089-.23.163-.389.225a1.48 1.48 0 01-.534.091c-.294 0-.537-.078-.73-.238-.193-.16-.297-.383-.321-.67h2.312c.024-.104.034-.223.034-.363a1.383 1.383 0 00-.41-1.002 1.316 1.316 0 00-.445-.282 1.462 1.462 0 00-.545-.102c-.25 0-.47.044-.662.126a1.42 1.42 0 00-.784.836 1.77 1.77 0 00-.105.618c0 .238.04.455.115.65a1.39 1.39 0 00.831.819 1.994 1.994 0 001.27.013zm-1.355-2.331c.166-.153.386-.228.663-.228.26 0 .47.075.621.214.153.143.234.34.247.591h-1.825a.927.927 0 01.294-.577zm4.256-1.679c-.315 0-.487-.176-.514-.53h-.504c0 .136.024.258.068.374a.804.804 0 00.193.296.985.985 0 00.317.196c.125.051.27.075.436.075a1.046 1.046 0 00.72-.271.857.857 0 00.2-.296.967.967 0 00.07-.374h-.5c-.023.354-.189.53-.486.53zM67.809 37.7v3.024h.534l1.738-2.253v2.253h.534v-3.024h-.534l-1.738 2.253v-2.253h-.534z" fill="#000"/></svg>