<?xml version="1.0" encoding="utf-8"?><svg width="24" height="24" fill="none" xmlns="http://www.w3.org/2000/svg" viewBox="0 0 24 24"><path d="M12 24C5.373 24 0 18.627 0 12S5.373 0 12 0s12 5.373 12 12-5.373 12-12 12z" fill="#416FF4"/><path d="M10.004 14.441l-.204 3.06c.3 0 .432-.138.6-.3l1.441-1.402 2.999 2.215c.552.305.95.147 1.087-.512l1.969-9.277c.201-.808-.308-1.174-.836-.934L5.5 11.748c-.788.316-.784.756-.143.953l2.966.925 6.868-4.332c.324-.197.621-.091.377.126l-5.564 5.021z" fill="#fff"/></svg>