<?xml version="1.0" encoding="utf-8"?><svg width="80" height="50" fill="none" xmlns="http://www.w3.org/2000/svg" viewBox="0 0 80 50"><g clip-path="url(#cqclip0_254_14276)"><path d="M15.638 0h19.93c2.783 0 4.513 2.268 3.864 5.06l-9.279 39.839c-.655 2.781-3.44 5.051-6.224 5.051H3.999c-2.778 0-4.512-2.27-3.863-5.051L9.42 5.059C10.07 2.27 12.852 0 15.638 0z" fill="#E21836"/><path d="M33.91 0h22.92c2.782 0 1.527 2.268.873 5.06l-9.278 39.839c-.65 2.781-.448 5.05-3.235 5.05H22.27c-2.788 0-4.513-2.269-3.858-5.05l9.277-39.84C28.35 2.268 31.127 0 33.91 0z" fill="#00447C"/><path d="M55.92 0h19.932c2.786 0 4.516 2.268 3.862 5.06l-9.278 39.839c-.655 2.781-3.442 5.05-6.228 5.05H44.287c-2.788 0-4.517-2.269-3.864-5.05l9.28-39.84C50.35 2.268 53.132 0 55.92 0z" fill="#007B84"/><path d="M20.842 12.768c-2.05.02-2.655 0-2.848-.046-.074.353-1.457 6.733-1.461 6.738-.298 1.291-.515 2.211-1.25 2.805-.419.346-.906.512-1.472.512-.909 0-1.438-.45-1.527-1.307l-.017-.294s.277-1.729.277-1.738c0 0 1.451-5.814 1.711-6.583a.56.56 0 00.021-.088c-2.825.025-3.326 0-3.36-.045-.02.063-.09.423-.09.423l-1.482 6.553-.127.556-.246 1.817c0 .54.106.98.316 1.352.676 1.18 2.602 1.357 3.691 1.357 1.405 0 2.722-.298 3.612-.843 1.544-.913 1.948-2.34 2.309-3.608l.167-.65s1.495-6.038 1.75-6.824c.01-.044.013-.067.026-.088zm5.088 4.87c-.36 0-1.02.088-1.611.378-.215.11-.418.238-.632.365l.193-.698-.106-.118c-1.255.254-1.535.288-2.695.451l-.097.065c-.134 1.116-.254 1.955-.753 4.148-.19.809-.387 1.625-.584 2.431l.053.103a28.817 28.817 0 012.58-.046l.084-.09c.131-.673.148-.83.439-2.19.136-.646.42-2.064.561-2.568.258-.12.513-.237.756-.237.578 0 .508.504.486.705-.025.338-.236 1.44-.452 2.388l-.145.61c-.1.452-.21.89-.311 1.338l.044.09a27.753 27.753 0 012.527-.046l.118-.09c.18-1.05.234-1.331.554-2.859l.162-.702c.313-1.374.47-2.07.233-2.638-.25-.636-.852-.79-1.404-.79zm5.683 1.44c-.622.119-1.019.198-1.413.25-.392.063-.773.12-1.374.203l-.048.043-.044.035c-.062.448-.106.835-.19 1.29-.07.47-.178 1.006-.354 1.774-.137.588-.207.793-.285 1-.076.207-.16.408-.313.987l.036.053.03.05c.562-.027.93-.046 1.308-.05.377-.013.769 0 1.374.004l.053-.043.057-.048c.087-.522.1-.662.154-.917.053-.273.144-.65.368-1.66.106-.474.224-.947.334-1.43.114-.483.233-.957.347-1.431l-.017-.058-.023-.053zm.013-1.94c-.565-.334-1.558-.228-2.226.233-.665.452-.741 1.093-.178 1.431.556.325 1.552.228 2.214-.237.665-.461.748-1.097.19-1.427zm3.42 7.73c1.144 0 2.317-.316 3.2-1.252.679-.759.99-1.888 1.098-2.352.351-1.541.078-2.261-.266-2.7-.521-.667-1.444-.881-2.4-.881-.575 0-1.945.056-3.015 1.043-.769.712-1.124 1.678-1.338 2.604-.216.943-.465 2.641 1.097 3.273.482.207 1.176.264 1.624.264zm-.09-3.468c.265-1.167.576-2.146 1.37-2.146.624 0 .669.728.392 1.9-.05.26-.277 1.225-.585 1.637-.214.303-.468.488-.75.488-.083 0-.58 0-.588-.738-.003-.365.071-.737.162-1.141zm7.248 3.317l.09-.09c.126-.673.147-.83.428-2.19.14-.646.43-2.064.567-2.568.259-.12.509-.238.76-.238.574 0 .504.505.481.706-.02.338-.231 1.44-.451 2.387l-.137.611c-.104.452-.218.89-.319 1.338l.044.09a27.658 27.658 0 012.524-.046l.121-.09c.177-1.05.224-1.331.555-2.859l.157-.702c.315-1.374.474-2.07.241-2.638-.258-.636-.863-.789-1.408-.789a3.93 3.93 0 00-1.611.377c-.21.11-.421.238-.628.365l.18-.698-.097-.118c-1.254.254-1.54.288-2.698.451l-.09.065c-.14 1.116-.254 1.954-.753 4.148-.19.809-.387 1.625-.584 2.431l.053.103a28.724 28.724 0 012.575-.046zm8.63.046c.074-.361.513-2.498.517-2.498 0 0 .373-1.567.396-1.624 0 0 .118-.163.235-.228h.173c1.632 0 3.475 0 4.919-1.062.983-.729 1.655-1.805 1.954-3.113a4.7 4.7 0 00.135-1.083c0-.501-.1-.996-.39-1.384-.737-1.03-2.204-1.049-3.897-1.057l-.834.008c-2.168.027-3.037.019-3.394-.025-.03.158-.087.439-.087.439s-.776 3.598-.776 3.604l-1.945 8.01c1.892-.023 2.668-.023 2.994.012zm1.439-6.392l.821-3.577.027-.184.012-.14.33.034 1.742.15c.672.26.948.93.755 1.804-.176.8-.695 1.471-1.36 1.796-.55.275-1.221.297-1.913.297h-.448l.034-.18zm5.139 3.096c-.218.93-.469 2.628 1.085 3.233.496.21.94.273 1.39.25.477-.025.92-.264 1.328-.608l-.11.425.07.09a41.343 41.343 0 012.675-.037l.11-.084c.177-1.04.344-2.05.803-4.038.224-.953.448-1.896.678-2.845l-.036-.104a50.44 50.44 0 01-2.788.452l-.091.074-.037.282a1.72 1.72 0 00-.876-.72c-.535-.211-1.791.06-2.871 1.043-.759.702-1.123 1.664-1.33 2.587zm2.626.056c.268-1.146.575-2.115 1.372-2.115.504 0 .769.465.715 1.257-.043.198-.089.407-.144.642-.08.34-.166.678-.25 1.016-.086.232-.185.45-.294.595-.205.29-.693.47-.974.47-.08 0-.571 0-.588-.724-.004-.361.07-.733.163-1.14zm13.714-3.784l-.096-.11c-1.238.25-1.462.29-2.598.444l-.084.084c-.004.013-.007.034-.013.053l-.004-.019c-.846 1.953-.822 1.531-1.51 3.069-.004-.07-.004-.114-.008-.189l-.172-3.332-.109-.11c-1.296.25-1.327.29-2.524.444l-.093.084c-.013.04-.013.083-.02.13l.007.018c.15.765.114.594.264 1.8.07.593.163 1.189.233 1.773.118.98.184 1.461.328 2.955-.808 1.334-1 1.839-1.778 3.01l.006.011-.548.867c-.063.091-.12.154-.2.18-.087.044-.2.052-.358.052h-.304l-.451 1.5 1.548.027c.909-.003 1.48-.429 1.788-1l.973-1.668h-.015l.102-.118c.655-1.41 5.636-9.955 5.636-9.955zm-16.34 19.715h-.657l2.43-8.04h.807l.256-.829.025.922c-.03.569.418 1.074 1.594.99h1.361l.468-1.548h-.511c-.295 0-.431-.074-.414-.234l-.025-.937h-2.52v.005c-.815.017-3.248.078-3.74.21-.596.153-1.224.605-1.224.605l.246-.83h-2.357l-.49 1.646-2.464 8.163h-.478l-.47 1.537h4.696l-.158.513h2.314l.153-.513h.65l.508-1.66zm-1.926-6.406c-.378.104-1.08.42-1.08.42l.624-2.054h1.873l-.452 1.497s-.578.034-.965.137zm.036 2.935s-.589.074-.976.162c-.381.115-1.096.48-1.096.48l.645-2.139h1.882l-.455 1.497zm-1.05 3.49h-1.878l.544-1.804h1.873l-.539 1.804zm4.524-4.987h2.708l-.39 1.26h-2.743l-.412 1.378h2.401l-1.818 2.56a.749.749 0 01-.368.307c-.127.065-.294.14-.488.14h-.666l-.457 1.51h1.742c.905 0 1.44-.413 1.835-.953l1.246-1.706.268 1.732c.057.324.29.514.448.588.175.088.355.238.61.26.272.012.47.021.6.021h.857l.514-1.689h-.338c-.194 0-.528-.032-.584-.093-.057-.074-.057-.187-.088-.36l-.271-1.737H62.49l.487-.58h2.739l.421-1.378h-2.535l.395-1.26h2.527l.469-1.554h-7.536l-.46 1.554zm-22.87 5.338l.632-2.102h2.597l.475-1.564h-2.6l.397-1.294h2.54l.471-1.515h-6.357l-.46 1.515h1.443l-.385 1.294h-1.448l-.48 1.59h1.444l-.843 2.782c-.113.368.054.509.16.68a.696.696 0 00.465.34c.254.056.429.09.666.09h2.928l.522-1.732-1.298.178c-.25 0-.945-.03-.87-.262zm.298-10.065l-.659 1.19c-.14.26-.267.42-.381.495-.101.063-.3.09-.589.09h-.343l-.46 1.521h1.141c.549 0 .97-.201 1.171-.302.216-.115.273-.05.44-.21l.386-.334h3.561l.473-1.585h-2.607l.455-.865h-2.588zm5.258 10.096c-.06-.088-.017-.242.076-.562l.973-3.223h3.464c.505-.007.869-.013 1.106-.03.255-.026.531-.117.833-.28.311-.172.47-.352.605-.559.15-.206.391-.658.598-1.355l1.224-4.078-3.594.021s-1.106.164-1.594.344c-.491.201-1.194.763-1.194.763l.325-1.118h-2.22l-3.109 10.308c-.11.4-.184.69-.2.865-.007.188.236.374.394.515.186.14.46.117.725.14.277.02.672.034 1.216.034h1.706l.524-1.768-1.527.144a.402.402 0 01-.33-.161zm1.678-5.961h3.637l-.231.725c-.032.017-.11-.036-.48.008h-3.15l.224-.733zm.728-2.431h3.669l-.264.873s-1.73-.017-2.006.034c-1.218.21-1.93.862-1.93.862l.531-1.769zm2.76 5.583a.388.388 0 01-.145.224c-.074.047-.193.064-.372.064h-.518l.03-.882h-2.155l-.088 4.315c-.003.311.027.492.255.636.228.18.93.203 1.875.203h1.35l.488-1.615-1.176.064-.39.023c-.054-.023-.105-.044-.162-.1-.05-.05-.133-.02-.12-.33l.01-1.107 1.233-.05c.666 0 .95-.218 1.194-.424.231-.198.307-.425.395-.733l.207-.979h-1.695l-.217.69z" fill="#FEFEFE"/></g><defs><clipPath id="cqclip0_254_14276"><path fill="#fff" d="M0 0h80v50H0z"/></clipPath></defs></svg>