<?xml version="1.0" encoding="utf-8"?><svg width="98" height="33" fill="none" xmlns="http://www.w3.org/2000/svg" viewBox="0 0 98 33"><path fill-rule="evenodd" clip-rule="evenodd" d="M29.658 31.502L38.836 1.24h8.187L37.845 31.5h-8.187zM25.994 1.247l-7.366 12.825c-1.877 3.359-2.97 5.059-3.5 7.178h-.113c.13-2.692-.248-5.997-.277-7.862l-.815-12.141H.142L0 2.06c3.541 0 5.643 1.777 6.221 5.419l2.685 24.022h8.482L34.54 1.247h-8.546zM89.671 31.502l-.224-4.498H79.224l-2.09 4.498h-8.888L84.36 1.294h10.913L98 31.496h-8.328v.006zm-.938-17.849c-.089-2.237-.166-5.27-.018-7.106h-.118c-.496 1.505-2.638 6.014-3.583 8.234l-3.045 6.634h7.177l-.42-7.756.007-.006zM55.617 32.358c-5.784 0-9.62-1.836-12.36-3.471l3.902-5.955c2.461 1.375 4.392 2.963 8.83 2.963 1.428 0 2.803-.372 3.589-1.724 1.139-1.965-.266-3.028-3.46-4.84l-1.581-1.027c-4.74-3.24-6.794-6.315-4.562-11.692C51.403 3.177 55.169.568 61.384.568c4.285 0 8.304 1.853 10.647 3.665l-4.486 5.26c-2.284-1.848-4.178-2.78-6.344-2.78-1.73 0-3.04.666-3.495 1.563-.855 1.688.278 2.84 2.769 4.392l1.877 1.192c5.754 3.63 7.13 7.437 5.683 10.996-2.484 6.126-7.342 7.496-12.424 7.496l.006.006z" fill="#1434CB"/></svg>