<?xml version="1.0" encoding="utf-8"?><svg width="98" height="57" fill="none" xmlns="http://www.w3.org/2000/svg" viewBox="0 0 98 57"><g clip-path="url(#csclip0_254_14159)"><path d="M18.03.032C37.7-.026 57.369.02 77.038 0c4.22.026 8.553.021 12.605 1.346 2.605.825 4.93 2.586 6.202 5.014 1.865 3.48 2.108 7.527 2.15 11.39-.015 7.701.043 15.402-.026 23.102-.121 4.61-.893 9.861-4.755 12.92-3.83 2.913-8.907 3.044-13.524 3.202-18.49.042-36.987.005-55.482.016-4.766-.043-9.61.204-14.296-.878-3.033-.673-6.028-2.318-7.592-5.089C.333 47.666-.001 43.666.01 39.843c.016-8.09-.053-16.184.037-24.274.085-4.573 1.115-9.776 5.072-12.63C8.875.367 13.635.21 18.031.031z" fill="#FF4833"/><path d="M61.87 22.776c.686 2.292 1.194 4.625 1.817 6.928-1.168-.01-2.34-.021-3.508-.037.57-2.297 1.2-4.578 1.69-6.891zm-12.062-.8c1.3.074 3.08-.236 3.815 1.147.602 1.214.533 2.964-.57 3.884-.915.726-2.156.526-3.24.605v-5.635h-.005zm-24.66-1.329c2.208-1.172 4.802-.615 7.19-.73.026 5.072.036 10.139 0 15.211-.814-.01-1.633-.016-2.452-.016-.026-4.394 0-8.783-.01-13.172-1.802-.2-4.586.242-4.507 2.58-.364 2.372 1.928 3.717 3.593 4.874-1.178 1.929-2.415 3.821-3.64 5.718h-2.853c1.051-1.75 2.234-3.41 3.354-5.114-1.082-.936-2.35-1.855-2.747-3.3-.824-2.146-.053-4.958 2.077-6.046l-.006-.005zm41.751-.7c1.368 2.95 3.08 5.746 4.31 8.758.149 2.129 0 4.268.085 6.407.883 0 1.765 0 2.647.006.064-2.16-.068-4.326.058-6.487 1.226-2.975 2.922-5.745 4.232-8.688-.787-.021-1.569-.048-2.346-.069-1.125 2.056-2.065 4.205-3.132 6.292-1.025-2.092-2.008-4.21-3.086-6.276-.924.021-1.849.042-2.768.058zm-6.44-.01c-1.257 5.078-2.668 10.119-3.936 15.196.787-.031 1.57-.068 2.351-.136.222-1.036.465-2.066.75-3.086a60.166 60.166 0 014.57-.052c.275 1.088.565 2.17.85 3.253.91 0 1.813 0 2.721.011-1.32-5.078-2.583-10.166-3.988-15.217-1.104 0-2.214.016-3.318.031zm-13.297-.015c.068 5.077-.117 10.16.09 15.233.845-.022 1.695-.032 2.54-.043.038-1.813-.036-3.626.096-5.43 2.224.122 4.987-.178 6.186-2.338.999-2.06.84-5.036-1.189-6.44-2.266-1.555-5.156-.846-7.723-.982zm-22.305-4.705c-5.537 1.34-9.695 6.818-9.335 12.5-.201 6.244 5.119 11.995 11.38 12.373 4.358.452 8.811-1.63 11.31-5.204 2.636-3.663 2.98-8.751 1.136-12.825-2.34-5.383-8.823-8.4-14.491-6.844z" fill="#fff"/></g><defs><clipPath id="csclip0_254_14159"><path fill="#fff" d="M0 0h98v57H0z"/></clipPath></defs></svg>