<svg width="14" height="14" viewBox="0 0 14 14" fill="none" xmlns="http://www.w3.org/2000/svg">
    <path fill-rule="evenodd" clip-rule="evenodd" d="M4.37318 2.15081C4.59456 2.054 4.69555 1.79605 4.59874 1.57467C4.50193 1.35329 4.24398 1.2523 4.0226 1.34911C2.70616 1.92478 1.58915 2.87009 0.80223 4.05363C0.668449 4.25484 0.72311 4.5264 0.924318 4.66018C1.12553 4.79397 1.39709 4.73931 1.53087 4.5381C2.22577 3.49297 3.21214 2.65852 4.37318 2.15081ZM9.97717 1.34911C9.75578 1.2523 9.49784 1.35329 9.40103 1.57467C9.30422 1.79605 9.40521 2.054 9.62659 2.15081C10.7876 2.65852 11.774 3.49297 12.4689 4.5381C12.6027 4.73931 12.8742 4.79397 13.0755 4.66018C13.2767 4.5264 13.3313 4.25484 13.1975 4.05363C12.4106 2.87009 11.2936 1.92478 9.97717 1.34911ZM11.0783 10.8895C11.8109 9.98695 12.2499 8.83641 12.2499 7.58332C12.2499 4.68383 9.8994 2.33332 6.99991 2.33332C4.10041 2.33332 1.74991 4.68383 1.74991 7.58332C1.74991 8.83639 2.18891 9.98692 2.9215 10.8895L1.95164 12.6193C1.83347 12.8301 1.90853 13.0967 2.11929 13.2149C2.33005 13.333 2.59669 13.258 2.71486 13.0472L3.55638 11.5463C4.47818 12.348 5.68236 12.8333 6.99991 12.8333C8.31744 12.8333 9.52162 12.348 10.4434 11.5464L11.285 13.0472C11.4032 13.258 11.6698 13.333 11.8806 13.2149C12.0913 13.0967 12.1664 12.83 12.0482 12.6193L11.0783 10.8895ZM6.99991 4.22916C7.24153 4.22916 7.43741 4.42503 7.43741 4.66666V7.34918L8.99259 8.38597C9.19363 8.52 9.24796 8.79163 9.11393 8.99267C8.9799 9.19372 8.70827 9.24804 8.50723 9.11401L6.75723 7.94735C6.63552 7.8662 6.56241 7.7296 6.56241 7.58332V4.66666C6.56241 4.42503 6.75828 4.22916 6.99991 4.22916Z" fill="#808191"/>
</svg>
