<svg width="34" height="34" viewBox="0 0 34 34" fill="none" xmlns="http://www.w3.org/2000/svg">
<path d="M28.2933 8.24066L27.3711 8.62746L28.2933 8.24066ZM27.4799 8.88685C27.6936 9.39614 28.2796 9.63583 28.7889 9.4222C29.2982 9.20857 29.5379 8.62253 29.3242 8.11323L27.4799 8.88685ZM23.7462 2.61323C23.2334 2.40812 22.6515 2.65753 22.4464 3.17032C22.2412 3.6831 22.4907 4.26507 23.0034 4.47018L23.7462 2.61323ZM23.6117 3.63647L23.2403 4.56494L23.2403 4.56494L23.6117 3.63647ZM5.7753 8.24066L6.69746 8.62746V8.62746L5.7753 8.24066ZM4.74434 8.11323C4.53072 8.62253 4.7704 9.20857 5.2797 9.4222C5.78899 9.63583 6.37504 9.39614 6.58866 8.88685L4.74434 8.11323ZM11.0651 4.47018C11.5779 4.26507 11.8273 3.6831 11.6222 3.17032C11.4171 2.65753 10.8351 2.40812 10.3224 2.61323L11.0651 4.47018ZM10.4568 3.63647L10.0855 2.70799L10.0855 2.70799L10.4568 3.63647ZM25.8392 12.7149L24.8456 12.8277L25.8392 12.7149ZM26.4727 18.2967L27.4663 18.1839L26.4727 18.2967ZM7.52698 18.2967L6.53336 18.1839L7.52698 18.2967ZM8.1605 12.7149L9.15412 12.8277L8.1605 12.7149ZM6.30087 21.0689L5.53939 20.4207H5.53939L6.30087 21.0689ZM27.6988 21.0689L26.9373 21.7171L27.6988 21.0689ZM20.2156 6.19606H19.2156C19.2156 6.6235 19.4873 7.00368 19.8917 7.14214L20.2156 6.19606ZM13.7841 6.19606L14.108 7.14214C14.5124 7.00368 14.7841 6.6235 14.7841 6.19606H13.7841ZM22.1862 28.6843C22.3801 28.1672 22.1179 27.5908 21.6008 27.397C21.0836 27.2032 20.5073 27.4653 20.3134 27.9824L22.1862 28.6843ZM13.6862 27.9824C13.4924 27.4653 12.9161 27.2032 12.3989 27.397C11.8817 27.5908 11.6196 28.1672 11.8134 28.6843L13.6862 27.9824ZM27.3711 8.62746L27.4799 8.88685L29.3242 8.11323L29.2154 7.85385L27.3711 8.62746ZM23.0034 4.47018L23.2403 4.56494L23.9831 2.70799L23.7462 2.61323L23.0034 4.47018ZM29.2154 7.85385C28.231 5.50696 26.3461 3.65318 23.9831 2.70799L23.2403 4.56494C25.1059 5.31115 26.5939 6.77465 27.3711 8.62746L29.2154 7.85385ZM4.85314 7.85385L4.74434 8.11323L6.58866 8.88685L6.69746 8.62746L4.85314 7.85385ZM10.3224 2.61323L10.0855 2.70799L10.8282 4.56494L11.0651 4.47018L10.3224 2.61323ZM6.69746 8.62746C7.47464 6.77465 8.96274 5.31115 10.8282 4.56494L10.0855 2.70799C7.72249 3.65318 5.83757 5.50696 4.85314 7.85385L6.69746 8.62746ZM25.1842 24.5H8.81549V26.5H25.1842V24.5ZM24.8456 12.8277L25.4791 18.4094L27.4663 18.1839L26.8328 12.6021L24.8456 12.8277ZM8.5206 18.4094L9.15412 12.8277L7.16687 12.6021L6.53336 18.1839L8.5206 18.4094ZM7.06234 21.7171C7.87257 20.7652 8.38294 19.6223 8.5206 18.4094L6.53336 18.1839C6.44282 18.9816 6.10519 19.756 5.53939 20.4207L7.06234 21.7171ZM25.4791 18.4094C25.6167 19.6223 26.1271 20.7652 26.9373 21.7171L28.4603 20.4207C27.8945 19.756 27.5569 18.9816 27.4663 18.1839L25.4791 18.4094ZM8.81549 24.5C7.86592 24.5 7.18829 24.0298 6.87377 23.4756C6.56912 22.9387 6.57429 22.2904 7.06234 21.7171L5.53939 20.4207C4.47332 21.6731 4.4407 23.2404 5.13434 24.4627C5.81811 25.6676 7.17485 26.5 8.81549 26.5V24.5ZM25.1842 26.5C26.8248 26.5 28.1816 25.6676 28.8653 24.4627C29.559 23.2404 29.5264 21.6731 28.4603 20.4207L26.9373 21.7171C27.4254 22.2904 27.4306 22.9387 27.1259 23.4756C26.8114 24.0298 26.1338 24.5 25.1842 24.5V26.5ZM21.2156 6.19606V6.04913H19.2156V6.19606H21.2156ZM26.8328 12.6021C26.4404 9.1446 23.8749 6.39199 20.5395 5.24998L19.8917 7.14214C22.6264 8.07847 24.5548 10.2656 24.8456 12.8277L26.8328 12.6021ZM14.7841 6.19606V6.04913H12.7841V6.19606H14.7841ZM9.15412 12.8277C9.4449 10.2656 11.3733 8.07847 14.108 7.14214L13.4602 5.24998C10.1247 6.39199 7.55929 9.14461 7.16687 12.6021L9.15412 12.8277ZM16.9998 3.83337C18.2236 3.83337 19.2156 4.8254 19.2156 6.04913H21.2156C21.2156 3.72083 19.3281 1.83337 16.9998 1.83337V3.83337ZM16.9998 1.83337C14.6715 1.83337 12.7841 3.72083 12.7841 6.04913H14.7841C14.7841 4.8254 15.7761 3.83337 16.9998 3.83337V1.83337ZM20.3134 27.9824C19.8468 29.2277 18.5614 30.1667 16.9998 30.1667V32.1667C19.3626 32.1667 21.4156 30.7405 22.1862 28.6843L20.3134 27.9824ZM16.9998 30.1667C15.4383 30.1667 14.1529 29.2277 13.6862 27.9824L11.8134 28.6843C12.584 30.7405 14.6371 32.1667 16.9998 32.1667V30.1667Z" fill="white"/>
</svg>
