<svg width="34" height="34" viewBox="0 0 34 34" fill="none" xmlns="http://www.w3.org/2000/svg">
<path d="M11.3332 8.50004H22.6665M28.3332 25.5V8.50004C28.3332 5.37043 25.7961 2.83337 22.6665 2.83337L11.3332 2.83337C8.20356 2.83337 5.6665 5.37043 5.6665 8.50004L5.6665 25.5C5.6665 28.6297 8.20356 31.1667 11.3332 31.1667H22.6665C25.7961 31.1667 28.3332 28.6297 28.3332 25.5Z" stroke="white" stroke-width="2" stroke-linecap="round"/>
<path d="M12.396 14.1666C12.396 14.7534 11.9203 15.2291 11.3335 15.2291C10.7467 15.2291 10.271 14.7534 10.271 14.1666C10.271 13.5798 10.7467 13.1041 11.3335 13.1041C11.9203 13.1041 12.396 13.5798 12.396 14.1666Z" fill="white"/>
<path d="M18.0627 14.1666C18.0627 14.7534 17.587 15.2291 17.0002 15.2291C16.4134 15.2291 15.9377 14.7534 15.9377 14.1666C15.9377 13.5798 16.4134 13.1041 17.0002 13.1041C17.587 13.1041 18.0627 13.5798 18.0627 14.1666Z" fill="white"/>
<path d="M23.7293 14.1666C23.7293 14.7534 23.2536 15.2291 22.6668 15.2291C22.08 15.2291 21.6043 14.7534 21.6043 14.1666C21.6043 13.5798 22.08 13.1041 22.6668 13.1041C23.2536 13.1041 23.7293 13.5798 23.7293 14.1666Z" fill="white"/>
<path d="M12.396 19.8334C12.396 20.4202 11.9203 20.8959 11.3335 20.8959C10.7467 20.8959 10.271 20.4202 10.271 19.8334C10.271 19.2466 10.7467 18.7709 11.3335 18.7709C11.9203 18.7709 12.396 19.2466 12.396 19.8334Z" fill="white"/>
<path d="M18.0627 19.8334C18.0627 20.4202 17.587 20.8959 17.0002 20.8959C16.4134 20.8959 15.9377 20.4202 15.9377 19.8334C15.9377 19.2466 16.4134 18.7709 17.0002 18.7709C17.587 18.7709 18.0627 19.2466 18.0627 19.8334Z" fill="white"/>
<path d="M23.7293 19.8334C23.7293 20.4202 23.2536 20.8959 22.6668 20.8959C22.08 20.8959 21.6043 20.4202 21.6043 19.8334C21.6043 19.2466 22.08 18.7709 22.6668 18.7709C23.2536 18.7709 23.7293 19.2466 23.7293 19.8334Z" fill="white"/>
<path d="M12.396 25.5C12.396 26.0868 11.9203 26.5625 11.3335 26.5625C10.7467 26.5625 10.271 26.0868 10.271 25.5C10.271 24.9132 10.7467 24.4375 11.3335 24.4375C11.9203 24.4375 12.396 24.9132 12.396 25.5Z" fill="white"/>
<path d="M18.0627 25.5C18.0627 26.0868 17.587 26.5625 17.0002 26.5625C16.4134 26.5625 15.9377 26.0868 15.9377 25.5C15.9377 24.9132 16.4134 24.4375 17.0002 24.4375C17.587 24.4375 18.0627 24.9132 18.0627 25.5Z" fill="white"/>
<path d="M23.7293 25.5C23.7293 26.0868 23.2536 26.5625 22.6668 26.5625C22.08 26.5625 21.6043 26.0868 21.6043 25.5C21.6043 24.9132 22.08 24.4375 22.6668 24.4375C23.2536 24.4375 23.7293 24.9132 23.7293 25.5Z" fill="white"/>
</svg>
