<svg width="109" height="66" viewBox="0 0 109 66" fill="none" xmlns="http://www.w3.org/2000/svg">
<path d="M0.49 56.96C0.49 56.3533 0.597333 55.7607 0.812 55.182C1.02667 54.594 1.33933 54.062 1.75 53.586C2.17 53.1007 2.67867 52.718 3.276 52.438C3.87333 52.1487 4.55 52.004 5.306 52.004C6.202 52.004 6.97667 52.2093 7.63 52.62C8.28333 53.0213 8.76867 53.5393 9.086 54.174L7.854 55C7.66733 54.5987 7.42933 54.2813 7.14 54.048C6.86 53.8147 6.552 53.6513 6.216 53.558C5.88933 53.4647 5.56733 53.418 5.25 53.418C4.72733 53.418 4.27 53.5253 3.878 53.74C3.486 53.9453 3.15467 54.2207 2.884 54.566C2.62267 54.9113 2.422 55.2987 2.282 55.728C2.15133 56.1573 2.086 56.5867 2.086 57.016C2.086 57.492 2.16533 57.954 2.324 58.402C2.48267 58.8407 2.702 59.2327 2.982 59.578C3.27133 59.914 3.612 60.18 4.004 60.376C4.396 60.572 4.82533 60.67 5.292 60.67C5.60933 60.67 5.94067 60.614 6.286 60.502C6.63133 60.39 6.94867 60.2173 7.238 59.984C7.53667 59.7413 7.77 59.424 7.938 59.032L9.24 59.774C9.03467 60.2687 8.71267 60.6887 8.274 61.034C7.84467 61.3793 7.35933 61.6407 6.818 61.818C6.286 61.9953 5.75867 62.084 5.236 62.084C4.536 62.084 3.89667 61.9393 3.318 61.65C2.73933 61.3513 2.24 60.9593 1.82 60.474C1.4 59.9793 1.07333 59.4287 0.84 58.822C0.606667 58.206 0.49 57.5853 0.49 56.96ZM14.6103 56.008C14.013 56.0173 13.481 56.1527 13.0143 56.414C12.557 56.6753 12.2303 57.044 12.0343 57.52V62H10.4943V54.678H11.9223V56.316C12.1743 55.812 12.5056 55.4107 12.9163 55.112C13.327 54.804 13.761 54.636 14.2183 54.608C14.3116 54.608 14.3863 54.608 14.4423 54.608C14.5076 54.608 14.5636 54.6127 14.6103 54.622V56.008ZM15.9826 63.722C16.1226 63.7407 16.258 63.7593 16.3886 63.778C16.5286 63.806 16.6406 63.82 16.7246 63.82C16.8833 63.82 17.0186 63.7687 17.1306 63.666C17.252 63.5727 17.3733 63.3953 17.4946 63.134C17.616 62.8727 17.7653 62.4947 17.9426 62L14.9326 54.678H16.5426L18.7826 60.432L20.7706 54.678H22.2546L18.9366 63.694C18.834 63.9647 18.6846 64.212 18.4886 64.436C18.2926 64.6693 18.05 64.8513 17.7606 64.982C17.4713 65.1127 17.1306 65.178 16.7386 65.178C16.6266 65.178 16.51 65.1687 16.3886 65.15C16.2673 65.1313 16.132 65.1033 15.9826 65.066V63.722ZM27.5449 62.14C26.9569 62.14 26.4389 62 25.9909 61.72C25.5429 61.44 25.1882 61.076 24.9269 60.628V64.982H23.3869V54.678H24.7449V55.994C25.0249 55.5553 25.3889 55.2053 25.8369 54.944C26.2849 54.6827 26.7842 54.552 27.3349 54.552C27.8389 54.552 28.3009 54.6547 28.7209 54.86C29.1409 55.056 29.5049 55.3313 29.8129 55.686C30.1209 56.0407 30.3589 56.4467 30.5269 56.904C30.7042 57.352 30.7929 57.828 30.7929 58.332C30.7929 59.032 30.6529 59.6713 30.3729 60.25C30.1022 60.8287 29.7196 61.2907 29.2249 61.636C28.7396 61.972 28.1796 62.14 27.5449 62.14ZM27.0409 60.824C27.3676 60.824 27.6616 60.754 27.9229 60.614C28.1936 60.474 28.4222 60.2873 28.6089 60.054C28.8049 59.8207 28.9542 59.5547 29.0569 59.256C29.1596 58.9573 29.2109 58.6493 29.2109 58.332C29.2109 57.996 29.1549 57.6787 29.0429 57.38C28.9309 57.0813 28.7676 56.82 28.5529 56.596C28.3476 56.372 28.1049 56.1947 27.8249 56.064C27.5542 55.9333 27.2556 55.868 26.9289 55.868C26.7329 55.868 26.5276 55.9053 26.3129 55.98C26.0982 56.0547 25.8976 56.1573 25.7109 56.288C25.5242 56.4187 25.3609 56.5727 25.2209 56.75C25.0809 56.9273 24.9829 57.114 24.9269 57.31V59.228C25.0576 59.5267 25.2302 59.7973 25.4449 60.04C25.6596 60.2733 25.9069 60.4647 26.1869 60.614C26.4669 60.754 26.7516 60.824 27.0409 60.824ZM36.1425 61.622C36.0119 61.6873 35.8485 61.7573 35.6525 61.832C35.4565 61.9067 35.2325 61.972 34.9805 62.028C34.7379 62.084 34.4859 62.112 34.2245 62.112C33.9072 62.112 33.6132 62.056 33.3425 61.944C33.0719 61.832 32.8525 61.6547 32.6845 61.412C32.5259 61.16 32.4465 60.838 32.4465 60.446V55.868H31.4805V54.678H32.4465V52.27H33.9865V54.678H35.5825V55.868H33.9865V59.956C34.0052 60.208 34.0845 60.3947 34.2245 60.516C34.3739 60.6373 34.5559 60.698 34.7705 60.698C34.9852 60.698 35.1905 60.6607 35.3865 60.586C35.5825 60.5113 35.7272 60.4507 35.8205 60.404L36.1425 61.622ZM40.4035 62.14C39.8248 62.14 39.3068 62.042 38.8495 61.846C38.3921 61.6407 37.9955 61.3607 37.6595 61.006C37.3328 60.6513 37.0808 60.25 36.9035 59.802C36.7261 59.3447 36.6375 58.8593 36.6375 58.346C36.6375 57.8327 36.7261 57.3473 36.9035 56.89C37.0808 56.4327 37.3328 56.0313 37.6595 55.686C37.9955 55.3313 38.3921 55.056 38.8495 54.86C39.3161 54.6547 39.8341 54.552 40.4035 54.552C40.9728 54.552 41.4861 54.6547 41.9435 54.86C42.4101 55.056 42.8068 55.3313 43.1335 55.686C43.4695 56.0313 43.7261 56.4327 43.9035 56.89C44.0808 57.3473 44.1695 57.8327 44.1695 58.346C44.1695 58.8593 44.0808 59.3447 43.9035 59.802C43.7261 60.25 43.4695 60.6513 43.1335 61.006C42.8068 61.3607 42.4101 61.6407 41.9435 61.846C41.4861 62.042 40.9728 62.14 40.4035 62.14ZM38.2195 58.36C38.2195 58.8267 38.3175 59.2467 38.5135 59.62C38.7095 59.9933 38.9708 60.2873 39.2975 60.502C39.6241 60.7167 39.9928 60.824 40.4035 60.824C40.8048 60.824 41.1688 60.7167 41.4955 60.502C41.8315 60.278 42.0975 59.9793 42.2935 59.606C42.4895 59.2233 42.5875 58.8033 42.5875 58.346C42.5875 57.8793 42.4895 57.4593 42.2935 57.086C42.0975 56.7127 41.8315 56.4187 41.4955 56.204C41.1688 55.98 40.8048 55.868 40.4035 55.868C39.9928 55.868 39.6241 55.98 39.2975 56.204C38.9708 56.428 38.7095 56.7267 38.5135 57.1C38.3175 57.464 38.2195 57.884 38.2195 58.36ZM48.5603 56.96C48.5603 56.3533 48.6676 55.7607 48.8823 55.182C49.097 54.594 49.4096 54.062 49.8203 53.586C50.2403 53.1007 50.749 52.718 51.3463 52.438C51.9436 52.1487 52.6203 52.004 53.3763 52.004C54.2723 52.004 55.047 52.2093 55.7003 52.62C56.3536 53.0213 56.839 53.5393 57.1563 54.174L55.9243 55C55.7376 54.5987 55.4996 54.2813 55.2103 54.048C54.9303 53.8147 54.6223 53.6513 54.2863 53.558C53.9596 53.4647 53.6376 53.418 53.3203 53.418C52.7976 53.418 52.3403 53.5253 51.9483 53.74C51.5563 53.9453 51.225 54.2207 50.9543 54.566C50.693 54.9113 50.4923 55.2987 50.3523 55.728C50.2216 56.1573 50.1563 56.5867 50.1563 57.016C50.1563 57.492 50.2356 57.954 50.3943 58.402C50.553 58.8407 50.7723 59.2327 51.0523 59.578C51.3416 59.914 51.6823 60.18 52.0743 60.376C52.4663 60.572 52.8956 60.67 53.3623 60.67C53.6796 60.67 54.011 60.614 54.3563 60.502C54.7016 60.39 55.019 60.2173 55.3083 59.984C55.607 59.7413 55.8403 59.424 56.0083 59.032L57.3103 59.774C57.105 60.2687 56.783 60.6887 56.3443 61.034C55.915 61.3793 55.4296 61.6407 54.8883 61.818C54.3563 61.9953 53.829 62.084 53.3063 62.084C52.6063 62.084 51.967 61.9393 51.3883 61.65C50.8096 61.3513 50.3103 60.9593 49.8903 60.474C49.4703 59.9793 49.1436 59.4287 48.9103 58.822C48.677 58.206 48.5603 57.5853 48.5603 56.96ZM58.4946 59.158V54.678H60.0346V58.85C60.0346 59.5033 60.1513 59.998 60.3846 60.334C60.6273 60.6607 60.9773 60.824 61.4346 60.824C61.724 60.824 62.004 60.7633 62.2746 60.642C62.5546 60.5207 62.8066 60.3433 63.0306 60.11C63.264 59.8673 63.4506 59.578 63.5906 59.242V54.678H65.1306V60.264C65.1306 60.4413 65.1633 60.5673 65.2286 60.642C65.294 60.7167 65.4013 60.7587 65.5506 60.768V62C65.392 62.028 65.2613 62.0467 65.1586 62.056C65.056 62.0653 64.958 62.07 64.8646 62.07C64.5846 62.07 64.3513 61.9953 64.1646 61.846C63.978 61.6873 63.8706 61.4867 63.8426 61.244L63.8146 60.516C63.488 61.048 63.0633 61.454 62.5406 61.734C62.018 62.0047 61.444 62.14 60.8186 62.14C60.0533 62.14 59.4746 61.888 59.0826 61.384C58.6906 60.88 58.4946 60.138 58.4946 59.158ZM71.2119 56.008C70.6145 56.0173 70.0825 56.1527 69.6159 56.414C69.1585 56.6753 68.8319 57.044 68.6359 57.52V62H67.0959V54.678H68.5239V56.316C68.7759 55.812 69.1072 55.4107 69.5179 55.112C69.9285 54.804 70.3625 54.636 70.8199 54.608C70.9132 54.608 70.9879 54.608 71.0439 54.608C71.1092 54.608 71.1652 54.6127 71.2119 54.622V56.008ZM76.4482 56.008C75.8509 56.0173 75.3189 56.1527 74.8522 56.414C74.3949 56.6753 74.0682 57.044 73.8722 57.52V62H72.3322V54.678H73.7602V56.316C74.0122 55.812 74.3435 55.4107 74.7542 55.112C75.1649 54.804 75.5989 54.636 76.0562 54.608C76.1495 54.608 76.2242 54.608 76.2802 54.608C76.3455 54.608 76.4015 54.6127 76.4482 54.622V56.008ZM80.7635 62.14C80.1942 62.14 79.6762 62.042 79.2095 61.846C78.7522 61.6407 78.3555 61.3653 78.0195 61.02C77.6835 60.6653 77.4222 60.264 77.2355 59.816C77.0582 59.3587 76.9695 58.8733 76.9695 58.36C76.9695 57.6693 77.1282 57.0393 77.4455 56.47C77.7628 55.8913 78.2062 55.4293 78.7755 55.084C79.3448 54.7293 80.0122 54.552 80.7775 54.552C81.5428 54.552 82.2008 54.7293 82.7515 55.084C83.3115 55.4293 83.7455 55.8867 84.0535 56.456C84.3615 57.0253 84.5155 57.6367 84.5155 58.29C84.5155 58.402 84.5108 58.5093 84.5015 58.612C84.4922 58.7053 84.4828 58.7847 84.4735 58.85H78.6075C78.6355 59.2793 78.7522 59.6573 78.9575 59.984C79.1722 60.3013 79.4428 60.5533 79.7695 60.74C80.0962 60.9173 80.4462 61.006 80.8195 61.006C81.2302 61.006 81.6175 60.9033 81.9815 60.698C82.3548 60.4927 82.6068 60.222 82.7375 59.886L84.0535 60.264C83.8948 60.6187 83.6522 60.9407 83.3255 61.23C83.0082 61.51 82.6302 61.734 82.1915 61.902C81.7528 62.0607 81.2768 62.14 80.7635 62.14ZM78.5655 57.828H82.9895C82.9615 57.408 82.8402 57.0393 82.6255 56.722C82.4202 56.3953 82.1542 56.1433 81.8275 55.966C81.5102 55.7793 81.1555 55.686 80.7635 55.686C80.3808 55.686 80.0262 55.7793 79.6995 55.966C79.3822 56.1433 79.1208 56.3953 78.9155 56.722C78.7102 57.0393 78.5935 57.408 78.5655 57.828ZM92.3377 62H90.7977V57.898C90.7977 57.2167 90.6857 56.7173 90.4617 56.4C90.247 56.0827 89.925 55.924 89.4957 55.924C89.197 55.924 88.8983 55.9987 88.5997 56.148C88.3103 56.2973 88.049 56.5027 87.8157 56.764C87.5823 57.016 87.4143 57.31 87.3117 57.646V62H85.7717V54.678H87.1717V56.148C87.3583 55.8213 87.601 55.5413 87.8997 55.308C88.2077 55.0653 88.553 54.8787 88.9357 54.748C89.3183 54.6173 89.7243 54.552 90.1537 54.552C90.5923 54.552 90.9517 54.6313 91.2317 54.79C91.521 54.9487 91.745 55.168 91.9037 55.448C92.0717 55.7187 92.1837 56.036 92.2397 56.4C92.305 56.7547 92.3377 57.1327 92.3377 57.534V62ZM97.4432 62.14C96.8738 62.14 96.3558 62.042 95.8892 61.846C95.4318 61.6407 95.0352 61.3607 94.6992 61.006C94.3632 60.6513 94.1018 60.2453 93.9152 59.788C93.7378 59.3307 93.6492 58.8453 93.6492 58.332C93.6492 57.6413 93.8032 57.0113 94.1112 56.442C94.4285 55.8727 94.8672 55.4153 95.4272 55.07C95.9965 54.7247 96.6685 54.552 97.4432 54.552C98.1898 54.552 98.8385 54.72 99.3892 55.056C99.9492 55.3827 100.36 55.8213 100.621 56.372L99.1232 56.848C98.9552 56.54 98.7172 56.302 98.4092 56.134C98.1105 55.9567 97.7792 55.868 97.4152 55.868C97.0045 55.868 96.6312 55.9753 96.2952 56.19C95.9685 56.3953 95.7072 56.6847 95.5112 57.058C95.3245 57.422 95.2312 57.8467 95.2312 58.332C95.2312 58.7987 95.3292 59.2233 95.5252 59.606C95.7212 59.9793 95.9825 60.278 96.3092 60.502C96.6452 60.7167 97.0185 60.824 97.4292 60.824C97.6812 60.824 97.9238 60.782 98.1572 60.698C98.3998 60.6047 98.6098 60.4833 98.7872 60.334C98.9645 60.1753 99.0905 60.0027 99.1652 59.816L100.677 60.264C100.519 60.628 100.281 60.95 99.9632 61.23C99.6552 61.51 99.2865 61.734 98.8572 61.902C98.4372 62.0607 97.9658 62.14 97.4432 62.14ZM102.061 63.722C102.201 63.7407 102.336 63.7593 102.467 63.778C102.607 63.806 102.719 63.82 102.803 63.82C102.961 63.82 103.097 63.7687 103.209 63.666C103.33 63.5727 103.451 63.3953 103.573 63.134C103.694 62.8727 103.843 62.4947 104.021 62L101.011 54.678H102.621L104.861 60.432L106.849 54.678H108.333L105.015 63.694C104.912 63.9647 104.763 64.212 104.567 64.436C104.371 64.6693 104.128 64.8513 103.839 64.982C103.549 65.1127 103.209 65.178 102.817 65.178C102.705 65.178 102.588 65.1687 102.467 65.15C102.345 65.1313 102.21 65.1033 102.061 65.066V63.722Z" fill="black"/>
<g clip-path="url(#clip0_332_13781)">
<path fill-rule="evenodd" clip-rule="evenodd" d="M58.9038 2H85.0966C85.7216 2 86.299 2.33008 86.6106 2.86559L94.2417 15.9764C94.6374 16.6563 94.5198 17.5145 93.9553 18.0658L72.9507 38.5827C72.2703 39.2473 71.1758 39.2473 70.4953 38.5827L49.5191 18.0936C48.9415 17.5294 48.8333 16.6462 49.2581 15.962L57.415 2.82352C57.7327 2.31184 58.2964 2 58.9038 2ZM81.7146 7.85353V11.5323H74.2533V14.0828C79.4937 14.3554 83.4253 15.4748 83.4545 16.8166L83.4543 19.6138C83.4251 20.9556 79.4937 22.075 74.2533 22.3476V28.607H69.299V22.3476C64.0586 22.075 60.127 20.9556 60.0979 19.6138L60.098 16.8166C60.1272 15.4748 64.0586 14.3554 69.299 14.0828V11.5323H61.8377V7.85353H81.7146ZM71.7762 20.4259C77.3685 20.4259 82.0427 19.4794 83.1866 18.2152C82.2166 17.1433 78.7078 16.2996 74.2533 16.0679V18.7383C73.455 18.7799 72.6262 18.8017 71.7762 18.8017C70.9261 18.8017 70.0974 18.7799 69.299 18.7383V16.0679C64.8445 16.2996 61.3357 17.1433 60.3657 18.2152C61.5096 19.4794 66.1838 20.4259 71.7762 20.4259Z" fill="#009393"/>
</g>
<g clip-path="url(#clip1_332_13781)">
<path d="M58.3417 26.0801C55.4031 37.3302 43.4647 44.1768 31.6761 41.3713C19.8925 38.5666 12.7191 27.1714 15.6589 15.9222C18.5962 4.67085 30.5347 -2.17626 42.3196 0.628445C54.1073 3.43315 61.2803 14.8296 58.3414 26.0803L58.3416 26.0801H58.3417Z" fill="#F7931A"/>
<path d="M46.7013 18.008C47.1392 15.2134 44.91 13.7112 41.8617 12.709L42.8506 8.92344L40.4362 8.34923L39.4736 12.0352C38.8388 11.8841 38.187 11.7417 37.5391 11.6005L38.5088 7.8903L36.0959 7.3161L35.1064 11.1005C34.5812 10.9863 34.0653 10.8735 33.5648 10.7546L33.5676 10.7427L30.238 9.94918L29.5958 12.4104C29.5958 12.4104 31.3871 12.8023 31.3493 12.8264C32.327 13.0594 32.5038 13.6771 32.4745 14.1667L31.348 18.4794C31.4153 18.4957 31.5027 18.5193 31.599 18.5563C31.5185 18.5372 31.4328 18.5163 31.3438 18.496L29.7649 24.5374C29.6455 24.821 29.3422 25.2464 28.6586 25.0849C28.6828 25.1183 26.9038 24.6669 26.9038 24.6669L25.7051 27.3047L28.847 28.0522C29.4316 28.1922 30.0043 28.3385 30.5684 28.4762L29.5693 32.3052L31.9809 32.8794L32.9704 29.091C33.6292 29.2617 34.2685 29.4192 34.8945 29.5676L33.9084 33.3381L36.3229 33.9123L37.3219 30.0905C41.439 30.8342 44.5347 30.5343 45.8377 26.9801C46.8877 24.1185 45.7854 22.468 43.6195 21.3916C45.1971 21.0444 46.3853 20.0541 46.7022 18.0083L46.7014 18.0078L46.7013 18.008ZM41.1849 25.3909C40.4388 28.2525 35.3908 26.7056 33.7541 26.3177L35.08 21.245C36.7165 21.6349 41.9648 22.4066 41.185 25.3909H41.1849ZM41.9316 17.9666C41.251 20.5695 37.0495 19.2471 35.6865 18.9228L36.8886 14.3221C38.2515 14.6464 42.6407 15.2516 41.9318 17.9666H41.9316Z" fill="white"/>
</g>
<defs>
<clipPath id="clip0_332_13781">
<rect width="46" height="38" fill="white" transform="translate(49 2)"/>
</clipPath>
<clipPath id="clip1_332_13781">
<rect width="44" height="42" fill="white" transform="translate(15)"/>
</clipPath>
</defs>
</svg>
