<svg width="27" height="25" viewBox="0 0 27 25" fill="none" xmlns="http://www.w3.org/2000/svg">
<g clip-path="url(#clip0_623_6270)">
<path d="M22.5069 1.61273C22.891 1.86691 23.1702 2.116 23.4032 2.50236C23.7874 3.13781 23.8092 3.32845 23.1599 4.47862C22.9435 4.86243 22.6529 4.89421 22.3263 4.59554C21.3301 3.5839 20.2224 2.87728 18.7562 2.96624C18.5577 1.88089 19.2774 0.955666 20.33 0.977272C20.563 0.982355 20.992 1.02302 21.2263 0.977272C21.0471 0.766301 20.4299 0.32911 20.2019 0.214728C19.3055 -0.293635 18.0647 0.128306 17.2797 1.18824C16.8917 1.71186 16.6049 2.31172 16.2886 2.88617C15.3321 4.88404 14.8352 6.06217 12.3523 5.77621C10.589 5.63006 8.82056 5.46738 7.05471 5.46993C5.94064 5.4712 4.80353 5.67327 3.71892 5.94779C2.0824 6.33795 0.598267 7.69401 0.489422 9.4377C0.434359 10.1469 0.772419 10.3566 1.4908 10.218C5.78314 9.27248 10.201 12.7433 9.35326 17.0695C9.05874 18.5882 8.49658 19.9951 7.46576 21.1809C6.24413 22.5852 4.22217 23.1254 2.45376 22.5407C1.4972 22.2243 0.982426 21.5494 1.0106 20.5365C1.02468 20.0142 1.14505 19.4957 1.22957 18.8818C0.864618 19.4067 0.812115 19.4372 0.736565 19.5338C-0.555492 21.1618 -0.0957794 22.9246 1.67648 24.0137C4.02241 25.4549 6.44773 25.2376 8.70147 23.8765C9.89749 23.1533 10.8745 22.0654 11.9182 21.1072C12.7774 20.3179 13.5214 19.3927 14.4331 18.6759C17.0236 16.6387 19.9112 16.8077 22.2777 19.0902C23.1023 19.8858 23.8297 20.7793 24.6274 21.6015C25.5469 22.5496 26.1858 22.4251 26.6046 21.1631C27.4177 18.714 26.9375 16.434 25.4969 14.3447C24.9335 13.5262 24.2689 12.7738 23.6273 12.0113C22.3686 10.5142 22.3583 9.66392 23.4468 8.0308C24.1485 6.97722 24.8592 5.89695 25.3381 4.73661C26.0335 3.05266 24.5083 1.28356 22.5056 1.61527L22.5069 1.61273ZM12.1794 16.0413C12.0936 15.9829 12.0577 15.8748 12.0923 15.777C12.1999 15.4745 12.2895 15.1593 12.456 14.8924C13.9939 12.4675 15.099 10.5447 17.0019 8.34726C17.2682 8.04732 17.7138 7.4716 18.1505 7.89227C18.5731 8.29896 18.1172 8.68532 17.8509 9.03482C16.19 11.2093 14.6457 13.2402 13.077 15.4681C12.917 15.6893 12.6762 15.8532 12.4534 16.0299C12.374 16.0922 12.2639 16.0972 12.1794 16.0413Z" fill="#416FF4"/>
</g>
<defs>
<clipPath id="clip0_623_6270">
<rect width="27" height="25" fill="white" transform="matrix(-1 0 0 1 27 0)"/>
</clipPath>
</defs>
</svg>
