<svg width="88" height="34" viewBox="0 0 88 34" fill="none" xmlns="http://www.w3.org/2000/svg">
<g clip-path="url(#clip0_254_14144)">
<path d="M41.0701 16.5377V26.5634H37.8379V1.80669H46.4006C47.4208 1.78464 48.4353 1.96187 49.3856 2.32813C50.3359 2.69439 51.203 3.24242 51.937 3.94058C52.6696 4.60881 53.2542 5.41892 53.6539 6.3201C54.0537 7.22128 54.26 8.19409 54.26 9.17751C54.26 10.1609 54.0537 11.1337 53.6539 12.0349C53.2542 12.9361 52.6696 13.7462 51.937 14.4144C51.2011 15.1081 50.333 15.6513 49.3827 16.0127C48.4325 16.3741 47.4189 16.5465 46.4006 16.5199H41.0701V16.5377ZM41.0701 4.8546V13.4862H46.4873C47.0806 13.5014 47.6707 13.3959 48.2206 13.1762C48.7706 12.9565 49.2686 12.6274 49.6834 12.2094C50.0971 11.8168 50.4254 11.3453 50.6483 10.8238C50.8712 10.3023 50.984 9.74155 50.9799 9.17573C50.9516 8.02191 50.4654 6.92492 49.6257 6.11985C48.7859 5.31478 47.6593 4.8657 46.4873 4.86883H41.0701V4.8546Z" fill="#3C4043"/>
<path d="M62.7101 9.06192C65.0985 9.06192 66.9824 9.69142 68.362 10.9504C69.7416 12.2094 70.4314 13.9331 70.4314 16.1215V26.5598H67.3508V24.2054H67.2172C65.8882 26.1437 64.1041 27.104 61.8831 27.104C60.1399 27.1622 58.4387 26.5703 57.1196 25.4467C56.5061 24.9412 56.015 24.3073 55.6819 23.5911C55.3489 22.8749 55.1825 22.0945 55.1947 21.3069C55.1653 20.5023 55.3335 19.7027 55.6849 18.9758C56.0364 18.2489 56.5607 17.6163 57.2135 17.1316C58.5606 16.086 60.3591 15.5738 62.5981 15.5738C64.5158 15.5738 66.0976 15.9295 67.3255 16.6195V15.9082C67.3308 15.3708 67.2143 14.8391 66.9844 14.3518C66.7544 13.8645 66.417 13.4339 65.9965 13.0914C65.1396 12.3284 64.0205 11.914 62.8654 11.932C62.0209 11.91 61.1849 12.103 60.4383 12.4924C59.6917 12.8819 59.0599 13.4544 58.6039 14.1548L55.7617 12.3979C57.3266 10.1692 59.6428 9.05718 62.7101 9.06192ZM58.5389 21.3567C58.536 21.7623 58.6331 22.1625 58.8218 22.523C59.0105 22.8835 59.2852 23.1936 59.6223 23.4266C60.3372 23.9765 61.2216 24.2689 62.1287 24.2552C62.8041 24.2549 63.4728 24.123 64.0963 23.8673C64.7198 23.6116 65.2858 23.237 65.7618 22.7651C66.264 22.3266 66.6662 21.7884 66.942 21.1858C67.2177 20.5832 67.3607 19.93 67.3616 19.269C66.3504 18.4902 64.9564 18.0918 63.1543 18.0918C61.9879 18.0518 60.8387 18.3768 59.8715 19.0201C58.9759 19.6674 58.5353 20.4462 58.5353 21.3567H58.5389Z" fill="#3C4043"/>
<path d="M87.9985 9.60962L77.2255 34H73.8958L77.9009 25.4644L70.8008 9.60606H74.3364L79.4502 21.7692H79.5188L84.499 9.60606L87.9985 9.60962Z" fill="#3C4043"/>
<path d="M28.22 14.5105C28.2204 13.5099 28.1298 12.5112 27.9492 11.5266H14.4062V17H22.2034C22.0539 17.8897 21.7203 18.7396 21.2233 19.4971C20.7263 20.2545 20.0765 20.9032 19.3142 21.4029V24.9594H23.9549C26.6635 22.4805 28.22 18.828 28.22 14.5105Z" fill="#4285F4"/>
<path d="M19.3176 21.4029C18.1996 22.1107 16.9324 22.5578 15.6124 22.7102C14.2924 22.8626 12.9544 22.7163 11.7005 22.2824C10.4467 21.8485 9.30988 21.1384 8.37683 20.2064C7.44378 19.2743 6.73908 18.1448 6.31641 16.904H1.53125V20.5565C2.731 22.9084 4.571 24.8856 6.84579 26.2672C9.12058 27.6489 11.7406 28.3806 14.4133 28.3808C18.3064 28.3808 21.5784 27.1182 23.9583 24.9487L19.3176 21.4029Z" fill="#34A853"/>
<path d="M5.86902 14.1904C5.86964 13.2666 6.02209 12.349 6.32045 11.4732V7.81715H1.53168C0.524468 9.79587 0 11.9788 0 14.1922C0 16.4056 0.524468 18.5884 1.53168 20.5672L6.32045 16.9075C6.02209 16.0317 5.86964 15.1141 5.86902 14.1904Z" fill="#FABB05"/>
<path d="M14.413 5.61924C16.469 5.5883 18.4549 6.35474 19.9421 7.75313L24.0555 3.70585C21.4466 1.29115 17.9894 -0.0344969 14.4094 0.00710739C11.7367 0.00722854 9.11669 0.738977 6.8419 2.12064C4.56711 3.5023 2.72709 5.47947 1.52734 7.83137L6.31612 11.491C6.87267 9.80135 7.95319 8.32607 9.40564 7.27278C10.8581 6.21948 12.6093 5.64117 14.413 5.61924Z" fill="#E94235"/>
</g>
<defs>
<clipPath id="clip0_254_14144">
<rect width="88" height="34" fill="white"/>
</clipPath>
</defs>
</svg>
