<svg width="33" height="30" viewBox="0 0 33 30" fill="none" xmlns="http://www.w3.org/2000/svg">
<g clip-path="url(#clip0_164_8294)">
<path d="M0 29.9999C6.00991 26.6752 10.8468 21.6912 15.349 16.613C15.5749 16.4449 14.9121 16.2429 15.0835 15.6196C15.3445 14.6711 15.3905 13.746 15.3988 12.7612C15.416 10.6615 15.4785 8.45036 14.5704 6.49771C13.3687 3.91642 11.4764 1.08481 8.38848 0.679295C7.74517 0.585108 7.62009 -0.0283716 8.41943 0.00102231C11.6146 0.101847 14.9335 -0.00561501 17.9069 1.34366C22.3957 3.19832 21.1531 1.79753 24.9315 1.48273C25.4392 1.44038 26.176 1.45112 26.5053 1.46345C26.6199 1.46787 26.6882 1.45839 26.768 1.37558C27.2208 0.905281 27.7572 0.615766 28.4238 0.519683C28.7604 0.471009 30.0087 0.321827 29.6593 0.860084C29.1114 1.70397 26.6346 1.84873 27.5121 3.3848C27.7074 3.72678 28.2498 4.07445 28.5051 4.2957C30.0011 5.59219 30.2602 5.65477 31.3451 3.79C31.5203 3.48879 32.2386 2.52574 32.2651 3.22709C32.2753 3.49511 32.3573 4.09057 32.1894 4.71669C32.0602 5.19869 31.7717 5.5884 31.415 5.93038C31.3339 6.00813 31.3043 6.07419 31.3314 6.19113C31.7405 7.798 31.0053 9.34134 30.571 10.8373C30.5569 13.216 32.0494 15.2069 32.4387 17.4926C32.8225 19.5044 32.8873 21.5461 32.9929 23.5854C33.0622 24.1796 32.6065 25.4113 32.3129 24.1619C32.0787 23.165 31.804 22.3622 31.2385 21.5926C28.7946 18.4174 24.6638 17.3845 20.7367 17.2881C19.3786 17.2546 17.3363 17.95 16.7288 17.577C16.4355 17.3969 16.3318 17.1889 16.1276 17.3833C12.8906 20.2155 3.78515 30.0356 0 29.9999Z" fill="#416FF4"/>
</g>
<defs>
<clipPath id="clip0_164_8294">
<rect width="33" height="30" fill="white" transform="matrix(-1 0 0 1 33 0)"/>
</clipPath>
</defs>
</svg>
