<svg width="32" height="32" viewBox="0 0 32 32" fill="none" xmlns="http://www.w3.org/2000/svg">
<circle cx="16" cy="16" r="15.5" fill="white" stroke="#DBDEE7"/>
<path d="M10 10L22 22M17.5 17.6771C17.1019 18.0334 16.5763 18.25 16 18.25C14.7574 18.25 13.75 17.2426 13.75 16C13.75 15.4237 13.9666 14.8981 14.3229 14.5M21.7058 18.7058C22.1343 18.3327 22.5177 17.9574 22.8477 17.6102C23.7174 16.6951 23.7174 15.3049 22.8477 14.3898C21.3809 12.8465 18.8616 10.75 16 10.75C15.3315 10.75 14.6816 10.8644 14.0595 11.0595M11.875 12.1025C10.7811 12.8008 9.84823 13.6576 9.15228 14.3898C8.28257 15.3049 8.28257 16.6951 9.15228 17.6102C10.6191 19.1535 13.1384 21.25 16 21.25C17.4011 21.25 18.72 20.7474 19.8736 20.0533" stroke="#808191" stroke-width="1.5" stroke-linecap="round"/>
</svg>
