<svg width="16" height="16" viewBox="0 0 16 16" fill="none" xmlns="http://www.w3.org/2000/svg">
<g clip-path="url(#clip0_659_3321)">
<path d="M8.00014 1.33334V2.66668M14.0001 3.33334L13.0001 4.33334M2.00014 3.33334L3.00014 4.33334M8.00016 14.6667C10.403 14.6667 12.5424 13.103 13.9183 11.7859C14.9163 10.8305 14.9163 9.16948 13.9183 8.21409C12.5424 6.89702 10.403 5.33334 8.00016 5.33334C5.59736 5.33334 3.45791 6.89702 2.08203 8.21409C1.08398 9.16948 1.08398 10.8305 2.08203 11.7859C3.45791 13.103 5.59736 14.6667 8.00016 14.6667ZM10.0001 10C10.0001 11.1046 9.10471 12 8.00014 12C6.89557 12 6.00014 11.1046 6.00014 10C6.00014 8.89544 6.89557 8.00001 8.00014 8.00001C9.10471 8.00001 10.0001 8.89544 10.0001 10Z" stroke="currentColor" stroke-width="1.5" stroke-linecap="round"/>
</g>
<defs>
<clipPath id="clip0_659_3321">
<rect width="16" height="16" fill="white"/>
</clipPath>
</defs>
</svg>
