<svg width="16" height="16" viewBox="0 0 16 16" fill="none" xmlns="http://www.w3.org/2000/svg">
<path d="M2 4.66666H4M4 4.66666C4 5.77123 4.89543 6.66666 6 6.66666C7.10457 6.66666 8 5.77123 8 4.66666C8 3.56209 7.10457 2.66666 6 2.66666C4.89543 2.66666 4 3.56209 4 4.66666ZM2 11.3333H6M12 11.3333H14M12 11.3333C12 12.4379 11.1046 13.3333 10 13.3333C8.89543 13.3333 8 12.4379 8 11.3333C8 10.2288 8.89543 9.33332 10 9.33332C11.1046 9.33332 12 10.2288 12 11.3333ZM10 4.66666H14" stroke="currentColor" stroke-width="1.5" stroke-linecap="round"/>
</svg>
