<svg width="18" height="18" viewBox="0 0 18 18" fill="none" xmlns="http://www.w3.org/2000/svg">
    <path d="M6 4.5H12M15 13.5V4.5C15 2.84315 13.6569 1.5 12 1.5L6 1.5C4.34315 1.5 3 2.84315 3 4.5L3 13.5C3 15.1569 4.34315 16.5 6 16.5H12C13.6569 16.5 15 15.1569 15 13.5Z" stroke="currentColor" stroke-width="1.5" stroke-linecap="round"/>
    <path d="M6.5625 7.5C6.5625 7.81066 6.31066 8.0625 6 8.0625C5.68934 8.0625 5.4375 7.81066 5.4375 7.5C5.4375 7.18934 5.68934 6.9375 6 6.9375C6.31066 6.9375 6.5625 7.18934 6.5625 7.5Z" fill="currentColor"/>
    <path d="M9.5625 7.5C9.5625 7.81066 9.31066 8.0625 9 8.0625C8.68934 8.0625 8.4375 7.81066 8.4375 7.5C8.4375 7.18934 8.68934 6.9375 9 6.9375C9.31066 6.9375 9.5625 7.18934 9.5625 7.5Z" fill="currentColor"/>
    <path d="M12.5625 7.5C12.5625 7.81066 12.3107 8.0625 12 8.0625C11.6893 8.0625 11.4375 7.81066 11.4375 7.5C11.4375 7.18934 11.6893 6.9375 12 6.9375C12.3107 6.9375 12.5625 7.18934 12.5625 7.5Z" fill="currentColor"/>
    <path d="M6.5625 10.5C6.5625 10.8107 6.31066 11.0625 6 11.0625C5.68934 11.0625 5.4375 10.8107 5.4375 10.5C5.4375 10.1893 5.68934 9.9375 6 9.9375C6.31066 9.9375 6.5625 10.1893 6.5625 10.5Z" fill="currentColor"/>
    <path d="M9.5625 10.5C9.5625 10.8107 9.31066 11.0625 9 11.0625C8.68934 11.0625 8.4375 10.8107 8.4375 10.5C8.4375 10.1893 8.68934 9.9375 9 9.9375C9.31066 9.9375 9.5625 10.1893 9.5625 10.5Z" fill="currentColor"/>
    <path d="M12.5625 10.5C12.5625 10.8107 12.3107 11.0625 12 11.0625C11.6893 11.0625 11.4375 10.8107 11.4375 10.5C11.4375 10.1893 11.6893 9.9375 12 9.9375C12.3107 9.9375 12.5625 10.1893 12.5625 10.5Z" fill="currentColor"/>
    <path d="M6.5625 13.5C6.5625 13.8107 6.31066 14.0625 6 14.0625C5.68934 14.0625 5.4375 13.8107 5.4375 13.5C5.4375 13.1893 5.68934 12.9375 6 12.9375C6.31066 12.9375 6.5625 13.1893 6.5625 13.5Z" fill="currentColor"/>
    <path d="M9.5625 13.5C9.5625 13.8107 9.31066 14.0625 9 14.0625C8.68934 14.0625 8.4375 13.8107 8.4375 13.5C8.4375 13.1893 8.68934 12.9375 9 12.9375C9.31066 12.9375 9.5625 13.1893 9.5625 13.5Z" fill="currentColor"/>
    <path d="M12.5625 13.5C12.5625 13.8107 12.3107 14.0625 12 14.0625C11.6893 14.0625 11.4375 13.8107 11.4375 13.5C11.4375 13.1893 11.6893 12.9375 12 12.9375C12.3107 12.9375 12.5625 13.1893 12.5625 13.5Z" fill="currentColor"/>
</svg>
