<svg width="16" height="16" viewBox="0 0 16 16" fill="none" xmlns="http://www.w3.org/2000/svg">
<g clip-path="url(#clip0_898_9395)">
<path d="M5.33325 5.33337V4.00004C5.33325 2.52728 6.52716 1.33337 7.99992 1.33337L11.9999 1.33337C13.4727 1.33337 14.6666 2.52728 14.6666 4.00004V8.00004C14.6666 9.4728 13.4727 10.6667 11.9999 10.6667H10.6666M5.33325 5.33337H3.99992C2.52716 5.33337 1.33325 6.52728 1.33325 8.00004V12C1.33325 13.4728 2.52716 14.6667 3.99992 14.6667H7.99992C9.47268 14.6667 10.6666 13.4728 10.6666 12V10.6667M5.33325 5.33337H7.99992C9.47268 5.33337 10.6666 6.52728 10.6666 8.00004V10.6667" stroke="currentColor" stroke-width="1.5" stroke-linejoin="round"/>
</g>
<defs>
<clipPath id="clip0_898_9395">
<rect width="16" height="16" fill="white"/>
</clipPath>
</defs>
</svg>
