<svg width="20" height="20" viewBox="0 0 20 20" fill="none" xmlns="http://www.w3.org/2000/svg">
<path d="M16.6667 11.6665L17.6263 10.7069C18.0168 10.3164 18.0168 9.68326 17.6263 9.29273L16.6667 8.33317" stroke="black" stroke-width="1.5" stroke-linecap="round" stroke-linejoin="round"/>
<path d="M17.5001 10.0002H10.8334M5.00008 16.6668C3.15913 16.6668 1.66675 15.1744 1.66675 13.3335V6.66683C1.66675 4.82588 3.15913 3.3335 5.00008 3.3335M5.00008 16.6668C6.84103 16.6668 8.33342 15.1744 8.33342 13.3335V6.66683C8.33342 4.82588 6.84103 3.3335 5.00008 3.3335M5.00008 16.6668H11.6668C13.5077 16.6668 15.0001 15.1744 15.0001 13.3335M5.00008 3.3335H11.6668C13.5077 3.3335 15.0001 4.82588 15.0001 6.66683" stroke="black" stroke-width="1.5" stroke-linecap="round"/>
</svg>
