<svg width="76" height="60" viewBox="0 0 76 60" fill="none" xmlns="http://www.w3.org/2000/svg">
<g clip-path="url(#clip0_254_14124)">
<path d="M74.5027 59.1864V59.3406H74.6444C74.671 59.3411 74.6973 59.3343 74.7204 59.321C74.7297 59.3143 74.7371 59.3054 74.7421 59.2951C74.7471 59.2848 74.7494 59.2734 74.7489 59.262C74.7494 59.2507 74.747 59.2395 74.7421 59.2295C74.7371 59.2194 74.7296 59.2108 74.7204 59.2045C74.6975 59.1905 74.6711 59.1837 74.6444 59.1848H74.5027V59.1864ZM74.6459 59.0772C74.7067 59.0735 74.7669 59.0912 74.8162 59.1274C74.836 59.1438 74.8517 59.1647 74.862 59.1884C74.8724 59.2121 74.8771 59.238 74.8758 59.2639C74.8768 59.2862 74.8729 59.3084 74.8647 59.3291C74.8564 59.3498 74.8439 59.3684 74.828 59.3838C74.7899 59.4174 74.7422 59.4375 74.6919 59.4413L74.8819 59.6611H74.7356L74.5608 59.4428H74.5042V59.6611H74.3819V59.0776H74.6479L74.6459 59.0772ZM74.6079 59.8623C74.6721 59.863 74.7357 59.8498 74.7945 59.8238C74.8512 59.799 74.9028 59.7635 74.9465 59.7193C74.9903 59.6751 75.0253 59.6227 75.0495 59.565C75.0994 59.4428 75.0994 59.3055 75.0495 59.1833C75.0249 59.1258 74.99 59.0735 74.9465 59.029C74.9028 58.9848 74.8512 58.9494 74.7945 58.9246C74.7353 58.8999 74.6719 58.8876 74.6079 58.8883C74.5429 58.8877 74.4783 58.9 74.4179 58.9246C74.36 58.9489 74.3072 58.9843 74.2625 59.029C74.1953 59.099 74.1498 59.1875 74.1318 59.2835C74.1138 59.3795 74.1239 59.4787 74.1611 59.5689C74.1842 59.6268 74.2187 59.6792 74.2625 59.7231C74.3072 59.7678 74.36 59.8033 74.4179 59.8276C74.478 59.8537 74.5427 59.8668 74.6079 59.8662M74.6079 58.7479C74.775 58.7478 74.9353 58.8143 75.0544 58.933C75.1119 58.9901 75.1576 59.0581 75.189 59.1332C75.2214 59.2103 75.2382 59.2932 75.2382 59.3771C75.2382 59.4609 75.2214 59.5439 75.189 59.621C75.1569 59.6956 75.1112 59.7635 75.0544 59.8211C74.9961 59.8778 74.9283 59.9235 74.8542 59.956C74.7763 59.9896 74.6925 60.0067 74.6079 60.0062C74.5224 60.0068 74.4375 59.9897 74.3587 59.956C74.2837 59.9243 74.2152 59.8785 74.1569 59.8211C74.1001 59.7614 74.0551 59.6912 74.0243 59.6144C73.9918 59.5373 73.975 59.4543 73.975 59.3705C73.975 59.2867 73.9918 59.2037 74.0243 59.1266C74.0556 59.0515 74.1013 58.9835 74.1588 58.9265C74.2163 58.8681 74.285 58.8222 74.3606 58.7915C74.4394 58.7578 74.5243 58.7408 74.6098 58.7414M16.4223 56.4949C16.4223 55.3824 17.1405 54.4685 18.3144 54.4685C19.4361 54.4685 20.1931 55.3431 20.1931 56.4949C20.1931 57.6467 19.4361 58.5212 18.3144 58.5212C17.1405 58.5212 16.4223 57.6073 16.4223 56.4949ZM21.4718 56.4949V53.3291H20.1156V54.1003C19.6854 53.5303 19.0329 53.1729 18.1456 53.1729C16.3976 53.1729 15.0258 54.5641 15.0258 56.4964C15.0258 58.4287 16.3969 59.8199 18.1456 59.8199C19.0326 59.8199 19.6854 59.4621 20.1156 58.8925V59.6611H21.4703V56.4949H21.4718ZM67.2967 56.4949C67.2967 55.3824 68.0149 54.4685 69.1891 54.4685C70.312 54.4685 71.0679 55.3431 71.0679 56.4949C71.0679 57.6467 70.312 58.5212 69.1891 58.5212C68.0153 58.5212 67.2967 57.6073 67.2967 56.4949ZM72.3477 56.4949V50.7879H70.9903V54.1003C70.5602 53.5303 69.9077 53.1729 69.0204 53.1729C67.2724 53.1729 65.9006 54.5641 65.9006 56.4964C65.9006 58.4287 67.2717 59.8199 69.0204 59.8199C69.9077 59.8199 70.5602 59.4621 70.9903 58.8925V59.6611H72.3477V56.4949ZM38.3043 54.4033C39.1783 54.4033 39.7395 54.9594 39.8828 55.9384H36.6467C36.7915 55.0246 37.3383 54.4033 38.3046 54.4033M38.3316 53.1694C36.5038 53.1694 35.2251 54.519 35.2251 56.4929C35.2251 58.5054 36.5551 59.8165 38.4224 59.8165C39.3618 59.8165 40.2221 59.5785 40.9791 58.9296L40.3145 57.9096C39.7916 58.3338 39.1258 58.5717 38.5 58.5717C37.626 58.5717 36.8302 58.1611 36.6345 57.0216H41.2656C41.2789 56.8504 41.2926 56.6776 41.2926 56.4925C41.2789 54.5194 40.0766 53.169 38.3309 53.169M54.7051 56.4925C54.7051 55.3801 55.4233 54.4662 56.5971 54.4662C57.7188 54.4662 58.4758 55.3407 58.4758 56.4925C58.4758 57.6443 57.7188 58.5189 56.5971 58.5189C55.4233 58.5189 54.7047 57.605 54.7047 56.4925M59.7541 56.4925V53.3291H58.3987V54.1003C57.967 53.5303 57.316 53.1729 56.4287 53.1729C54.6807 53.1729 53.3089 54.5641 53.3089 56.4964C53.3089 58.4287 54.68 59.8199 56.4287 59.8199C57.316 59.8199 57.967 59.4621 58.3987 58.8925V59.6611H59.7545V56.4949L59.7541 56.4925ZM47.0462 56.4925C47.0462 58.4125 48.3632 59.8161 50.3734 59.8161C51.3128 59.8161 51.9387 59.604 52.6154 59.0614L51.9641 57.949C51.4549 58.3203 50.9203 58.5189 50.3301 58.5189C49.2475 58.5054 48.4514 57.7111 48.4514 56.4925C48.4514 55.274 49.2475 54.4801 50.3301 54.4662C50.9187 54.4662 51.4534 54.6648 51.9641 55.0361L52.6154 53.9237C51.9375 53.3811 51.3117 53.169 50.3734 53.169C48.3632 53.169 47.0462 54.5722 47.0462 56.4925ZM64.53 53.169C63.7475 53.169 63.238 53.5404 62.8857 54.0964V53.3291H61.5416V59.6576H62.8994V56.11C62.8994 55.0627 63.3428 54.4808 64.2294 54.4808C64.5197 54.4766 64.808 54.5307 65.0775 54.6401L65.4955 53.3429C65.1953 53.223 64.8039 53.1702 64.5292 53.1702M28.1769 53.8323C27.5244 53.3958 26.6253 53.1702 25.6335 53.1702C24.0535 53.1702 23.0362 53.9387 23.0362 55.1961C23.0362 56.228 23.7936 56.8647 25.1882 57.0632L25.8289 57.1558C26.5725 57.2618 26.9236 57.4604 26.9236 57.8179C26.9236 58.3072 26.4296 58.5864 25.5021 58.5864C24.5627 58.5864 23.8848 58.2818 23.4276 57.9243L22.7904 58.9974C23.534 59.5535 24.4734 59.8188 25.4907 59.8188C27.2919 59.8188 28.3357 58.9581 28.3357 57.7531C28.3357 56.6406 27.5142 56.0587 26.1568 55.8602L25.5176 55.7661C24.9305 55.6889 24.4601 55.569 24.4601 55.1449C24.4601 54.6821 24.9036 54.4037 25.6476 54.4037C26.4437 54.4037 27.2143 54.7084 27.5921 54.9463L28.1792 53.8338L28.1769 53.8323ZM45.6763 53.1713C44.8938 53.1713 44.3843 53.5427 44.0335 54.0987V53.3291H42.6895V59.6576H44.0457V56.11C44.0457 55.0627 44.4891 54.4808 45.3757 54.4808C45.666 54.4766 45.9543 54.5307 46.2239 54.6401L46.6418 53.3429C46.3416 53.223 45.9502 53.1702 45.6755 53.1702M34.103 53.3291H31.8853V51.4091H30.5143V53.3291H29.2492V54.5869H30.5143V57.4739C30.5143 58.9423 31.0759 59.8168 32.6803 59.8168C33.2689 59.8168 33.9468 59.6318 34.377 59.3275L33.9852 58.1491C33.5805 58.387 33.137 58.5069 32.7844 58.5069C32.1065 58.5069 31.8853 58.0828 31.8853 57.4477V54.588H34.103V53.3291ZM13.8266 59.6591V55.6874C13.8266 54.1916 12.8872 53.1852 11.3729 53.1717C10.5768 53.1582 9.75563 53.4096 9.18069 54.2977C8.75053 53.5959 8.07261 53.1717 7.11957 53.1717C6.45343 53.1717 5.80249 53.3703 5.29291 54.1114V53.3291H3.93555V59.6576H5.30355V56.1486C5.30355 55.05 5.90395 54.4662 6.83115 54.4662C7.73175 54.4662 8.18737 55.062 8.18737 56.1347V59.6568H9.55841V56.1478C9.55841 55.0492 10.1843 54.4654 11.0845 54.4654C12.0105 54.4654 12.4525 55.0612 12.4525 56.1339V59.656L13.8266 59.6591Z" fill="#231F20"/>
<path d="M75.2763 38.6075V37.682H75.0388L74.7641 38.3171L74.4908 37.682H74.2526V38.6075H74.4213V37.9103L74.6782 38.5118H74.853L75.1099 37.9087V38.6075H75.2771H75.2763ZM73.7696 38.6075V37.8405H74.0736V37.6843H73.2969V37.8405H73.6009V38.6075H73.7681H73.7696Z" fill="#F79410"/>
<path d="M48.2812 42.5765H27.7285V5.09576H48.2816L48.2812 42.5765Z" fill="#FF5F00"/>
<path d="M29.032 23.8367C29.032 16.2338 32.5402 9.46104 38.003 5.09639C33.8679 1.7877 28.7534 -0.00803753 23.4874 -0.000141921C10.5154 -0.000141921 0 10.6718 0 23.8367C0 37.0017 10.5154 47.6736 23.4874 47.6736C28.7535 47.6816 33.8682 45.8859 38.0034 42.5771C32.5409 38.2132 29.032 31.4401 29.032 23.8367Z" fill="#EB001B"/>
<path d="M76.0092 23.8369C76.0092 37.0018 65.4939 47.6738 52.5218 47.6738C47.2551 47.6816 42.1399 45.8859 38.0039 42.5772C43.4683 38.2126 46.9765 31.4402 46.9765 23.8369C46.9765 16.2335 43.4683 9.46118 38.0039 5.09652C42.1398 1.78794 47.2549 -0.0077618 52.5214 -5.49591e-06C65.4935 -5.49591e-06 76.0088 10.672 76.0088 23.8369" fill="#F79E1B"/>
</g>
<defs>
<clipPath id="clip0_254_14124">
<rect width="76" height="60" fill="white"/>
</clipPath>
</defs>
</svg>
