<svg width="16" height="16" viewBox="0 0 16 16" fill="none" xmlns="http://www.w3.org/2000/svg">
<path d="M2.66675 4.66683C2.66675 3.93045 3.2637 3.3335 4.00008 3.3335H5.33341C6.06979 3.3335 6.66675 3.93045 6.66675 4.66683V11.3335C6.66675 12.0699 6.06979 12.6668 5.33341 12.6668H4.00008C3.2637 12.6668 2.66675 12.0699 2.66675 11.3335V4.66683Z" stroke="currentColor" stroke-width="1.5"/>
<path d="M9.33341 4.66683C9.33341 3.93045 9.93037 3.3335 10.6667 3.3335H12.0001C12.7365 3.3335 13.3334 3.93045 13.3334 4.66683V11.3335C13.3334 12.0699 12.7365 12.6668 12.0001 12.6668H10.6667C9.93037 12.6668 9.33341 12.0699 9.33341 11.3335V4.66683Z" stroke="currentColor" stroke-width="1.5"/>
</svg>
