<svg width="34" height="34" viewBox="0 0 34 34" fill="none" xmlns="http://www.w3.org/2000/svg">
<path d="M21.6668 9.91667C21.6668 12.494 19.5775 14.5833 17.0002 14.5833V16.5833C20.6821 16.5833 23.6668 13.5986 23.6668 9.91667H21.6668ZM17.0002 14.5833C14.4228 14.5833 12.3335 12.494 12.3335 9.91667H10.3335C10.3335 13.5986 13.3183 16.5833 17.0002 16.5833V14.5833ZM12.3335 9.91667C12.3335 7.33934 14.4228 5.25 17.0002 5.25V3.25C13.3183 3.25 10.3335 6.23477 10.3335 9.91667H12.3335ZM17.0002 5.25C19.5775 5.25 21.6668 7.33934 21.6668 9.91667H23.6668C23.6668 6.23477 20.6821 3.25 17.0002 3.25V5.25ZM25.9168 24.7917C25.9168 25.578 25.2533 26.5592 23.5651 27.4033C21.9366 28.2175 19.617 28.75 17.0002 28.75V30.75C19.8602 30.75 22.4988 30.1725 24.4595 29.1922C26.3604 28.2417 27.9168 26.7437 27.9168 24.7917H25.9168ZM17.0002 28.75C14.3833 28.75 12.0637 28.2175 10.4352 27.4033C8.74698 26.5592 8.0835 25.578 8.0835 24.7917H6.0835C6.0835 26.7437 7.63994 28.2417 9.54081 29.1922C11.5015 30.1725 14.1402 30.75 17.0002 30.75V28.75ZM8.0835 24.7917C8.0835 24.0053 8.74698 23.0242 10.4352 22.18C12.0637 21.3658 14.3833 20.8333 17.0002 20.8333V18.8333C14.1402 18.8333 11.5015 19.4108 9.54081 20.3912C7.63994 21.3416 6.0835 22.8396 6.0835 24.7917H8.0835ZM17.0002 20.8333C19.617 20.8333 21.9366 21.3658 23.5651 22.18C25.2533 23.0242 25.9168 24.0053 25.9168 24.7917H27.9168C27.9168 22.8396 26.3604 21.3416 24.4595 20.3912C22.4988 19.4108 19.8602 18.8333 17.0002 18.8333V20.8333Z" fill="white"/>
</svg>
