<svg width="16" height="16" viewBox="0 0 16 16" xmlns="http://www.w3.org/2000/svg">
<path d="M9.91683 4.66667C9.91683 5.72521 9.05871 6.58333 8.00016 6.58333V8.08333C9.88714 8.08333 11.4168 6.55364 11.4168 4.66667H9.91683ZM8.00016 6.58333C6.94162 6.58333 6.0835 5.72521 6.0835 4.66667H4.5835C4.5835 6.55364 6.11319 8.08333 8.00016 8.08333V6.58333ZM6.0835 4.66667C6.0835 3.60812 6.94162 2.75 8.00016 2.75V1.25C6.11319 1.25 4.5835 2.77969 4.5835 4.66667H6.0835ZM8.00016 2.75C9.05871 2.75 9.91683 3.60812 9.91683 4.66667H11.4168C11.4168 2.77969 9.88714 1.25 8.00016 1.25V2.75ZM11.9168 11.6667C11.9168 11.8739 11.7294 12.2634 10.9646 12.6458C10.2447 13.0057 9.19764 13.25 8.00016 13.25V14.75C9.38001 14.75 10.6663 14.4719 11.6354 13.9874C12.5596 13.5253 13.4168 12.7481 13.4168 11.6667H11.9168ZM8.00016 13.25C6.80269 13.25 5.75565 13.0057 5.03574 12.6458C4.27097 12.2634 4.0835 11.8739 4.0835 11.6667H2.5835C2.5835 12.7481 3.44069 13.5253 4.36492 13.9874C5.33401 14.4719 6.62031 14.75 8.00016 14.75V13.25ZM4.0835 11.6667C4.0835 11.4595 4.27097 11.07 5.03574 10.6876C5.75565 10.3276 6.80269 10.0833 8.00016 10.0833V8.58333C6.62031 8.58333 5.33401 8.86139 4.36492 9.34593C3.44069 9.80805 2.5835 10.5852 2.5835 11.6667H4.0835ZM8.00016 10.0833C9.19764 10.0833 10.2447 10.3276 10.9646 10.6876C11.7294 11.07 11.9168 11.4595 11.9168 11.6667H13.4168C13.4168 10.5852 12.5596 9.80805 11.6354 9.34593C10.6663 8.86139 9.38001 8.58333 8.00016 8.58333V10.0833Z" fill="currentColor"/>
</svg>
