<svg width="103" height="52" viewBox="0 0 103 52" fill="none" xmlns="http://www.w3.org/2000/svg">
<path d="M50.4258 29.51H52.0413V33.1392H53.2122L55.3047 29.51H57.0503L54.5241 33.735V33.7567L57.2021 38.3933H55.3698L53.2122 34.5042H52.0629V38.3933H50.4475L50.4258 29.4992V29.51ZM60.8125 31.8608C62.7533 31.8608 64.3362 33.2367 64.3362 35.2083C64.3362 37.18 62.7641 38.5558 60.8125 38.5558C58.8609 38.5558 57.2888 37.18 57.2888 35.2083C57.3105 33.2475 58.8609 31.8608 60.8125 31.8608ZM60.8125 37.1908C61.9184 37.2558 62.84 36.3892 62.905 35.295C62.9701 34.19 62.1027 33.2692 61.0077 33.2042C59.9018 33.1392 58.9802 34.0058 58.9152 35.1V35.2083C58.8718 36.27 59.6741 37.1475 60.7258 37.1908H60.8125ZM65.6047 32.0125H67.1118V37.0608H69.0959V32.0125H70.6029V37.0608H72.6087V32.0125H74.0941V38.4042H65.5614L65.583 32.0125H65.6047ZM78.7128 31.8608C80.5451 31.8608 81.5426 33.2042 81.5426 34.8833C81.5426 35.1 81.5209 35.295 81.4993 35.5117H77.119C77.2275 36.6383 78.0732 37.1908 79.0381 37.1908C79.7103 37.1692 80.3608 36.9092 80.8704 36.4758L81.4993 37.6242C80.762 38.2092 79.8621 38.5342 78.9297 38.5342C76.8155 38.5342 75.471 37.0067 75.471 35.1867C75.4494 33.2475 76.7938 31.8608 78.7128 31.8608ZM79.9488 34.4067C79.9488 33.5617 79.385 33.0525 78.6695 33.0525C77.8888 33.0525 77.2275 33.6375 77.1407 34.4067H79.9488ZM82.3016 37.0608C83.1039 36.9525 83.646 36.2808 83.646 34.0167V32.0125H88.3081V38.4042H86.7143V33.3125H85.1639V34.0275C85.1639 36.8117 84.4266 38.4042 82.3124 38.4692V37.0717L82.3016 37.0608ZM92.8618 31.8608C94.6941 31.8608 95.6916 33.2042 95.6916 34.8833C95.6916 35.1 95.6699 35.295 95.6482 35.5117H91.268C91.333 36.5083 92.2004 37.2558 93.187 37.1908C93.8593 37.1692 94.5098 36.9092 95.0194 36.4758L95.6482 37.6242C94.9109 38.2092 94.011 38.5342 93.0786 38.5342C90.9644 38.5342 89.62 37.0067 89.62 35.1867C89.5983 33.2475 90.9427 31.8608 92.8618 31.8608ZM94.0978 34.4067C94.0761 33.5617 93.534 33.0525 92.8184 33.0525C92.0378 33.0525 91.3764 33.6375 91.2897 34.4067H94.0978ZM97.036 32.0342H98.6298V34.4717H99.4104L100.961 32.0342H102.728L100.701 35.0783V35.1L102.988 38.4258H101.156L99.4755 35.8367H98.6515V38.4258H97.0577V32.0342H97.036Z" fill="#2D3540"/>
<path d="M72.8264 9.67417V24.7758C72.8264 24.9925 72.6529 25.1875 72.4144 25.1875H69.3244C69.1076 25.1875 68.9124 25.0142 68.9124 24.7758V9.67417C68.9124 9.4575 69.0859 9.2625 69.3244 9.2625H72.4144C72.6313 9.2625 72.8264 9.43583 72.8264 9.67417ZM96.8851 9.2625H93.4264C93.2529 9.2625 93.0795 9.3925 93.0361 9.56583L90.2931 18.4817L87.2898 9.54417C87.2247 9.37083 87.0729 9.2625 86.8995 9.2625H84.4817C84.3082 9.2625 84.1564 9.37083 84.0914 9.54417L81.0881 18.4817L78.3667 9.54417C78.3234 9.37083 78.1499 9.24083 77.9764 9.24083H74.5178C74.3877 9.24083 74.2576 9.30583 74.1708 9.41417C74.0841 9.5225 74.0624 9.6525 74.1058 9.7825L79.2016 24.8842C79.2666 25.0575 79.4184 25.1658 79.5919 25.1658H82.3349C82.5084 25.1658 82.6602 25.0575 82.7253 24.8842L85.7068 16.055L88.6884 24.8842C88.7535 25.0575 88.9053 25.1658 89.0787 25.1658H91.8218C91.9953 25.1658 92.1471 25.0575 92.2121 24.8842L97.3079 9.7825C97.3513 9.6525 97.3296 9.5225 97.2428 9.41417C97.1344 9.30583 97.0043 9.24083 96.8742 9.2625H96.8851ZM102.089 9.2625H98.9993C98.7824 9.2625 98.5873 9.43583 98.5873 9.67417V24.7758C98.5873 24.9925 98.7607 25.1875 98.9993 25.1875H102.089C102.306 25.1875 102.501 25.0142 102.501 24.7758V9.67417C102.501 9.43583 102.306 9.2625 102.089 9.2625ZM67.1235 24.6675C67.2536 24.7758 67.2536 24.9708 67.1452 25.1008C67.0801 25.1658 66.9717 25.2092 66.8849 25.2092H63.1011C62.9493 25.2092 62.7975 25.1442 62.7107 25.0142L62.0602 24.2342C58.1896 26.7367 53.0071 25.61 50.5025 21.7533C47.998 17.8967 49.1256 12.7075 52.9854 10.205C56.856 7.7025 62.0385 8.82917 64.5431 12.6858C66.3103 15.4267 66.332 18.9692 64.5431 21.7317L67.1126 24.6675H67.1235ZM59.6099 21.2983L57.9511 19.2942C57.8426 19.1642 57.8643 18.9475 57.9944 18.8392C58.0595 18.7958 58.1245 18.7742 58.1896 18.7742H61.6699C61.8434 18.2758 61.9301 17.7342 61.9301 17.225C61.9301 14.7225 60.0761 12.5883 57.5282 12.5883C54.9803 12.5667 53.1263 14.7225 53.1263 17.2033C53.1263 19.6842 54.9803 21.8183 57.5282 21.8183C58.2655 21.8183 58.9919 21.645 59.6207 21.2983H59.6099ZM35.5946 31.98C35.2911 31.8283 34.9007 31.915 34.7273 32.2183C34.5104 32.63 34.6622 33.4533 35.1176 34.1575C35.5729 34.8617 35.9849 35.2408 36.2885 35.2408C36.5921 35.2408 36.8523 34.8725 36.7222 33.9625C36.6788 33.4425 36.3753 32.2833 35.5946 31.98ZM31.0409 35.3492C30.6723 35.3275 30.3037 35.4792 30.0652 35.7608C29.5231 36.4325 29.7616 37.6133 30.6073 38.3283C30.9976 38.6533 31.4963 38.8267 32.0059 38.8267C32.4829 38.8483 32.9383 38.6533 33.2419 38.285C33.7189 37.635 33.4587 36.7142 32.5263 35.9342C32.1143 35.5875 31.5939 35.3708 31.0409 35.3492ZM20.5892 44.005C9.20495 44.005 0 34.7967 0 23.4217C0 12.0467 9.22663 2.86 20.6 2.86C31.9734 2.86 41.1783 12.0792 41.1783 23.4433C41.1783 27.1592 40.1592 30.7992 38.2618 33.995C38.2184 34.06 38.1534 34.0817 38.0883 34.0383C38.0449 34.0167 38.0233 33.9733 38.0233 33.9517C37.3077 28.9033 34.2177 26.0975 29.7291 25.2742C29.3387 25.2092 29.2737 24.9708 29.7724 24.9275C31.2144 24.7975 32.6673 24.8192 34.0876 25.0142C34.1526 24.4942 34.1743 23.9525 34.1743 23.4433C34.1743 15.9358 28.0811 9.8475 20.5675 9.8475C13.0539 9.8475 6.97147 15.9358 6.97147 23.4433C6.97147 30.9508 13.0647 37.0392 20.5783 37.0392H21.2288C21.012 35.8258 20.9253 34.6017 20.9686 33.3667C21.012 32.5217 21.1638 32.4133 21.5541 33.0633C23.4298 36.3025 26.1295 39.26 31.3987 40.4192C35.6922 41.3725 39.9965 42.4883 44.6586 48.36C45.0706 48.88 44.4418 49.4 43.9647 48.9883C39.2159 44.8067 34.9333 43.4417 30.9867 43.4417C26.6065 43.42 23.6033 44.005 20.5783 44.005H20.5892Z" fill="#FF8C00"/>
</svg>
