
<svg width="14" height="14" viewBox="0 0 14 14" fill="none" xmlns="http://www.w3.org/2000/svg">
    <path fill-rule="evenodd" clip-rule="evenodd" d="M2.4375 1.16675C2.67912 1.16675 2.875 1.36262 2.875 1.60425V1.75008H9C9.64433 1.75008 10.1667 2.27242 10.1667 2.91675L10.1667 4.08341L10.1667 7.00008C10.1667 7.00058 10.1667 7.00109 10.1667 7.00159V7.43758C10.1667 7.84029 9.84021 8.16675 9.4375 8.16675H9.00185C9.00123 8.16675 9.00062 8.16675 9 8.16675H2.875V12.3959C2.875 12.6375 2.67912 12.8334 2.4375 12.8334C2.19588 12.8334 2 12.6375 2 12.3959V8.16675V1.75008V1.60425C2 1.36262 2.19588 1.16675 2.4375 1.16675ZM4.33333 9.33341V9.04175H9.4375C10.3235 9.04175 11.0417 8.32354 11.0417 7.43758V4.08341H11.3333C11.9777 4.08341 12.5 4.60575 12.5 5.25008V9.33341C12.5 9.97775 11.9777 10.5001 11.3333 10.5001H5.5C4.85567 10.5001 4.33333 9.97775 4.33333 9.33341Z" fill="#808191"/>
</svg>
