<svg width="96" height="49" viewBox="0 0 96 49" fill="none" xmlns="http://www.w3.org/2000/svg">
<path d="M83.0105 13.9869V25.9666H78.8026V17.5631H74.7509V25.9666H70.543V13.9861H83.0105V13.9869Z" fill="black"/>
<path fill-rule="evenodd" clip-rule="evenodd" d="M61.9024 26.3949C65.6693 26.3949 68.4666 24.047 68.4666 20.4876C68.4666 17.0425 66.4028 14.8056 62.9536 14.8056C61.3618 14.8056 60.0483 15.3753 59.059 16.3581C59.2952 14.3267 60.985 12.8436 62.8456 12.8436C63.2749 12.8436 66.5076 12.8366 66.5076 12.8366L68.3356 9.28047C68.3356 9.28047 64.2771 9.37439 62.3905 9.37439C58.0797 9.45075 55.168 13.434 55.168 18.272C55.168 23.9082 58.0078 26.3949 61.9024 26.3949ZM61.9253 17.9555C63.324 17.9555 64.2936 18.8898 64.2936 20.4872C64.2936 21.9249 63.432 23.1095 61.9253 23.1128C60.4841 23.1128 59.5145 22.0152 59.5145 20.5117C59.5145 18.9139 60.4841 17.9555 61.9253 17.9555Z" fill="black"/>
<path d="M51.7434 21.956C51.7434 21.956 50.7496 22.5382 49.2654 22.6485C47.5591 22.6999 46.0388 21.6044 46.0388 19.6579C46.0388 17.7591 47.3804 16.6709 49.2225 16.6709C50.352 16.6709 51.8462 17.4667 51.8462 17.4667C51.8462 17.4667 52.9396 15.4271 53.5059 14.4071C52.4688 13.608 51.0874 13.1698 49.4807 13.1698C45.4258 13.1698 42.2852 15.8575 42.2852 19.6338C42.2852 23.4582 45.2371 26.0834 49.4807 26.0042C50.6669 25.9593 52.3033 25.5358 53.3007 24.8845L51.7434 21.956Z" fill="black"/>
<path d="M0 10.6657L5.83712 21.2721V27.7418L0.00682845 38.3274L0 10.6657Z" fill="#5B57A2"/>
<path d="M22.4121 17.4126L27.8817 14.0046L39.0755 13.994L22.4121 24.3714V17.4126Z" fill="#D90751"/>
<path d="M22.3804 10.6032L22.4113 24.6458L16.5605 20.9912V0L22.3804 10.6032Z" fill="#FAB718"/>
<path d="M39.0748 13.994L27.8805 14.0046L22.3804 10.6032L16.5605 0L39.0748 13.994Z" fill="#ED6F26"/>
<path d="M22.4113 38.3862V31.5731L16.5605 27.988L16.5638 49L22.4113 38.3862Z" fill="#63B22F"/>
<path d="M27.8681 35.0093L5.83672 21.2721L0 10.6657L39.0519 34.9954L27.8681 35.0093Z" fill="#1487C9"/>
<path d="M16.5664 49L22.4132 38.3862L27.8691 35.0093L39.0529 34.9954L16.5664 49Z" fill="#017F36"/>
<path d="M0.00585938 38.3274L16.6082 27.9884L11.0266 24.5069L5.83615 27.7418L0.00585938 38.3274Z" fill="#984995"/>
<path d="M46.038 34.0292C45.9094 34.1958 45.7403 34.3215 45.5375 34.4064C45.3294 34.4926 45.1067 34.5364 44.882 34.5355C44.6585 34.5386 44.4363 34.5007 44.226 34.4236C44.0372 34.3539 43.8646 34.2452 43.7191 34.1043C43.5755 33.9632 43.4627 33.7929 43.3881 33.6045C43.3074 33.3981 43.2672 33.1777 43.2696 32.9556C43.2696 32.7351 43.307 32.531 43.3845 32.3374C43.4588 32.1435 43.5669 31.9773 43.7022 31.8376C43.8376 31.6951 43.9999 31.5865 44.1822 31.5016C44.3682 31.4199 44.5711 31.3758 44.794 31.3758C45.0342 31.3758 45.2571 31.4064 45.46 31.4673C45.6628 31.5285 45.8351 31.6306 45.9769 31.7735L45.7303 32.1982C45.611 32.0883 45.4705 32.0048 45.3178 31.9532C45.1726 31.9056 45.0209 31.8816 44.8683 31.8821C44.7333 31.8821 44.6048 31.9091 44.4799 31.9601C44.3568 32.0105 44.2443 32.0844 44.1485 32.1778C44.0506 32.2738 43.9734 32.3895 43.922 32.5175C43.8645 32.6498 43.8376 32.796 43.8376 32.9589C43.8376 33.1255 43.8677 33.275 43.9252 33.404C43.983 33.5367 44.0605 33.649 44.1585 33.7437C44.2565 33.8393 44.3714 33.9103 44.5032 33.9581C44.6353 34.0091 44.7739 34.0328 44.9225 34.0328C45.1049 34.0328 45.2708 33.9953 45.4126 33.9238C45.5531 33.8548 45.6793 33.7592 45.7845 33.6421L46.038 34.0292ZM46.7341 34.464V31.4403H47.2683V33.6931L49.0055 31.4403H49.5398V34.4644H49.0055V32.2117L47.2683 34.4644L46.7341 34.464ZM53.0785 34.0292C52.9471 34.1972 52.7747 34.3272 52.5784 34.4064C52.3702 34.4925 52.1473 34.5364 51.9225 34.5355C51.6991 34.5385 51.4771 34.5006 51.267 34.4236C51.078 34.3539 50.9053 34.2452 50.7596 34.1043C50.616 33.9632 50.5032 33.7929 50.4287 33.6045C50.348 33.3981 50.3077 33.1777 50.3102 32.9556C50.3102 32.7351 50.3475 32.531 50.4251 32.3374C50.4998 32.1435 50.6078 31.9773 50.7428 31.8376C50.8781 31.6951 51.0404 31.5865 51.2228 31.5016C51.4154 31.4153 51.6241 31.3724 51.8345 31.3758C52.0747 31.3758 52.2977 31.4064 52.5005 31.4673C52.7033 31.5285 52.8757 31.6306 53.0179 31.7735L52.7708 32.1982C52.6517 32.0882 52.5114 32.0048 52.3587 31.9532C52.2135 31.9056 52.0618 31.8817 51.9092 31.8821C51.6407 31.883 51.3829 31.9889 51.189 32.1778C51.092 32.2745 51.015 32.39 50.9625 32.5175C50.905 32.6498 50.8781 32.796 50.8781 32.9589C50.8781 33.1255 50.9087 33.275 50.9661 33.404C51.0235 33.5367 51.1011 33.649 51.1991 33.7437C51.2971 33.8393 51.4124 33.9103 51.5441 33.9581C51.6759 34.0055 51.8144 34.0328 51.9631 34.0328C52.1458 34.0328 52.3081 33.9953 52.4531 33.9238C52.5936 33.8548 52.7199 33.7592 52.8251 33.6421L53.0785 34.0292ZM53.3524 31.4403H56.0935V31.9773H54.9917V34.464H54.4575V31.9773H53.3557V31.4403H53.3524Z" fill="black"/>
<path fill-rule="evenodd" clip-rule="evenodd" d="M58.5904 34.4338C58.7932 34.3693 58.9655 34.2705 59.1142 34.1349L58.9519 33.7135C58.8539 33.8021 58.7221 33.8768 58.5635 33.9381C58.4044 33.9993 58.2253 34.0296 58.0292 34.0296C57.7352 34.0296 57.4918 33.9516 57.299 33.7919C57.1066 33.6318 57.0018 33.4081 56.9781 33.1222H59.2901C59.3138 33.0169 59.3238 32.8981 59.3238 32.7588C59.3238 32.5514 59.2865 32.3648 59.2122 32.1949C59.143 32.03 59.0419 31.8808 58.9149 31.7564C58.7862 31.6331 58.6344 31.5373 58.4687 31.4746C58.2952 31.4062 58.1105 31.3715 57.9244 31.3725C57.6742 31.3725 57.4544 31.4166 57.262 31.4983C57.0801 31.5761 56.9156 31.6906 56.7784 31.8348C56.6452 31.9782 56.5429 32.1483 56.478 32.3342C56.4066 32.5321 56.371 32.7416 56.3731 32.9524C56.3731 33.1904 56.4137 33.4077 56.488 33.6016C56.5603 33.7895 56.6709 33.9597 56.8126 34.101C56.9511 34.2398 57.1198 34.3456 57.3195 34.4203C57.5332 34.4974 57.7587 34.5353 57.9855 34.5322C58.1908 34.5309 58.3948 34.4975 58.5904 34.4338ZM57.2383 32.1063C57.4038 31.9536 57.6235 31.8789 57.9007 31.8789C58.161 31.8789 58.3707 31.9503 58.5229 32.0932C58.6751 32.2357 58.7559 32.433 58.7695 32.6841H56.9443C56.9702 32.4618 57.0747 32.2561 57.2383 32.1063Z" fill="black"/>
<path d="M60.0488 31.4403H60.5357L61.6917 32.9389L62.7866 31.4403H63.2598V34.4644H62.726V32.2594L61.6848 33.6625H61.6644L60.583 32.259V34.464H60.0488V31.4403Z" fill="black"/>
<path fill-rule="evenodd" clip-rule="evenodd" d="M64.7125 31.4505C64.5504 31.4936 64.3955 31.561 64.253 31.6506L64.3948 32.0794C64.5165 32.0181 64.6382 31.9671 64.7599 31.923C64.8816 31.8785 65.037 31.858 65.223 31.858C65.3716 31.858 65.4901 31.8821 65.5813 31.9295C65.6725 31.9736 65.74 32.0418 65.7874 32.1235C65.8348 32.2051 65.8653 32.3068 65.8822 32.4256C65.899 32.5445 65.9059 32.6735 65.9059 32.8131C65.7966 32.7357 65.6719 32.6834 65.5407 32.66C65.4138 32.6344 65.2849 32.6207 65.1555 32.6192C64.9965 32.6192 64.8478 32.6433 64.7057 32.6837C64.5639 32.7245 64.4422 32.7858 64.3441 32.8674C64.2441 32.949 64.1633 33.0522 64.1076 33.1696C64.048 33.2981 64.0179 33.4387 64.0196 33.5808C64.0196 33.8764 64.1043 34.1076 64.2731 34.2709C64.4422 34.4338 64.6651 34.5151 64.9422 34.5151C65.1925 34.5151 65.3921 34.471 65.5439 34.3828C65.6962 34.2942 65.8179 34.1925 65.9059 34.0769V34.4677H66.4059V32.6126C66.4059 32.2182 66.3216 31.9128 66.1493 31.6984C65.9802 31.4844 65.6793 31.3758 65.2535 31.3758C65.0639 31.3758 64.8848 31.4027 64.7125 31.4505ZM65.6054 33.9005C65.4837 33.9887 65.3246 34.0292 65.1286 34.0292C64.9563 34.0292 64.8209 33.9851 64.7265 33.9001C64.6317 33.8119 64.5844 33.6964 64.5844 33.5534C64.5844 33.4689 64.6012 33.3975 64.6386 33.3329C64.6759 33.2684 64.7265 33.2174 64.784 33.1766C64.8468 33.1338 64.9166 33.1027 64.99 33.0847C65.068 33.0643 65.1455 33.0541 65.2266 33.0541C65.4905 33.0541 65.7167 33.1186 65.9026 33.2545V33.6384C65.815 33.7382 65.7151 33.8266 65.6054 33.9005ZM71.1216 30.3766C71.2296 30.326 71.3309 30.241 71.4257 30.1153L71.1348 29.6906C71.0605 29.7927 70.9762 29.8637 70.8814 29.9013C70.7809 29.9412 70.6768 29.9708 70.5705 29.9895L70.4693 30.0079C70.3813 30.0234 70.2869 30.0406 70.1853 30.0577C70.0223 30.0883 69.8635 30.1385 69.7121 30.2072C69.4719 30.3125 69.2795 30.455 69.1341 30.6351C68.9887 30.8152 68.8738 31.0189 68.7959 31.2435C68.717 31.471 68.6637 31.7069 68.6372 31.9467C68.6099 32.1917 68.5967 32.4256 68.5967 32.6498C68.5967 32.9389 68.6336 33.2002 68.7079 33.4346C68.7826 33.6694 68.8871 33.8662 69.0257 34.0259C69.1642 34.1892 69.3301 34.3117 69.5261 34.3999C69.7222 34.4881 69.9419 34.5322 70.1885 34.5322C70.415 34.5322 70.6247 34.4881 70.8139 34.4064C70.9963 34.328 71.1617 34.2138 71.3007 34.0704C71.4357 33.9307 71.5441 33.7641 71.6185 33.5775C71.696 33.3905 71.7333 33.19 71.7333 32.9793C71.7333 32.7519 71.6996 32.5449 71.6353 32.3611C71.5761 32.1859 71.4818 32.0252 71.3582 31.8891C71.2343 31.7552 71.0831 31.6507 70.9151 31.5828C70.7301 31.5087 70.5327 31.4719 70.3339 31.4742C70.2054 31.4742 70.0804 31.4914 69.9587 31.5252C69.8404 31.5592 69.7267 31.6083 69.6205 31.6714C69.5175 31.7314 69.4232 31.8056 69.3402 31.8919C69.259 31.9773 69.1915 32.0724 69.1441 32.181H69.1305C69.1409 32.0418 69.1578 31.8993 69.1879 31.7531C69.2185 31.6069 69.2622 31.4673 69.3201 31.335C69.3775 31.2027 69.4518 31.0834 69.543 30.9748C69.6408 30.8652 69.7607 30.7783 69.8945 30.72C70.0416 30.6488 70.1973 30.5974 70.3576 30.5673L70.4636 30.5477C70.5693 30.5281 70.6701 30.5093 70.7665 30.4889C70.895 30.462 71.0131 30.4272 71.1216 30.3766ZM69.2422 33.2819C69.1899 33.1104 69.1648 32.9314 69.1678 32.7519C69.1905 32.6488 69.2318 32.5509 69.2896 32.4632C69.347 32.3713 69.4213 32.2901 69.5093 32.2182C69.7078 32.0601 69.9532 31.9752 70.2054 31.9773C70.5199 31.9773 70.7565 32.0757 70.922 32.2696C71.0878 32.4665 71.169 32.7111 71.169 33.0067C71.169 33.1529 71.1417 33.2856 71.0947 33.4077C71.049 33.5281 70.98 33.638 70.8917 33.7308C70.8035 33.8236 70.6978 33.8974 70.5809 33.9479C70.4592 34.0022 70.3271 34.0296 70.1785 34.0296C70.0298 34.0296 69.8945 33.9989 69.7696 33.9377C69.6454 33.8777 69.5357 33.7907 69.4482 33.6829C69.3566 33.5627 69.2868 33.427 69.2422 33.2819ZM75.83 31.4403H75.2958V34.4644H75.83V31.4403ZM72.5037 31.4403H73.038V32.3476H73.5316C73.7646 32.3476 73.9538 32.3783 74.106 32.4358C74.2583 32.4938 74.38 32.5718 74.4711 32.667C74.5623 32.7621 74.6266 32.8744 74.6639 32.9997C74.7009 33.1255 74.7214 33.2545 74.7214 33.3905C74.7214 33.5265 74.7009 33.6559 74.6571 33.785C74.6166 33.914 74.5455 34.0259 74.4507 34.128C74.3563 34.23 74.2277 34.3117 74.0655 34.373C73.9032 34.4338 73.7072 34.4677 73.4706 34.4677H72.5005V31.4403H72.5037ZM73.038 32.8536V33.9614H73.4268C73.6939 33.9614 73.8831 33.914 73.9911 33.8185C74.0996 33.7233 74.1534 33.5877 74.1534 33.4077C74.1534 33.2239 74.096 33.0851 73.9879 32.9895C73.8763 32.8944 73.6903 32.8466 73.4336 32.8466H73.038V32.8536Z" fill="black"/>
<path d="M79.3641 34.0292C79.2356 34.1958 79.0665 34.3215 78.8637 34.4064C78.6555 34.4925 78.4328 34.5364 78.2081 34.5355C77.9846 34.5386 77.7624 34.5007 77.5522 34.4236C77.3633 34.354 77.1907 34.2452 77.0453 34.1043C76.9016 33.9631 76.7887 33.7928 76.7139 33.6045C76.6335 33.398 76.5934 33.1777 76.5958 32.9556C76.5958 32.7351 76.6328 32.531 76.7107 32.3374C76.785 32.1435 76.893 31.9773 77.0284 31.8376C77.1638 31.6951 77.3256 31.5865 77.5084 31.5016C77.701 31.4153 77.9097 31.3724 78.1202 31.3758C78.36 31.3758 78.5833 31.4064 78.7861 31.4673C78.989 31.5285 79.1613 31.6306 79.3031 31.7735L79.0565 32.1982C78.9372 32.0883 78.7967 32.0048 78.6439 31.9532C78.4987 31.9056 78.347 31.8816 78.1945 31.8821C78.0595 31.8821 77.931 31.9091 77.8056 31.9601C77.6827 32.0105 77.5703 32.0844 77.4747 32.1778C77.3775 32.2744 77.3004 32.3899 77.2481 32.5175C77.1907 32.6498 77.1638 32.796 77.1638 32.9589C77.1638 33.1255 77.1939 33.275 77.2513 33.404C77.3088 33.5367 77.3867 33.649 77.4847 33.7437C77.5827 33.8393 77.6976 33.9103 77.8294 33.9581C77.9615 34.0055 78.1001 34.0328 78.2487 34.0328C78.4311 34.0328 78.5933 33.9953 78.7387 33.9238C78.8792 33.8548 79.0055 33.7592 79.1107 33.6421L79.3641 34.0292ZM79.6377 31.4403H82.3791V31.9773H81.2769V34.464H80.7431V31.9773H79.6413V31.4403H79.6377Z" fill="black"/>
<path fill-rule="evenodd" clip-rule="evenodd" d="M83.4932 31.4407H82.959V35.8099H83.4932V34.3252C83.6013 34.3967 83.7298 34.4477 83.8784 34.4816C84.027 34.5155 84.1825 34.5322 84.3415 34.5322C84.5781 34.5322 84.791 34.4881 84.9838 34.4069C85.1687 34.3264 85.3363 34.2099 85.4771 34.0639C85.6157 33.9173 85.7205 33.7474 85.7948 33.5469C85.8691 33.3468 85.9065 33.1325 85.9065 32.905C85.9065 32.6804 85.8727 32.4734 85.8085 32.2864C85.7479 32.1088 85.6538 31.9449 85.5313 31.8041C85.4111 31.6668 85.262 31.5588 85.0951 31.4881C84.9126 31.4084 84.7156 31.369 84.5171 31.3725C84.3078 31.3725 84.1118 31.4134 83.9258 31.495C83.7398 31.5767 83.5944 31.6747 83.4932 31.7972V31.4407ZM83.8652 32.0014C84.0174 31.9197 84.1829 31.8789 84.362 31.8789C84.5175 31.8789 84.6561 31.9026 84.7814 31.9536C84.9031 32.0046 85.0043 32.0761 85.0891 32.1712C85.1734 32.2664 85.2377 32.3754 85.2782 32.504C85.322 32.6331 85.3425 32.7727 85.3425 32.9254C85.3425 33.0888 85.3152 33.2345 85.2682 33.3705C85.2239 33.4994 85.1536 33.6175 85.0617 33.7172C84.9695 33.8157 84.8578 33.8932 84.734 33.9446C84.5959 34.0034 84.4474 34.0323 84.2978 34.0296C84.1528 34.0296 84.0174 34.0128 83.8889 33.9789C83.7481 33.94 83.6146 33.8779 83.4936 33.7952V32.2966C83.588 32.1814 83.7133 32.083 83.8652 32.0014ZM90.0031 31.4403H89.4689V34.4644H90.0031V31.4403ZM86.6737 31.4403H87.2079V32.3476H87.7011C87.9345 32.3476 88.1237 32.3783 88.2759 32.4358C88.4282 32.4938 88.5499 32.5718 88.6411 32.667C88.7322 32.7621 88.7965 32.8744 88.8335 32.9997C88.8708 33.1255 88.8909 33.2545 88.8909 33.3905C88.8909 33.5265 88.8708 33.6559 88.827 33.785C88.7865 33.914 88.7154 34.0259 88.6206 34.128C88.5262 34.23 88.3976 34.3117 88.2354 34.373C88.0731 34.4338 87.8771 34.4677 87.6405 34.4677H86.6705V31.4403H86.6737ZM87.2115 32.8536V33.9614H87.6003C87.867 33.9614 88.0566 33.914 88.1647 33.8185C88.2727 33.7233 88.327 33.5877 88.327 33.4077C88.327 33.2239 88.2695 33.0851 88.1615 32.9895C88.0498 32.8944 87.8638 32.8466 87.6072 32.8466H87.2115V32.8536Z" fill="black"/>
<path d="M92.5665 32.8981L93.7088 34.4644H93.0533L92.1708 33.2411L91.2751 34.4644H90.6533L91.7888 32.925L90.7208 31.4403H91.3767L92.1913 32.582L93.0192 31.4403H93.6414L92.5665 32.8981ZM45.6442 38.2019H44.0049V40.723H43.4707V37.6992H46.178V40.723H45.6442V38.2019ZM49.2098 38.2358H48.1554L48.1213 38.7454C48.0843 39.177 48.0337 39.5237 47.9626 39.7883C47.8915 40.0537 47.8036 40.2575 47.7023 40.4C47.6011 40.5429 47.4826 40.6413 47.3473 40.6891C47.2076 40.7405 47.06 40.7659 46.9114 40.7638L46.8709 40.2403C46.9283 40.2436 46.9958 40.2301 47.0701 40.1962C47.1448 40.1623 47.2191 40.0876 47.2898 39.9757C47.3609 39.8597 47.4252 39.6968 47.4826 39.4861C47.5401 39.2721 47.5774 38.9937 47.5975 38.6433L47.6517 37.7021H49.744V40.7262H49.2098V38.2358Z" fill="black"/>
<path fill-rule="evenodd" clip-rule="evenodd" d="M51.1851 37.7062C51.0124 37.7536 50.857 37.8213 50.7252 37.9063L50.8674 38.3346C50.9891 38.2734 51.1108 38.2223 51.2321 38.1782C51.3539 38.1341 51.5097 38.1137 51.6953 38.1137C51.8443 38.1137 51.9624 38.1374 52.0536 38.1848C52.1451 38.2293 52.2126 38.297 52.26 38.3787C52.307 38.4604 52.3375 38.5625 52.3544 38.6809C52.3713 38.8001 52.3781 38.9291 52.3781 39.0684C52.2688 38.9911 52.1442 38.939 52.013 38.9157C51.8861 38.89 51.7572 38.8763 51.6278 38.8748C51.4691 38.8748 51.3201 38.8985 51.1783 38.9394C51.0361 38.9802 50.9144 39.0414 50.8164 39.1231C50.7164 39.2046 50.6355 39.3079 50.5798 39.4253C50.5204 39.5538 50.4905 39.6944 50.4923 39.8365C50.4923 40.1317 50.5766 40.3632 50.7457 40.5261C50.9144 40.6891 51.1378 40.7707 51.4149 40.7707C51.6651 40.7707 51.8644 40.7266 52.0166 40.638C52.1684 40.5498 52.2902 40.4477 52.3781 40.3322V40.723H52.8786V38.8679C52.8786 38.4739 52.7939 38.168 52.6215 37.954C52.4524 37.7397 52.1516 37.6315 51.7258 37.6315C51.5431 37.6316 51.3613 37.657 51.1851 37.7062ZM52.0809 40.1554C51.9596 40.244 51.8005 40.2848 51.6045 40.2848C51.4286 40.2848 51.2968 40.2407 51.2024 40.1554C51.1076 40.0672 51.0602 39.9516 51.0602 39.8091C51.0602 39.7242 51.0771 39.6527 51.1145 39.5882C51.1514 39.5237 51.2024 39.4726 51.2599 39.4318C51.3173 39.391 51.388 39.3603 51.4659 39.3399C51.5432 39.3196 51.6227 39.3095 51.7025 39.3097C51.966 39.3097 52.1925 39.3742 52.3785 39.5098V39.8936C52.2907 39.9935 52.1907 40.0814 52.0809 40.1554Z" fill="black"/>
<path d="M53.4004 37.6992H56.1418V38.2358H55.0396V40.723H54.5058V38.2362H53.404V37.6992H53.4004Z" fill="black"/>
<path fill-rule="evenodd" clip-rule="evenodd" d="M58.6357 40.6923C58.8385 40.6278 59.0108 40.529 59.1595 40.3934L58.9972 39.972C58.8992 40.0606 58.7674 40.1354 58.6084 40.1966C58.4497 40.2579 58.2706 40.2881 58.0745 40.2881C57.7805 40.2881 57.5371 40.2101 57.3443 40.0504C57.1515 39.8908 57.0471 39.6666 57.0234 39.3808H59.3354C59.3587 39.2758 59.3691 39.1566 59.3691 39.0174C59.3691 38.8103 59.3318 38.6233 59.2575 38.4534C59.1883 38.2885 59.087 38.1395 58.9598 38.0153C58.8313 37.8918 58.6797 37.7958 58.514 37.7331C58.3405 37.6647 58.1558 37.6301 57.9697 37.6311C57.7195 37.6311 57.4997 37.6752 57.3073 37.7568C57.1253 37.8344 56.9608 37.9489 56.8237 38.0933C56.6906 38.2368 56.5881 38.4069 56.5229 38.5927C56.4517 38.7907 56.4161 39.0001 56.418 39.2109C56.418 39.449 56.4586 39.6662 56.5329 39.8602C56.6076 40.0537 56.7189 40.2203 56.8575 40.3595C56.9961 40.4988 57.1652 40.6041 57.3648 40.6789C57.5784 40.7561 57.8037 40.7941 58.0304 40.7912C58.23 40.7912 58.4328 40.7569 58.6357 40.6923ZM57.2804 38.3616C57.4459 38.2089 57.6656 38.1341 57.9428 38.1341C58.2067 38.1341 58.4128 38.2089 58.565 38.3481C58.7168 38.491 58.798 38.6878 58.8116 38.9394H56.9864C57.0122 38.7169 57.1167 38.5115 57.2804 38.3616ZM59.6294 37.6993H60.3054L61.3361 39.157L60.2343 40.723H59.5788L60.7344 39.1566L59.6294 37.6993ZM61.4679 37.6993H62.0021V40.723H61.4679V37.6993ZM63.9117 40.723L62.7356 39.1566L63.8341 37.6988H63.1714L62.1339 39.1566L63.2493 40.723H63.9117ZM66.3522 40.6923C66.5551 40.6278 66.7274 40.529 66.876 40.3934L66.7137 39.972C66.6157 40.0606 66.484 40.1354 66.3253 40.1966C66.1663 40.2579 65.9871 40.2881 65.7911 40.2881C65.4971 40.2881 65.2537 40.2101 65.0609 40.0504C64.8685 39.8908 64.7636 39.6666 64.7399 39.3808H67.0519C67.0756 39.2758 67.0857 39.1566 67.0857 39.0174C67.0857 38.8103 67.0487 38.6233 66.974 38.4534C66.9048 38.2886 66.8037 38.1396 66.6768 38.0153C66.5482 37.8918 66.3964 37.7958 66.2305 37.7331C66.057 37.6647 65.8724 37.6301 65.6863 37.6311C65.4364 37.6311 65.2167 37.6752 65.0239 37.7568C64.8421 37.8345 64.6777 37.949 64.5407 38.0933C64.4072 38.2366 64.3048 38.4067 64.2398 38.5927C64.1684 38.7906 64.1329 39.0001 64.135 39.2109C64.135 39.449 64.1756 39.6662 64.2499 39.8602C64.3242 40.0537 64.4358 40.2203 64.5744 40.3595C64.713 40.4988 64.8817 40.6041 65.0813 40.6789C65.295 40.756 65.5205 40.7941 65.7473 40.7912C65.9527 40.7896 66.1567 40.7563 66.3522 40.6923ZM64.997 38.3616C65.1629 38.2089 65.3826 38.1341 65.6597 38.1341C65.92 38.1341 66.1293 38.2089 66.2815 38.3481C66.4338 38.491 66.5149 38.6878 66.5282 38.9394H64.703C64.7287 38.7169 64.8332 38.5115 64.997 38.3616ZM69.2527 36.6833C68.9382 36.6833 68.7659 36.5065 68.739 36.1533H68.2353C68.2353 36.2889 68.259 36.4114 68.3028 36.5269C68.3469 36.6425 68.4112 36.7409 68.4956 36.8226C68.5799 36.9042 68.6884 36.9687 68.8133 37.0194C68.9382 37.0704 69.0836 37.0941 69.2491 37.0941C69.4013 37.0941 69.5367 37.0704 69.6584 37.0194C69.7801 36.972 69.8813 36.9042 69.9693 36.8226C70.0537 36.7409 70.1215 36.6425 70.1685 36.5269C70.2159 36.4114 70.2396 36.2889 70.2396 36.1533H69.7396C69.7159 36.5065 69.55 36.6833 69.2527 36.6833ZM67.8091 37.6988V40.723H68.3433L70.0806 38.4702V40.723H70.6148V37.6988H70.0806L68.3433 39.9516V37.6988H67.8091Z" fill="black"/>
</svg>
