<?xml version="1.0" encoding="utf-8"?><svg viewBox="0 0 109 84" xmlns="http://www.w3.org/2000/svg" xmlns:xlink="http://www.w3.org/1999/xlink"><style>:root>svg{display:none}:root>svg:target{display:block}</style><svg fill="none" viewBox="0 0 14 14" id="alarm" xmlns="http://www.w3.org/2000/svg"><path fill-rule="evenodd" clip-rule="evenodd" d="M4.373 2.15a.438.438 0 00-.35-.8 7.465 7.465 0 00-3.22 2.704.437.437 0 00.728.484 6.59 6.59 0 012.842-2.387zm5.604-.8a.438.438 0 00-.35.8 6.59 6.59 0 012.842 2.388.438.438 0 10.729-.484 7.465 7.465 0 00-3.22-2.705zm1.101 9.54a5.25 5.25 0 10-8.157 0l-.97 1.73a.438.438 0 10.764.427l.841-1.5A5.23 5.23 0 007 12.832a5.23 5.23 0 003.443-1.287l.842 1.501a.438.438 0 00.763-.428l-.97-1.73zM7 4.23c.242 0 .437.195.437.437v2.682l1.556 1.037a.437.437 0 01-.486.728l-1.75-1.167a.438.438 0 01-.195-.364V4.667c0-.242.196-.438.438-.438z" fill="#808191"/></svg><svg fill="none" viewBox="0 0 34 34" id="analysis_icon" xmlns="http://www.w3.org/2000/svg"><path d="M9.916 19.833v4.25M15.584 17v7.083M21.25 19.833v4.25M26.916 17v7.083M2.833 2.833v24.334a4 4 0 004 4h24.334" stroke="#fff" stroke-width="2" stroke-linecap="round" stroke-linejoin="round"/><path d="M9.916 14.167l4.253-4.253a2 2 0 012.828 0l2.839 2.838a2 2 0 002.828 0L26.916 8.5" stroke="#fff" stroke-width="2" stroke-linecap="round" stroke-linejoin="round"/></svg><svg fill="none" viewBox="0 0 16 16" id="arrow_down" xmlns="http://www.w3.org/2000/svg"><path d="M4.667 6.667L8 9.333l3.333-2.666" stroke="#000" stroke-width="1.5" stroke-linecap="round" stroke-linejoin="round"/></svg><svg fill="none" viewBox="0 0 16 16" id="arrow_down2" xmlns="http://www.w3.org/2000/svg"><path d="M5.075 4.667h5.851a1 1 0 01.864 1.504l-2.926 5.015a1 1 0 01-1.727 0L4.21 6.17a1 1 0 01.864-1.504z" fill="#808191"/></svg><svg fill="none" viewBox="0 0 34 34" id="arrow_down_2" xmlns="http://www.w3.org/2000/svg"><path d="M9.917 14.166L17 19.834l7.083-5.666" stroke="#000" stroke-width="1.5" stroke-linecap="round" stroke-linejoin="round"/></svg><svg fill="none" viewBox="0 0 24 24" id="arrow_white" xmlns="http://www.w3.org/2000/svg"><path d="M7 10l5 4 5-4" stroke="#fff" stroke-width="1.5" stroke-linecap="round" stroke-linejoin="round"/></svg><svg fill="none" viewBox="0 0 34 34" id="bell_icon" xmlns="http://www.w3.org/2000/svg"><path d="M28.293 8.24l-.922.387.922-.386zm-.813.647a1 1 0 001.844-.774l-1.844.774zm-3.734-6.274a1 1 0 10-.743 1.857l.743-1.857zm-.134 1.023l-.372.929.372-.929zM5.775 8.241l.922.386-.922-.386zm-1.03-.128a1 1 0 001.844.774l-1.845-.774zm6.32-3.643a1 1 0 00-.743-1.857l.743 1.857zm-.608-.834l-.372-.928.372.928zm15.382 9.079l-.993.113.993-.113zm.634 5.582l.993-.113-.993.113zm-18.946 0l-.994-.113.994.113zm.634-5.582l.993.113-.993-.113zM6.3 21.069l-.762-.648.762.648zm21.398 0l-.762.648.762-.648zM20.216 6.196h-1a1 1 0 00.676.946l.324-.946zm-6.432 0l.324.946a1 1 0 00.676-.946h-1zm8.402 22.488a1 1 0 10-1.873-.702l1.873.702zm-8.5-.702a1 1 0 00-1.873.702l1.873-.702zM27.371 8.627l.109.26 1.844-.774-.109-.26-1.844.774zM23.003 4.47l.237.095.743-1.857-.237-.095-.743 1.857zm6.212 3.384a9.5 9.5 0 00-5.232-5.146l-.743 1.857a7.5 7.5 0 014.131 4.062l1.844-.773zm-24.362 0l-.109.26 1.845.773.108-.26-1.844-.773zm5.47-5.24l-.238.094.743 1.857.237-.095-.743-1.857zM6.696 8.626a7.5 7.5 0 014.131-4.062l-.742-1.857a9.5 9.5 0 00-5.233 5.146l1.844.773zM25.184 24.5H8.815v2h16.37v-2zm-.338-11.672l.633 5.581 1.987-.225-.633-5.582-1.987.226zM8.52 18.409l.633-5.581-1.987-.226-.634 5.582 1.988.225zm-1.459 3.308a6.179 6.179 0 001.459-3.308l-1.988-.225a4.18 4.18 0 01-.994 2.237l1.523 1.296zM25.48 18.41a6.178 6.178 0 001.458 3.308l1.523-1.296a4.18 4.18 0 01-.994-2.237l-1.987.225zM8.815 24.5c-.95 0-1.627-.47-1.941-1.024-.305-.537-.3-1.186.188-1.759L5.54 20.421c-1.066 1.252-1.098 2.82-.405 4.042.684 1.205 2.04 2.037 3.681 2.037v-2zm16.37 2c1.64 0 2.997-.832 3.68-2.037.694-1.223.661-2.79-.405-4.042l-1.523 1.296c.488.573.494 1.222.189 1.759-.315.554-.992 1.024-1.942 1.024v2zm-3.97-20.304V6.05h-2v.147h2zm5.618 6.406c-.393-3.457-2.958-6.21-6.293-7.352l-.648 1.892c2.734.936 4.663 3.124 4.954 5.686l1.987-.226zM14.784 6.196V6.05h-2v.147h2zm-5.63 6.632c.29-2.562 2.22-4.75 4.954-5.686L13.46 5.25c-3.335 1.142-5.9 3.895-6.293 7.352l1.987.226zM17 3.833c1.224 0 2.216.992 2.216 2.216h2A4.216 4.216 0 0017 1.833v2zm0-2a4.216 4.216 0 00-4.216 4.216h2c0-1.224.992-2.216 2.216-2.216v-2zm3.313 26.15c-.466 1.245-1.752 2.184-3.313 2.184v2c2.363 0 4.416-1.427 5.186-3.483l-1.873-.702zM17 30.166c-1.562 0-2.847-.94-3.314-2.185l-1.873.702c.771 2.056 2.824 3.483 5.187 3.483v-2z" fill="#fff"/></svg><svg fill="none" viewBox="0 0 34 34" id="calculator_icon" xmlns="http://www.w3.org/2000/svg"><path d="M11.333 8.5h11.333m5.667 17v-17a5.667 5.667 0 00-5.666-5.667H11.332A5.667 5.667 0 005.666 8.5v17a5.667 5.667 0 005.667 5.667h11.333a5.667 5.667 0 005.667-5.667z" stroke="#fff" stroke-width="2" stroke-linecap="round"/><path d="M12.396 14.167a1.063 1.063 0 11-2.125 0 1.063 1.063 0 012.125 0zM18.063 14.167a1.063 1.063 0 11-2.125 0 1.063 1.063 0 012.125 0zM23.73 14.167a1.063 1.063 0 11-2.126 0 1.063 1.063 0 012.125 0zM12.396 19.833a1.063 1.063 0 11-2.125 0 1.063 1.063 0 012.125 0zM18.063 19.833a1.063 1.063 0 11-2.125 0 1.063 1.063 0 012.125 0zM23.73 19.833a1.063 1.063 0 11-2.126 0 1.063 1.063 0 012.125 0zM12.396 25.5a1.063 1.063 0 11-2.125 0 1.063 1.063 0 012.125 0zM18.063 25.5a1.063 1.063 0 11-2.125 0 1.063 1.063 0 012.125 0zM23.73 25.5a1.063 1.063 0 11-2.126 0 1.063 1.063 0 012.125 0z" fill="#fff"/></svg><svg fill="none" viewBox="0 0 14 14" id="chart-down" xmlns="http://www.w3.org/2000/svg"><path d="M4.657 4.083h4.685a1 1 0 01.864 1.504L7.863 9.603a1 1 0 01-1.727 0L3.794 5.587a1 1 0 01.863-1.504z" fill="#DE3618"/></svg><svg fill="none" viewBox="0 0 14 14" id="chart-up" xmlns="http://www.w3.org/2000/svg"><path d="M4.657 9.917h4.685a1 1 0 00.864-1.504L7.863 4.397a1 1 0 00-1.727 0L3.794 8.413a1 1 0 00.863 1.504z" fill="#22C55E"/></svg><svg fill="none" viewBox="0 0 84 84" id="checkmark-1" xmlns="http://www.w3.org/2000/svg"><path d="M17.5 45.5l12.343 9.874a7 7 0 009.575-.783L66.5 24.5" stroke="#416FF4" stroke-width="6" stroke-linecap="round" stroke-linejoin="round"/></svg><svg fill="none" viewBox="0 0 32 32" id="close_icon" xmlns="http://www.w3.org/2000/svg"><path d="M21.657 10.343L10.344 21.657m11.313 0L10.344 10.343" stroke="#fff" stroke-width="1.5" stroke-linecap="round" stroke-linejoin="round"/></svg><svg fill="none" viewBox="0 0 109 66" id="cripto_logo" xmlns="http://www.w3.org/2000/svg"><path d="M.49 56.96c0-.607.107-1.2.322-1.778.215-.588.527-1.12.938-1.596.42-.485.929-.868 1.526-1.148.597-.29 1.274-.434 2.03-.434.896 0 1.67.205 2.324.616.653.401 1.139.92 1.456 1.554L7.854 55c-.187-.401-.425-.719-.714-.952a2.46 2.46 0 00-.924-.49 3.506 3.506 0 00-.966-.14c-.523 0-.98.107-1.372.322a3.04 3.04 0 00-.994.826 3.927 3.927 0 00-.602 1.162c-.13.43-.196.859-.196 1.288 0 .476.08.938.238 1.386.159.439.378.83.658 1.176.29.336.63.602 1.022.798a2.84 2.84 0 001.288.294c.317 0 .649-.056.994-.168.345-.112.663-.285.952-.518.299-.243.532-.56.7-.952l1.302.742a3.095 3.095 0 01-.966 1.26c-.43.345-.915.607-1.456.784a4.98 4.98 0 01-1.582.266c-.7 0-1.34-.145-1.918-.434a4.985 4.985 0 01-1.498-1.176 5.69 5.69 0 01-.98-1.652 5.221 5.221 0 01-.35-1.862zm14.12-.952c-.597.01-1.129.145-1.596.406-.457.261-.784.63-.98 1.106V62h-1.54v-7.322h1.428v1.638c.252-.504.584-.905.994-1.204.411-.308.845-.476 1.302-.504h.224c.066 0 .122.005.168.014v1.386zm1.373 7.714l.406.056c.14.028.252.042.336.042a.58.58 0 00.406-.154c.121-.093.242-.27.364-.532.121-.261.27-.64.448-1.134l-3.01-7.322h1.61l2.24 5.754 1.988-5.754h1.484l-3.318 9.016c-.103.27-.252.518-.448.742a2.024 2.024 0 01-.728.546c-.29.13-.63.196-1.022.196a2.3 2.3 0 01-.35-.028 4.564 4.564 0 01-.406-.084v-1.344zm11.562-1.582c-.588 0-1.106-.14-1.554-.42a3.135 3.135 0 01-1.064-1.092v4.354h-1.54V54.678h1.358v1.316c.28-.439.644-.789 1.092-1.05a2.918 2.918 0 011.498-.392c.504 0 .966.103 1.386.308.42.196.784.471 1.092.826.308.355.546.76.714 1.218.177.448.266.924.266 1.428 0 .7-.14 1.34-.42 1.918a3.419 3.419 0 01-1.148 1.386c-.485.336-1.045.504-1.68.504zm-.504-1.316c.327 0 .62-.07.882-.21.27-.14.5-.327.686-.56.196-.233.345-.5.448-.798a2.822 2.822 0 00-.014-1.876 2.273 2.273 0 00-.49-.784 2.292 2.292 0 00-.728-.532c-.27-.13-.57-.196-.896-.196-.196 0-.401.037-.616.112a2.446 2.446 0 00-.602.308c-.187.13-.35.285-.49.462a1.62 1.62 0 00-.294.56v1.918c.13.299.303.57.518.812.215.233.462.425.742.574.28.14.565.21.854.21zm9.101.798c-.13.065-.294.135-.49.21a4.85 4.85 0 01-.672.196 3.35 3.35 0 01-.755.084c-.318 0-.612-.056-.883-.168-.27-.112-.49-.29-.657-.532-.16-.252-.239-.574-.239-.966v-4.578h-.965v-1.19h.965V52.27h1.54v2.408h1.597v1.19h-1.596v4.088c.018.252.097.439.237.56.15.121.332.182.547.182.214 0 .42-.037.615-.112.197-.075.341-.135.434-.182l.322 1.218zm4.261.518c-.578 0-1.096-.098-1.553-.294a3.718 3.718 0 01-1.19-.84 3.858 3.858 0 01-.756-1.204 3.99 3.99 0 01-.267-1.456c0-.513.09-.999.267-1.456.177-.457.429-.859.755-1.204.337-.355.733-.63 1.19-.826a3.818 3.818 0 011.555-.308c.569 0 1.082.103 1.54.308.466.196.863.471 1.19.826.335.345.592.747.77 1.204.177.457.265.943.265 1.456s-.088.999-.265 1.456c-.178.448-.435.85-.77 1.204a3.526 3.526 0 01-1.19.84c-.458.196-.971.294-1.54.294zm-2.184-3.78c0 .467.099.887.294 1.26.197.373.458.667.785.882.326.215.695.322 1.105.322.402 0 .766-.107 1.093-.322.335-.224.601-.523.797-.896.197-.383.294-.803.294-1.26 0-.467-.098-.887-.294-1.26a2.282 2.282 0 00-.797-.882 1.888 1.888 0 00-1.093-.336c-.41 0-.779.112-1.105.336a2.439 2.439 0 00-.785.896c-.195.364-.294.784-.294 1.26zm10.341-1.4c0-.607.108-1.2.322-1.778.215-.588.528-1.12.938-1.596.42-.485.929-.868 1.526-1.148.598-.29 1.274-.434 2.03-.434.896 0 1.671.205 2.324.616.654.401 1.139.92 1.456 1.554L55.924 55c-.186-.401-.424-.719-.714-.952a2.46 2.46 0 00-.924-.49 3.506 3.506 0 00-.966-.14c-.522 0-.98.107-1.372.322-.392.205-.723.48-.994.826a3.928 3.928 0 00-.602 1.162c-.13.43-.196.859-.196 1.288 0 .476.08.938.238 1.386.159.439.378.83.658 1.176.29.336.63.602 1.022.798a2.84 2.84 0 001.288.294c.318 0 .649-.056.994-.168.346-.112.663-.285.952-.518.299-.243.532-.56.7-.952l1.302.742a3.094 3.094 0 01-.966 1.26c-.429.345-.914.607-1.456.784a4.98 4.98 0 01-1.582.266c-.7 0-1.339-.145-1.918-.434a4.985 4.985 0 01-1.498-1.176 5.69 5.69 0 01-.98-1.652 5.222 5.222 0 01-.35-1.862zm9.935 2.198v-4.48h1.54v4.172c0 .653.116 1.148.35 1.484.242.327.592.49 1.05.49.289 0 .569-.06.84-.182.28-.121.532-.299.756-.532.233-.243.42-.532.56-.868v-4.564h1.54v5.586c0 .177.032.303.098.378.065.075.172.117.322.126V62a4.87 4.87 0 01-.392.056c-.103.01-.201.014-.294.014-.28 0-.514-.075-.7-.224a.9.9 0 01-.322-.602l-.028-.728a3.319 3.319 0 01-1.274 1.218 3.688 3.688 0 01-1.722.406c-.766 0-1.344-.252-1.736-.756-.392-.504-.588-1.246-.588-2.226zm12.717-3.15c-.597.01-1.13.145-1.596.406-.457.261-.784.63-.98 1.106V62h-1.54v-7.322h1.428v1.638c.252-.504.583-.905.994-1.204.41-.308.844-.476 1.302-.504h.224c.065 0 .121.005.168.014v1.386zm5.236 0c-.597.01-1.13.145-1.596.406-.457.261-.784.63-.98 1.106V62h-1.54v-7.322h1.428v1.638c.252-.504.584-.905.994-1.204.41-.308.845-.476 1.302-.504h.224c.066 0 .121.005.168.014v1.386zm4.316 6.132c-.57 0-1.088-.098-1.554-.294a3.832 3.832 0 01-1.19-.826 3.942 3.942 0 01-.784-1.204 3.992 3.992 0 01-.267-1.456c0-.69.16-1.32.477-1.89.317-.579.76-1.04 1.33-1.386.569-.355 1.236-.532 2.002-.532.765 0 1.423.177 1.973.532.56.345.995.803 1.302 1.372a3.795 3.795 0 01.42 2.394h-5.865c.027.43.144.807.35 1.134.214.317.485.57.811.756.327.177.677.266 1.05.266.411 0 .799-.103 1.162-.308.374-.205.626-.476.757-.812l1.316.378a2.84 2.84 0 01-.728.966c-.318.28-.696.504-1.134.672a4.168 4.168 0 01-1.428.238zm-2.198-4.312h4.424a2.196 2.196 0 00-.364-1.106 2.134 2.134 0 00-.799-.756 2.059 2.059 0 00-1.064-.28 2.168 2.168 0 00-1.848 1.036 2.278 2.278 0 00-.35 1.106zM92.338 62h-1.54v-4.102c0-.681-.112-1.18-.336-1.498-.215-.317-.537-.476-.966-.476-.299 0-.598.075-.896.224-.29.15-.551.355-.784.616a2.245 2.245 0 00-.504.882V62h-1.54v-7.322h1.4v1.47a2.85 2.85 0 01.728-.84c.308-.243.653-.43 1.036-.56.382-.13.788-.196 1.218-.196.438 0 .798.08 1.078.238.289.159.513.378.672.658.168.27.28.588.336.952.065.355.098.733.098 1.134V62zm5.105.14c-.57 0-1.087-.098-1.554-.294a3.718 3.718 0 01-1.19-.84 3.895 3.895 0 01-.784-1.218 3.99 3.99 0 01-.266-1.456c0-.69.154-1.32.462-1.89a3.71 3.71 0 011.316-1.372c.57-.345 1.241-.518 2.016-.518.747 0 1.395.168 1.946.504.56.327.971.765 1.232 1.316l-1.498.476a1.754 1.754 0 00-.714-.714 1.91 1.91 0 00-.994-.266c-.41 0-.784.107-1.12.322a2.214 2.214 0 00-.784.868c-.186.364-.28.789-.28 1.274 0 .467.098.891.294 1.274.196.373.457.672.784.896.336.215.71.322 1.12.322.252 0 .495-.042.728-.126a2.19 2.19 0 00.63-.364c.177-.159.303-.331.378-.518l1.512.448a2.728 2.728 0 01-.714.966c-.308.28-.676.504-1.106.672-.42.159-.891.238-1.414.238zm4.618 1.582l.406.056c.14.028.252.042.336.042a.58.58 0 00.406-.154c.121-.093.242-.27.364-.532.121-.261.27-.64.448-1.134l-3.01-7.322h1.61l2.24 5.754 1.988-5.754h1.484l-3.318 9.016c-.103.27-.252.518-.448.742a2.028 2.028 0 01-.728.546c-.29.13-.63.196-1.022.196-.112 0-.229-.01-.35-.028a4.485 4.485 0 01-.406-.084v-1.344z" fill="#000"/><g clip-path="url(#amclip0_332_13781)"><path fill-rule="evenodd" clip-rule="evenodd" d="M58.904 2h26.193c.625 0 1.202.33 1.514.866l7.63 13.11c.396.68.279 1.539-.286 2.09L72.951 38.583a1.761 1.761 0 01-2.456 0L49.52 18.093a1.712 1.712 0 01-.26-2.131l8.156-13.138A1.751 1.751 0 0158.904 2zm22.81 5.854v3.678h-7.46v2.55c5.24.273 9.171 1.393 9.2 2.735v2.797c-.029 1.342-3.96 2.461-9.2 2.734v6.259h-4.955v-6.26c-5.24-.272-9.172-1.391-9.201-2.733v-2.797c.03-1.342 3.96-2.462 9.201-2.734v-2.55h-7.461v-3.68h19.877zm-9.938 12.572c5.593 0 10.267-.947 11.41-2.21-.97-1.073-4.478-1.916-8.933-2.148v2.67a47.695 47.695 0 01-4.954 0v-2.67c-4.455.232-7.963 1.075-8.933 2.147 1.144 1.264 5.818 2.21 11.41 2.21z" fill="#009393"/></g><g clip-path="url(#amclip1_332_13781)"><path d="M58.342 26.08c-2.939 11.25-14.877 18.097-26.666 15.291-11.784-2.804-18.957-14.2-16.017-25.449C18.596 4.671 30.535-2.176 42.319.628 54.108 3.433 61.28 14.83 58.342 26.08z" fill="#F7931A"/><path d="M46.701 18.008c.438-2.795-1.791-4.297-4.84-5.299l.99-3.786-2.415-.574-.962 3.686c-.635-.15-1.287-.293-1.935-.434l.97-3.71-2.413-.575-.99 3.785a83.25 83.25 0 01-1.541-.346l.003-.012-3.33-.794-.642 2.461s1.791.392 1.753.416c.978.233 1.155.851 1.125 1.34l-1.126 4.313c.067.017.155.04.251.077l-.255-.06-1.58 6.041c-.119.284-.422.71-1.105.548.024.033-1.755-.418-1.755-.418l-1.199 2.638 3.142.747c.585.14 1.157.287 1.721.424l-.999 3.83 2.412.573.99-3.788c.658.17 1.298.328 1.924.477l-.987 3.77 2.415.574.999-3.822c4.117.744 7.213.444 8.516-3.11 1.05-2.861-.053-4.512-2.218-5.588 1.577-.348 2.765-1.338 3.082-3.384zm-5.516 7.383c-.746 2.862-5.794 1.315-7.43.927l1.325-5.073c1.637.39 6.885 1.162 6.105 4.146zm.747-7.424c-.681 2.603-4.883 1.28-6.245.956l1.202-4.6c1.362.323 5.752.929 5.043 3.644z" fill="#fff"/></g><defs><clipPath id="amclip0_332_13781"><path fill="#fff" transform="translate(49 2)" d="M0 0h46v38H0z"/></clipPath><clipPath id="amclip1_332_13781"><path fill="#fff" transform="translate(15)" d="M0 0h44v42H0z"/></clipPath></defs></svg><svg fill="none" viewBox="0 0 84 84" id="danger-icon" xmlns="http://www.w3.org/2000/svg"><path d="M56.85 27.15l-29.698 29.7m29.699 0l-29.699-29.7" stroke="#DE3618" stroke-width="6" stroke-linecap="round" stroke-linejoin="round"/></svg><svg fill="none" viewBox="0 0 22 18" id="flag_ru" xmlns="http://www.w3.org/2000/svg"><g filter="url(#aofilter0_d_623_3516)"><g clip-path="url(#aoclip0_623_3516)"><mask id="aoa" style="mask-type:luminance" maskUnits="userSpaceOnUse" x="3" y="1" width="16" height="12"><path fill="#fff" d="M3 1h16v12H3z"/></mask><g mask="url(#aoa)"><path fill-rule="evenodd" clip-rule="evenodd" d="M3 1v12h16V1H3z" fill="#3D58DB"/><mask id="aob" style="mask-type:luminance" maskUnits="userSpaceOnUse" x="3" y="1" width="16" height="12"><path fill-rule="evenodd" clip-rule="evenodd" d="M3 1v12h16V1H3z" fill="#fff"/></mask><g mask="url(#aob)" fill-rule="evenodd" clip-rule="evenodd"><path d="M3 1v4h16V1H3z" fill="#F7FCFF"/><path d="M3 9v4h16V9H3z" fill="#C51918"/></g></g><path fill="url(#aopaint0_linear_623_3516)" style="mix-blend-mode:overlay" d="M3 1h16v12H3z"/></g><rect x="3.5" y="1.5" width="15" height="11" rx=".5" stroke="#000" stroke-opacity=".1" style="mix-blend-mode:multiply"/></g><defs><linearGradient id="aopaint0_linear_623_3516" x1="11" y1="1" x2="11" y2="13" gradientUnits="userSpaceOnUse"><stop stop-color="#fff" stop-opacity=".7"/><stop offset="1" stop-opacity=".3"/></linearGradient><clipPath id="aoclip0_623_3516"><rect x="3" y="1" width="16" height="12" rx="1" fill="#fff"/></clipPath><filter id="aofilter0_d_623_3516" x="0" y="0" width="22" height="18" filterUnits="userSpaceOnUse" color-interpolation-filters="sRGB"><feFlood flood-opacity="0" result="BackgroundImageFix"/><feColorMatrix in="SourceAlpha" values="0 0 0 0 0 0 0 0 0 0 0 0 0 0 0 0 0 0 127 0" result="hardAlpha"/><feOffset dy="2"/><feGaussianBlur stdDeviation="1.5"/><feColorMatrix values="0 0 0 0 0 0 0 0 0 0 0 0 0 0 0 0 0 0 0.1 0"/><feBlend in2="BackgroundImageFix" result="effect1_dropShadow_623_3516"/><feBlend in="SourceGraphic" in2="effect1_dropShadow_623_3516" result="shape"/></filter></defs></svg><svg fill="none" viewBox="0 0 27 25" id="footer_logo" xmlns="http://www.w3.org/2000/svg"><g clip-path="url(#apclip0_623_6270)"><path d="M22.507 1.613c.384.254.663.503.896.89.384.635.406.825-.243 1.976-.216.383-.507.415-.834.117-.996-1.012-2.104-1.719-3.57-1.63-.198-1.085.521-2.01 1.574-1.989.233.005.662.046.896 0-.179-.21-.796-.648-1.024-.762-.897-.509-2.137-.087-2.922.973-.388.524-.675 1.124-.991 1.698-.957 1.998-1.454 3.176-3.937 2.89-1.763-.146-3.531-.309-5.297-.306-1.114.001-2.251.203-3.336.478-1.637.39-3.12 1.746-3.23 3.49-.055.709.283.919 1.002.78 4.292-.946 8.71 2.525 7.862 6.852-.294 1.518-.856 2.925-1.887 4.11-1.222 1.405-3.244 1.945-5.012 1.36-.957-.316-1.472-.99-1.443-2.003.014-.523.134-1.041.219-1.655-.365.525-.418.555-.493.652-1.292 1.628-.833 3.39.94 4.48 2.345 1.44 4.77 1.224 7.024-.137 1.196-.724 2.173-1.812 3.217-2.77.86-.79 1.603-1.714 2.515-2.431 2.59-2.037 5.478-1.868 7.845.414.824.796 1.552 1.69 2.35 2.512.919.948 1.558.823 1.977-.439.813-2.449.332-4.729-1.108-6.818-.564-.819-1.228-1.571-1.87-2.334-1.258-1.497-1.269-2.347-.18-3.98.701-1.054 1.412-2.134 1.891-3.294.695-1.684-.83-3.453-2.832-3.122v-.002zM12.179 16.04a.228.228 0 01-.087-.264c.108-.302.197-.618.364-.885 1.538-2.425 2.643-4.347 4.546-6.545.266-.3.712-.875 1.149-.455.422.407-.034.793-.3 1.143-1.661 2.174-3.205 4.205-4.774 6.433-.16.221-.4.385-.624.562a.234.234 0 01-.274.011z" fill="#416FF4"/></g><defs><clipPath id="apclip0_623_6270"><path fill="#fff" transform="matrix(-1 0 0 1 27 0)" d="M0 0h27v25H0z"/></clipPath></defs></svg><svg fill="none" viewBox="0 0 16 16" id="glas" xmlns="http://www.w3.org/2000/svg"><g clip-path="url(#aqclip0_884_9508)"><path d="M12.334 12.334l2.333 2.333m-.667-7a6.333 6.333 0 10-12.667 0 6.333 6.333 0 0012.667 0z" stroke="#000" stroke-width="1.5" stroke-linecap="round" stroke-linejoin="round"/></g><defs><clipPath id="aqclip0_884_9508"><path fill="#fff" d="M0 0h16v16H0z"/></clipPath></defs></svg><svg fill="none" viewBox="0 0 88 34" id="gpay_logo" xmlns="http://www.w3.org/2000/svg"><g clip-path="url(#arclip0_254_14144)"><path d="M41.07 16.538v10.025h-3.232V1.807H46.4a7.832 7.832 0 012.985.521 7.74 7.74 0 012.551 1.613 7.14 7.14 0 011.717 2.38 7.044 7.044 0 010 5.714 7.14 7.14 0 01-1.717 2.38 7.728 7.728 0 01-2.554 1.598 7.817 7.817 0 01-2.982.507h-5.33v.018zm0-11.683v8.631h5.417a4.371 4.371 0 001.734-.31 4.315 4.315 0 001.462-.967 4.17 4.17 0 00.965-1.385 4.116 4.116 0 00.332-1.648 4.383 4.383 0 00-1.354-3.056 4.518 4.518 0 00-3.139-1.251H41.07v-.014zM62.71 9.062c2.389 0 4.272.63 5.652 1.888 1.38 1.26 2.07 2.983 2.07 5.172V26.56H67.35v-2.355h-.134c-1.329 1.939-3.113 2.899-5.334 2.899a6.989 6.989 0 01-4.763-1.657 5.303 5.303 0 01-1.438-1.856 5.224 5.224 0 01-.487-2.284 4.94 4.94 0 01.49-2.331 5.02 5.02 0 011.529-1.844c1.347-1.046 3.145-1.558 5.384-1.558 1.918 0 3.5.356 4.728 1.045v-.71a3.564 3.564 0 00-.342-1.557 3.618 3.618 0 00-.987-1.26 4.602 4.602 0 00-3.132-1.16 4.97 4.97 0 00-2.427.56 4.88 4.88 0 00-1.834 1.663l-2.842-1.757c1.565-2.229 3.88-3.34 6.948-3.336zM58.54 21.357c-.003.405.094.806.283 1.166.188.36.463.67.8.904.715.55 1.6.842 2.507.828.675 0 1.344-.132 1.967-.388a5.13 5.13 0 001.666-1.102 4.687 4.687 0 001.18-1.58 4.621 4.621 0 00.42-1.916c-1.012-.779-2.406-1.177-4.208-1.177a5.584 5.584 0 00-3.283.928c-.895.647-1.336 1.426-1.336 2.337h.004zM87.999 9.61L77.226 34h-3.33l4.005-8.536-7.1-15.858h3.535L79.45 21.77h.069l4.98-12.163 3.5.004z" fill="#3C4043"/><path d="M28.22 14.51c0-1-.09-1.999-.27-2.983H14.405V17h7.797c-.15.89-.483 1.74-.98 2.497a6.628 6.628 0 01-1.909 1.906v3.556h4.64c2.71-2.479 4.266-6.131 4.266-10.448z" fill="#4285F4"/><path d="M19.318 21.403a8.86 8.86 0 01-7.617.88 8.752 8.752 0 01-3.324-2.077 8.58 8.58 0 01-2.06-3.302H1.53v3.652a14.28 14.28 0 005.315 5.711 14.584 14.584 0 007.567 2.114c3.893 0 7.165-1.263 9.545-3.432l-4.64-3.546z" fill="#34A853"/><path d="M5.869 14.19c0-.923.153-1.841.451-2.717V7.817H1.532A14.05 14.05 0 000 14.192c0 2.214.524 4.396 1.532 6.375l4.788-3.66a8.442 8.442 0 01-.451-2.717z" fill="#FABB05"/><path d="M14.413 5.62a7.9 7.9 0 015.53 2.133l4.112-4.047A13.965 13.965 0 0014.41.007c-2.672 0-5.292.732-7.567 2.114a14.281 14.281 0 00-5.315 5.71l4.79 3.66a8.5 8.5 0 013.089-4.218 8.712 8.712 0 015.007-1.654z" fill="#E94235"/></g><defs><clipPath id="arclip0_254_14144"><path fill="#fff" d="M0 0h88v34H0z"/></clipPath></defs></svg><svg fill="none" viewBox="0 0 33 30" id="header_logo" xmlns="http://www.w3.org/2000/svg"><g clip-path="url(#asclip0_164_8294)"><path d="M0 30c6.01-3.325 10.847-8.309 15.349-13.387.226-.168-.437-.37-.265-.993.26-.949.306-1.874.315-2.859.017-2.1.08-4.31-.829-6.263C13.37 3.916 11.476 1.085 8.388.679 7.745.585 7.62-.028 8.42.001c3.196.1 6.514-.007 9.488 1.343 4.489 1.854 3.246.454 7.024.139a15.627 15.627 0 011.574-.02c.115.005.183-.005.263-.087.453-.47.99-.76 1.656-.856.336-.049 1.585-.198 1.235.34-.548.844-3.024.989-2.147 2.525.195.342.738.69.993.91 1.496 1.297 1.755 1.36 2.84-.505.175-.301.894-1.264.92-.563.01.268.092.864-.076 1.49-.129.482-.417.871-.774 1.213-.081.078-.11.144-.084.261.41 1.607-.326 3.15-.76 4.646-.014 2.379 1.478 4.37 1.868 6.656.383 2.011.448 4.053.554 6.092.07.595-.387 1.826-.68.577-.234-.997-.509-1.8-1.075-2.57-2.443-3.175-6.574-4.207-10.501-4.304-1.358-.033-3.4.662-4.008.289-.293-.18-.397-.388-.601-.194C12.89 20.215 3.785 30.036 0 30z" fill="#416FF4"/></g><defs><clipPath id="asclip0_164_8294"><path fill="#fff" transform="matrix(-1 0 0 1 33 0)" d="M0 0h33v30H0z"/></clipPath></defs></svg><svg fill="none" viewBox="0 0 56 12" id="icon-arrow-1" xmlns="http://www.w3.org/2000/svg"><path d="M54.93 6.53a.75.75 0 000-1.06L50.157.697a.75.75 0 00-1.06 1.06L53.339 6l-4.242 4.243a.75.75 0 001.06 1.06L54.93 6.53zM0 6.75h54.4v-1.5H0v1.5z" fill="#22C55E"/></svg><svg fill="none" viewBox="0 0 12 17" id="icon-arrow-1.2" xmlns="http://www.w3.org/2000/svg"><path d="M5.47 16.53a.75.75 0 001.06 0l4.773-4.773a.75.75 0 00-1.06-1.06L6 14.939l-4.243-4.242a.75.75 0 10-1.06 1.06L5.47 16.53zM5.25 0v16h1.5V0h-1.5z" fill="#22C55E"/></svg><svg fill="none" viewBox="0 0 56 12" id="icon-arrow-2" xmlns="http://www.w3.org/2000/svg"><path d="M55.33 6.53a.75.75 0 000-1.06L50.557.697a.75.75 0 00-1.06 1.06L53.739 6l-4.242 4.243a.75.75 0 001.06 1.06L55.33 6.53zM.4 6.75h54.4v-1.5H.4v1.5z" fill="#DE3618"/></svg><svg fill="none" viewBox="0 0 12 17" id="icon-arrow-2.2" xmlns="http://www.w3.org/2000/svg"><path d="M5.47 16.53a.75.75 0 001.06 0l4.773-4.773a.75.75 0 00-1.06-1.06L6 14.939l-4.243-4.242a.75.75 0 10-1.06 1.06L5.47 16.53zM5.25 0v16h1.5V0h-1.5z" fill="#DE3618"/></svg><svg fill="none" viewBox="0 0 56 12" id="icon-arrow-3" xmlns="http://www.w3.org/2000/svg"><path d="M55.33 6.53a.75.75 0 000-1.06L50.557.697a.75.75 0 00-1.06 1.06L53.739 6l-4.242 4.243a.75.75 0 001.06 1.06L55.33 6.53zM.4 6.75h54.4v-1.5H.4v1.5z" fill="#fff"/></svg><svg fill="none" viewBox="0 0 13 17" id="icon-arrow-3.2" xmlns="http://www.w3.org/2000/svg"><path d="M5.97 16.53a.75.75 0 001.06 0l4.773-4.773a.75.75 0 00-1.06-1.06L6.5 14.939l-4.243-4.242a.75.75 0 10-1.06 1.06L5.97 16.53zM5.75 0v16h1.5V0h-1.5z" fill="#fff"/></svg><svg fill="none" viewBox="0 0 24 24" id="icon-arrow-s" xmlns="http://www.w3.org/2000/svg"><path d="M17 10l-5 4-5-4" stroke="#000" stroke-width="1.5" stroke-linecap="round" stroke-linejoin="round"/></svg><svg fill="none" viewBox="0 0 24 24" id="icon-audio-off" xmlns="http://www.w3.org/2000/svg"><path d="M17 17v.997c0 1.648-1.882 2.588-3.2 1.6l-4.267-3.2a2 2 0 00-1.2-.399H6A2 2 0 014 14v-3.998a2 2 0 012-2h2.002M17 17l3 3m-3-3L8.002 8.002M4 4l4.002 4.002m2.714-1.286L13.8 4.403c1.318-.988 3.2-.048 3.2 1.6V13" stroke="currentColor" stroke-width="1.5" stroke-linecap="round" stroke-linejoin="round"/></svg><svg fill="none" viewBox="0 0 18 18" id="icon-calc" xmlns="http://www.w3.org/2000/svg"><path d="M6 4.5h6m3 9v-9a3 3 0 00-3-3H6a3 3 0 00-3 3v9a3 3 0 003 3h6a3 3 0 003-3z" stroke="currentColor" stroke-width="1.5" stroke-linecap="round"/><path d="M6.563 7.5a.563.563 0 11-1.126 0 .563.563 0 011.125 0zM9.563 7.5a.563.563 0 11-1.126 0 .563.563 0 011.126 0zM12.563 7.5a.562.562 0 11-1.125 0 .562.562 0 011.124 0zM6.563 10.5a.562.562 0 11-1.125 0 .562.562 0 011.125 0zM9.563 10.5a.562.562 0 11-1.125 0 .562.562 0 011.124 0zM12.563 10.5a.562.562 0 11-1.125 0 .562.562 0 011.124 0zM6.563 13.5a.562.562 0 11-1.125 0 .562.562 0 011.125 0zM9.563 13.5a.562.562 0 11-1.125 0 .562.562 0 011.124 0zM12.563 13.5a.562.562 0 11-1.125 0 .562.562 0 011.124 0z" fill="currentColor"/></svg><svg fill="none" viewBox="0 0 60 60" id="icon-chart-1" xmlns="http://www.w3.org/2000/svg"><rect x="46.286" width="13.714" height="60" rx="2" fill="#416FF4"/><rect x="30.857" y="12" width="13.714" height="48" rx="2" fill="#416FF4"/><rect x="15.429" y="27.428" width="13.714" height="32.571" rx="2" fill="#416FF4"/><rect y="44.572" width="13.714" height="15.429" rx="2" fill="#416FF4"/></svg><svg fill="none" viewBox="0 0 60 60" id="icon-chart-2" xmlns="http://www.w3.org/2000/svg"><rect x="46.286" width="13.714" height="60" rx="2" fill="#416FF4"/><rect x="31" y="41" width="14" height="19" rx="2" fill="#DE3618"/><rect x="15.429" y="27.428" width="13.714" height="32.571" rx="2" fill="#416FF4"/><rect y="49" width="14" height="11" rx="2" fill="#DE3618"/></svg><svg fill="none" viewBox="0 0 24 24" id="icon-clear" xmlns="http://www.w3.org/2000/svg"><path d="M16.243 7.757l-8.485 8.486m8.485 0L7.758 7.757" stroke="#000" stroke-width="1.5" stroke-linecap="round" stroke-linejoin="round"/></svg><svg fill="none" viewBox="0 0 44 44" id="icon-close" xmlns="http://www.w3.org/2000/svg"><path d="M29.779 14.222L14.223 29.778m15.556 0L14.223 14.222" stroke="#808191" stroke-width="1.5" stroke-linecap="round" stroke-linejoin="round"/></svg><svg fill="none" viewBox="0 0 16 16" id="icon-copy" xmlns="http://www.w3.org/2000/svg"><g clip-path="url(#bgclip0_898_9395)"><path d="M5.333 5.333V4A2.667 2.667 0 018 1.333h4A2.667 2.667 0 0114.667 4v4A2.667 2.667 0 0112 10.667h-1.333M5.333 5.333H4A2.667 2.667 0 001.333 8v4A2.667 2.667 0 004 14.667h4A2.667 2.667 0 0010.667 12v-1.333M5.333 5.333H8A2.667 2.667 0 0110.667 8v2.667" stroke="currentColor" stroke-width="1.5" stroke-linejoin="round"/></g><defs><clipPath id="bgclip0_898_9395"><path fill="#fff" d="M0 0h16v16H0z"/></clipPath></defs></svg><svg fill="none" viewBox="0 0 24 24" id="icon-danger" xmlns="http://www.w3.org/2000/svg"><path fill-rule="evenodd" clip-rule="evenodd" d="M9.922 2.571a4.067 4.067 0 014.156 0l4.844 2.868C20.208 6.201 21 7.61 21 9.132v5.736c0 1.523-.792 2.931-2.078 3.693l-4.844 2.868a4.067 4.067 0 01-4.156 0L5.078 18.56C3.792 17.799 3 16.39 3 14.868V9.132c0-1.523.792-2.931 2.078-3.693l4.844-2.868zM11 17a1 1 0 112 0 1 1 0 01-2 0zm.25-3a.75.75 0 001.5 0V7a.75.75 0 00-1.5 0v7z" fill="#DE3618"/></svg><svg fill="none" viewBox="0 0 18 18" id="icon-eye" xmlns="http://www.w3.org/2000/svg"><path d="M3 3l12 12m-4.5-4.323A2.25 2.25 0 017.323 7.5m7.383 4.206c.428-.373.812-.749 1.142-1.096.87-.915.87-2.305 0-3.22C14.38 5.847 11.862 3.75 9 3.75c-.669 0-1.318.114-1.94.31M4.875 5.102C3.781 5.8 2.848 6.658 2.152 7.39a2.314 2.314 0 000 3.22C3.62 12.153 6.138 14.25 9 14.25c1.401 0 2.72-.503 3.874-1.197" stroke="currentColor" stroke-width="1.5" stroke-linecap="round"/></svg><svg fill="none" viewBox="0 0 16 16" id="icon-eye-2" xmlns="http://www.w3.org/2000/svg"><g clip-path="url(#bjclip0_659_3321)"><path d="M8 1.333v1.334m6 .666l-1 1m-11-1l1 1m5 10.334c2.403 0 4.542-1.564 5.918-2.881.998-.955.998-2.617 0-3.572-1.376-1.317-3.515-2.88-5.918-2.88s-4.542 1.563-5.918 2.88c-.998.955-.998 2.617 0 3.572 1.376 1.317 3.515 2.88 5.918 2.88zM10 10a2 2 0 11-4 0 2 2 0 014 0z" stroke="currentColor" stroke-width="1.5" stroke-linecap="round"/></g><defs><clipPath id="bjclip0_659_3321"><path fill="#fff" d="M0 0h16v16H0z"/></clipPath></defs></svg><svg fill="none" viewBox="0 0 32 32" id="icon-eye2" xmlns="http://www.w3.org/2000/svg"><circle cx="16" cy="16" r="15.5" fill="#fff" stroke="#DBDEE7"/><path d="M10 10l12 12m-4.5-4.323a2.25 2.25 0 01-3.177-3.177m7.383 4.206c.428-.373.812-.749 1.142-1.096.87-.915.87-2.305 0-3.22-1.467-1.543-3.986-3.64-6.848-3.64-.668 0-1.318.114-1.94.31m-2.185 1.042c-1.094.699-2.027 1.556-2.723 2.288a2.314 2.314 0 000 3.22c1.467 1.544 3.986 3.64 6.848 3.64 1.401 0 2.72-.503 3.874-1.197" stroke="#808191" stroke-width="1.5" stroke-linecap="round"/></svg><svg fill="none" viewBox="0 0 16 16" id="icon-filter" xmlns="http://www.w3.org/2000/svg"><path d="M2 4.667h2m0 0a2 2 0 104 0 2 2 0 00-4 0zm-2 6.666h4m6 0h2m-2 0a2 2 0 11-4 0 2 2 0 014 0zm-2-6.666h4" stroke="currentColor" stroke-width="1.5" stroke-linecap="round"/></svg><svg fill="none" viewBox="0 0 18 18" id="icon-link" xmlns="http://www.w3.org/2000/svg"><path d="M15.75 6.75v-4.5m0 0h-4.5m4.5 0L7.5 10.5M9 3.75H6.25a4 4 0 00-4 4v4a4 4 0 004 4h4a4 4 0 004-4V9" stroke="#416FF4" stroke-width="1.5" stroke-linecap="round" stroke-linejoin="round"/></svg><svg fill="none" viewBox="0 0 24 24" id="icon-mark-1" xmlns="http://www.w3.org/2000/svg"><circle cx="12" cy="12" r="12" fill="#22C55E"/><path d="M7.333 12.667l2.351 1.88a1.333 1.333 0 001.824-.149l5.159-5.731" stroke="#fff" stroke-width="2" stroke-linecap="round" stroke-linejoin="round"/></svg><svg fill="none" viewBox="0 0 25 24" id="icon-mark-2" xmlns="http://www.w3.org/2000/svg"><circle cx="12.8" cy="12" r="12" fill="#DE3618"/><path d="M15.629 9.172l-5.657 5.656m5.657 0L9.972 9.172" stroke="#fff" stroke-width="2" stroke-linecap="round" stroke-linejoin="round"/></svg><svg fill="none" viewBox="0 0 25 24" id="icon-mark-3" xmlns="http://www.w3.org/2000/svg"><circle cx="12.8" cy="12" r="12" fill="#fff"/><path d="M8.133 12.667l2.351 1.88a1.333 1.333 0 001.824-.149l5.159-5.731" stroke="#416FF4" stroke-width="2" stroke-linecap="round" stroke-linejoin="round"/></svg><svg fill="none" viewBox="0 0 24 24" id="icon-notify" xmlns="http://www.w3.org/2000/svg"><path d="M19.972 5.817l-.692.29.692-.29zm-.615.473a.75.75 0 001.383-.58l-1.383.58zm-2.578-4.486a.75.75 0 00-.558 1.392l.558-1.392zm-.112.763l-.278.696.278-.696zm-12.59 3.25l.691.29-.691-.29zm-.769-.107a.75.75 0 101.384.58l-1.384-.58zm4.52-2.514a.75.75 0 10-.558-1.392l.557 1.392zm-.447-.63l-.278-.695.278.696zm10.858 6.41l-.745.084.745-.085zm.448 3.94l.745-.085-.745.084zm-13.374 0l-.745-.085.745.084zm.447-3.94l.746.084-.746-.085zm-1.312 5.896l-.571-.486.57.486zm15.104 0l-.57.486.57-.486zM14.27 4.374h-.75c0 .32.204.605.507.71l.243-.71zm-4.54 0l.243.71a.75.75 0 00.507-.71h-.75zm5.972 15.89a.75.75 0 10-1.404-.527l1.404.526zm-6-.527a.75.75 0 10-1.404.526l1.404-.526zm9.578-13.63l.077.183 1.383-.58-.076-.183-1.384.58zm-3.059-2.91l.168.066.557-1.392-.168-.067-.556 1.392zm4.442 2.33a6.75 6.75 0 00-3.717-3.656l-.557 1.392a5.25 5.25 0 012.891 2.844l1.383-.58zm-17.278 0l-.077.183 1.384.58.076-.183-1.383-.58zM7.27 1.804l-.167.067.557 1.392.167-.067-.557-1.392zM4.768 6.107A5.25 5.25 0 017.66 3.263l-.557-1.392a6.75 6.75 0 00-3.718 3.656l1.383.58zm13.01 11.143H6.222v1.5h11.554v-1.5zm-.284-8.19l.448 3.94 1.49-.17-.447-3.94-1.49.17zM6.058 13l.448-3.94-1.49-.17-.448 3.94 1.49.17zm-1.04 2.358A4.405 4.405 0 006.059 13l-1.49-.17a2.906 2.906 0 01-.691 1.556l1.142.972zM17.943 13c.098.865.462 1.68 1.04 2.358l1.141-.972a2.906 2.906 0 01-.691-1.555l-1.49.169zm-11.72 4.25c-.654 0-1.118-.324-1.331-.7-.207-.365-.204-.802.128-1.192l-1.142-.972c-.766.899-.79 2.026-.291 2.904.49.864 1.463 1.46 2.637 1.46v-1.5zm11.555 1.5c1.174 0 2.146-.596 2.637-1.46.498-.878.475-2.005-.29-2.904l-1.143.972c.332.39.335.827.128 1.191-.213.377-.677.701-1.332.701v1.5zM15.02 4.374V4.27h-1.5v.104h1.5zm3.965 4.517c-.28-2.46-2.104-4.416-4.472-5.227l-.486 1.42c1.917.656 3.264 2.187 3.467 3.976l1.49-.17zM10.48 4.374V4.27h-1.5v.104h1.5zM6.506 9.06c.203-1.789 1.55-3.32 3.467-3.977l-.486-1.419c-2.368.81-4.193 2.766-4.472 5.227l1.49.169zM12 2.75c.84 0 1.52.68 1.52 1.52h1.5A3.02 3.02 0 0012 1.25v1.5zm0-1.5a3.02 3.02 0 00-3.02 3.02h1.5c0-.84.68-1.52 1.52-1.52v-1.5zm2.298 18.487c-.323.86-1.213 1.513-2.298 1.513v1.5c1.685 0 3.152-1.017 3.702-2.487l-1.404-.526zM12 21.25c-1.085 0-1.975-.652-2.298-1.513l-1.404.526c.55 1.47 2.017 2.487 3.702 2.487v-1.5z" fill="currentColor"/></svg><svg fill="none" viewBox="0 0 17 16" id="icon-plus" xmlns="http://www.w3.org/2000/svg"><path d="M8.5 4v8m4-4h-8" stroke="currentColor" stroke-width="1.5" stroke-linecap="round" stroke-linejoin="round"/></svg><svg fill="none" viewBox="0 0 16 16" id="icon-redo" xmlns="http://www.w3.org/2000/svg"><path d="M14 8a6 6 0 11-.803-3m0 0V2m0 3H10.25" stroke="currentColor" stroke-width="1.5" stroke-linecap="round" stroke-linejoin="round"/></svg><svg fill="none" viewBox="0 0 18 18" id="icon-tick" xmlns="http://www.w3.org/2000/svg"><path d="M3.75 9.75l2.645 2.116a1.5 1.5 0 002.052-.168L14.25 5.25" stroke="currentColor" stroke-width="1.5" stroke-linecap="round" stroke-linejoin="round"/></svg><svg fill="none" viewBox="0 0 24 24" id="icon-warn" xmlns="http://www.w3.org/2000/svg"><path fill-rule="evenodd" clip-rule="evenodd" d="M9.922 2.571a4.067 4.067 0 014.156 0l4.844 2.868C20.208 6.201 21 7.61 21 9.132v5.736c0 1.523-.792 2.931-2.078 3.693l-4.844 2.868a4.067 4.067 0 01-4.156 0L5.078 18.56C3.792 17.799 3 16.39 3 14.868V9.132c0-1.523.792-2.931 2.078-3.693l4.844-2.868zM11 17a1 1 0 112 0 1 1 0 01-2 0zm.25-3a.75.75 0 001.5 0V7a.75.75 0 00-1.5 0v7z" fill="#FFA234"/></svg><svg fill="none" viewBox="0 0 24 24" id="info-icon" xmlns="http://www.w3.org/2000/svg"><path fill-rule="evenodd" clip-rule="evenodd" d="M9.922 2.571a4.067 4.067 0 014.156 0l4.844 2.868C20.208 6.201 21 7.61 21 9.132v5.736c0 1.523-.792 2.931-2.078 3.693l-4.844 2.868a4.067 4.067 0 01-4.156 0L5.078 18.56C3.792 17.799 3 16.39 3 14.868V9.132c0-1.523.792-2.931 2.078-3.693l4.844-2.868zM11 17a1 1 0 112 0 1 1 0 01-2 0zm.25-3a.75.75 0 001.5 0V7a.75.75 0 00-1.5 0v7z" fill="#FFA234"/></svg><svg fill="none" viewBox="0 0 20 20" id="logout" xmlns="http://www.w3.org/2000/svg"><path d="M16.667 11.666l.96-.96a1 1 0 000-1.413l-.96-.96" stroke="#000" stroke-width="1.5" stroke-linecap="round" stroke-linejoin="round"/><path d="M17.5 10h-6.667M5 16.667a3.333 3.333 0 01-3.333-3.334V6.668A3.333 3.333 0 015 3.334m0 13.333a3.333 3.333 0 003.333-3.334V6.668A3.333 3.333 0 005 3.334m0 13.333h6.667A3.333 3.333 0 0015 13.333m-10-10h6.667A3.333 3.333 0 0115 6.668" stroke="#000" stroke-width="1.5" stroke-linecap="round"/></svg><svg fill="none" viewBox="0 0 76 60" id="mastercard_logo" xmlns="http://www.w3.org/2000/svg"><g clip-path="url(#bxclip0_254_14124)"><path d="M74.503 59.186v.155h.141a.147.147 0 00.076-.02.069.069 0 00.029-.059.067.067 0 00-.029-.057.135.135 0 00-.076-.02h-.141v.001zm.143-.109a.26.26 0 01.17.05.164.164 0 01.06.137.158.158 0 01-.048.12.232.232 0 01-.136.057l.19.22h-.146l-.175-.218h-.057v.218h-.122v-.583h.266-.002zm-.038.785a.45.45 0 00.186-.038.49.49 0 000-.9.492.492 0 00-.532.104.5.5 0 000 .695.486.486 0 00.346.143m0-1.118a.632.632 0 01.581.873.652.652 0 01-.135.2.678.678 0 01-.2.135.623.623 0 01-.496 0 .647.647 0 01-.201-.135.652.652 0 01-.133-.207.628.628 0 01.586-.873m-58.188-2.246c0-1.113.718-2.026 1.892-2.026 1.122 0 1.88.874 1.88 2.026 0 1.152-.758 2.026-1.88 2.026-1.174 0-1.892-.914-1.892-2.026zm5.05 0v-3.166h-1.356v.771c-.43-.57-1.083-.927-1.97-.927-1.748 0-3.12 1.391-3.12 3.323 0 1.933 1.37 3.324 3.12 3.324.887 0 1.54-.358 1.97-.928v.77h1.354v-3.167h.002zm45.825 0c0-1.113.718-2.026 1.892-2.026 1.123 0 1.879.874 1.879 2.026 0 1.152-.756 2.026-1.879 2.026-1.174 0-1.892-.914-1.892-2.026zm5.05 0v-5.707H70.99V54.1c-.43-.57-1.082-.927-1.97-.927-1.748 0-3.12 1.391-3.12 3.323 0 1.933 1.372 3.324 3.12 3.324.888 0 1.54-.358 1.97-.928v.77h1.358v-3.167zm-34.043-2.092c.874 0 1.435.556 1.579 1.535h-3.236c.145-.913.691-1.535 1.658-1.535m.027-1.234c-1.828 0-3.107 1.35-3.107 3.324 0 2.012 1.33 3.323 3.197 3.323.94 0 1.8-.238 2.557-.886l-.664-1.02a2.947 2.947 0 01-1.815.662c-.874 0-1.67-.41-1.865-1.55h4.63c.014-.172.028-.344.028-.53-.014-1.973-1.216-3.323-2.962-3.323m16.374 3.324c0-1.113.718-2.027 1.892-2.027 1.122 0 1.879.875 1.879 2.026 0 1.152-.757 2.027-1.879 2.027-1.174 0-1.892-.914-1.892-2.026m5.05 0v-3.164h-1.356v.771c-.432-.57-1.083-.927-1.97-.927-1.748 0-3.12 1.391-3.12 3.323 0 1.933 1.371 3.324 3.12 3.324.887 0 1.538-.358 1.97-.928v.77h1.355V56.492zm-12.709 0c0 1.92 1.317 3.323 3.327 3.323.94 0 1.566-.212 2.242-.755l-.65-1.112c-.51.371-1.045.57-1.635.57-1.082-.014-1.879-.808-1.879-2.026 0-1.219.797-2.013 1.88-2.027.588 0 1.122.199 1.633.57l.651-1.112c-.678-.543-1.303-.755-2.242-.755-2.01 0-3.327 1.403-3.327 3.324zm17.484-3.324c-.782 0-1.292.371-1.644.927v-.767h-1.344v6.329h1.357V56.11c0-1.047.444-1.63 1.33-1.63.29-.003.579.05.849.16l.418-1.297c-.3-.12-.692-.173-.967-.173m-36.352.662c-.653-.436-1.552-.662-2.543-.662-1.58 0-2.598.769-2.598 2.026 0 1.032.758 1.669 2.152 1.867l.64.093c.745.106 1.096.304 1.096.662 0 .49-.494.768-1.422.768-.94 0-1.617-.304-2.074-.662l-.638 1.073c.744.556 1.683.822 2.7.822 1.802 0 2.846-.86 2.846-2.066 0-1.112-.822-1.694-2.18-1.893l-.638-.094c-.588-.077-1.058-.197-1.058-.621 0-.463.444-.741 1.188-.741.796 0 1.566.304 1.944.542l.587-1.112-.002-.002zm17.5-.66c-.783 0-1.293.37-1.644.927v-.77H42.69v6.329h1.356V56.11c0-1.047.443-1.63 1.33-1.63.29-.003.578.05.848.16l.418-1.297c-.3-.12-.692-.173-.967-.173m-11.572.16h-2.218v-1.92h-1.37v1.92h-1.266v1.257h1.265v2.887c0 1.468.562 2.343 2.166 2.343.589 0 1.267-.185 1.697-.49l-.392-1.178c-.404.238-.848.358-1.2.358-.678 0-.9-.424-.9-1.06v-2.859h2.218v-1.259zm-20.276 6.33v-3.973c0-1.495-.94-2.502-2.454-2.515-.796-.014-1.617.238-2.192 1.126-.43-.702-1.108-1.126-2.061-1.126-.667 0-1.318.198-1.827.94v-.783H3.936v6.329h1.368v-3.51c0-1.098.6-1.682 1.527-1.682.9 0 1.356.596 1.356 1.669v3.522h1.371v-3.51c0-1.098.626-1.682 1.527-1.682.925 0 1.367.596 1.367 1.669v3.522l1.375.003z" fill="#231F20"/><path d="M75.276 38.608v-.926h-.237l-.275.635-.273-.635h-.238v.925h.168v-.697l.257.602h.175l.257-.603v.699h.167zm-1.506 0v-.767h.304v-.157h-.777v.157h.304v.767h.169z" fill="#F79410"/><path d="M48.281 42.577H27.73V5.096h20.553v37.48z" fill="#FF5F00"/><path d="M29.032 23.837c0-7.603 3.508-14.376 8.971-18.74A23.172 23.172 0 0023.487 0C10.515 0 0 10.672 0 23.837s10.515 23.837 23.487 23.837a23.172 23.172 0 0014.516-5.097c-5.462-4.364-8.971-11.137-8.971-18.74z" fill="#EB001B"/><path d="M76.01 23.837c0 13.165-10.516 23.837-23.488 23.837a23.18 23.18 0 01-14.518-5.097c5.464-4.364 8.973-11.137 8.973-18.74 0-7.604-3.509-14.376-8.973-18.74A23.18 23.18 0 0152.52 0C65.493 0 76.01 10.672 76.01 23.837" fill="#F79E1B"/></g><defs><clipPath id="bxclip0_254_14124"><path fill="#fff" d="M0 0h76v60H0z"/></clipPath></defs></svg><svg fill="none" viewBox="0 0 32 32" id="menu_icon" xmlns="http://www.w3.org/2000/svg"><path d="M9.71 25.333h16.957m0-9.333H5.332m21.334-9.333h-9.371" stroke="currentColor" stroke-width="1.5" stroke-linecap="round"/></svg><svg fill="none" viewBox="0 0 80 23" id="mir_logo" xmlns="http://www.w3.org/2000/svg"><g clip-path="url(#bzclip0_254_14265)" fill-rule="evenodd" clip-rule="evenodd"><path d="M71.02 0H55.836c.816 5.093 5.714 9.857 11.102 9.857H79.02c.163-.493.163-1.15.163-1.643C79.183 3.614 75.59 0 71.02 0z" fill="url(#bzpaint0_linear_254_14265)"/><path d="M57.143 10.679V23h7.347v-6.571h6.53c3.592 0 6.694-2.465 7.674-5.75H57.143zM31.02 0v23h6.53s1.633 0 2.45-1.643l5.713-11.5h.817V23h7.347V0h-6.53s-1.634.164-2.45 1.643l-5.714 11.5h-.816V0H31.02zM0 23V0h7.347s2.122 0 3.265 3.286c2.939 8.707 3.266 9.857 3.266 9.857s.653-2.136 3.265-9.857C18.286 0 20.408 0 20.408 0h7.347v23h-7.347V10.679h-.816L15.51 23h-3.265L8.163 10.679h-.816V23H0z" fill="#4DB45F"/></g><defs><linearGradient id="bzpaint0_linear_254_14265" x1="55.794" y1="4.929" x2="79.183" y2="4.929" gradientUnits="userSpaceOnUse"><stop stop-color="#00B4E6"/><stop offset="1" stop-color="#088CCB"/></linearGradient><clipPath id="bzclip0_254_14265"><path fill="#fff" d="M0 0h80v23H0z"/></clipPath></defs></svg><svg fill="none" viewBox="0 0 16 16" id="pause-icon" xmlns="http://www.w3.org/2000/svg"><path d="M2.667 4.667c0-.737.597-1.333 1.333-1.333h1.333c.737 0 1.334.596 1.334 1.333v6.667c0 .736-.597 1.333-1.334 1.333H4a1.333 1.333 0 01-1.333-1.333V4.667zM9.333 4.667c0-.737.597-1.333 1.334-1.333H12c.736 0 1.333.596 1.333 1.333v6.667c0 .736-.597 1.333-1.333 1.333h-1.333a1.333 1.333 0 01-1.334-1.333V4.667z" stroke="currentColor" stroke-width="1.5"/></svg><svg viewBox="0 0 16 16" id="people_icon" xmlns="http://www.w3.org/2000/svg"><path d="M9.917 4.667A1.917 1.917 0 018 6.583v1.5a3.417 3.417 0 003.417-3.416h-1.5zM8 6.583a1.917 1.917 0 01-1.917-1.916h-1.5A3.417 3.417 0 008 8.083v-1.5zM6.083 4.667c0-1.059.859-1.917 1.917-1.917v-1.5a3.417 3.417 0 00-3.417 3.417h1.5zM8 2.75c1.059 0 1.917.858 1.917 1.917h1.5A3.417 3.417 0 008 1.25v1.5zm3.917 8.917c0 .207-.188.596-.952.979-.72.36-1.767.604-2.965.604v1.5c1.38 0 2.666-.278 3.635-.763.925-.462 1.782-1.239 1.782-2.32h-1.5zM8 13.25c-1.197 0-2.244-.244-2.964-.604-.765-.383-.952-.772-.952-.98h-1.5c0 1.082.857 1.86 1.78 2.321.97.485 2.256.763 3.636.763v-1.5zm-3.917-1.583c0-.207.188-.597.953-.98.72-.36 1.767-.604 2.964-.604v-1.5c-1.38 0-2.666.278-3.635.763-.924.462-1.782 1.24-1.782 2.32h1.5zM8 10.083c1.198 0 2.245.245 2.965.605.764.382.952.771.952.979h1.5c0-1.082-.857-1.859-1.782-2.321C10.666 8.86 9.38 8.583 8 8.583v1.5z" fill="currentColor"/></svg><svg fill="none" viewBox="0 0 34 34" id="people_icon_white" xmlns="http://www.w3.org/2000/svg"><path d="M21.667 9.917A4.667 4.667 0 0117 14.583v2a6.667 6.667 0 006.667-6.666h-2zM17 14.583a4.667 4.667 0 01-4.666-4.666h-2A6.667 6.667 0 0017 16.583v-2zm-4.666-4.666A4.667 4.667 0 0117 5.25v-2a6.667 6.667 0 00-6.666 6.667h2zM17 5.25a4.667 4.667 0 014.667 4.667h2A6.667 6.667 0 0017 3.25v2zm8.917 19.542c0 .786-.664 1.767-2.352 2.611-1.628.815-3.948 1.347-6.565 1.347v2c2.86 0 5.499-.578 7.46-1.558 1.9-.95 3.457-2.448 3.457-4.4h-2zM17 28.75c-2.617 0-4.936-.532-6.565-1.347-1.688-.844-2.351-1.825-2.351-2.611h-2c0 1.952 1.556 3.45 3.457 4.4 1.96.98 4.6 1.558 7.46 1.558v-2zm-8.916-3.958c0-.787.663-1.768 2.351-2.612 1.629-.814 3.948-1.347 6.565-1.347v-2c-2.86 0-5.498.578-7.46 1.558-1.9.95-3.456 2.449-3.456 4.4h2zM17 20.833c2.617 0 4.937.533 6.565 1.347 1.688.844 2.352 1.825 2.352 2.612h2c0-1.952-1.557-3.45-3.458-4.4-1.96-.981-4.599-1.559-7.459-1.559v2z" fill="#fff"/></svg><svg fill="none" viewBox="0 0 34 34" id="phone_icon" xmlns="http://www.w3.org/2000/svg"><rect x="7.083" y="2.833" width="19.833" height="28.333" rx="3" stroke="#fff" stroke-width="2" stroke-linejoin="round"/><path d="M15.584 26.917h2.833" stroke="#fff" stroke-width="2" stroke-linecap="round"/></svg><svg fill="none" viewBox="0 0 16 16" id="play-icon" xmlns="http://www.w3.org/2000/svg"><path d="M11.307 9.158l-5.312 3.035A1.333 1.333 0 014 11.036V4.964a1.333 1.333 0 011.995-1.157l5.312 3.035a1.333 1.333 0 010 2.316z" stroke="currentColor" stroke-width="1.5" stroke-linejoin="round"/></svg><svg fill="none" viewBox="0 0 103 52" id="qiw_logo" xmlns="http://www.w3.org/2000/svg"><path d="M50.426 29.51h1.615v3.63h1.171l2.093-3.63h1.745l-2.526 4.225v.022l2.678 4.636H55.37l-2.158-3.889h-1.15v3.89h-1.614l-.022-8.895v.011zm10.386 2.35c1.941 0 3.524 1.377 3.524 3.348 0 1.972-1.572 3.348-3.523 3.348-1.952 0-3.524-1.376-3.524-3.348.021-1.96 1.572-3.347 3.523-3.347zm0 5.33c1.106.066 2.028-.8 2.093-1.895.065-1.105-.802-2.026-1.897-2.09-1.106-.066-2.028.8-2.093 1.895v.108a1.887 1.887 0 001.81 1.983h.087zm4.793-5.177h1.507v5.048h1.984v-5.048h1.507v5.048h2.006v-5.048h1.485v6.391h-8.533l.022-6.392h.022zm13.108-.152c1.832 0 2.83 1.343 2.83 3.022 0 .217-.022.412-.044.629h-4.38c.109 1.126.954 1.679 1.92 1.679a2.996 2.996 0 001.831-.715l.63 1.148a4.133 4.133 0 01-2.57.91c-2.115 0-3.459-1.527-3.459-3.347-.022-1.94 1.323-3.326 3.242-3.326zm1.236 2.546c0-.845-.564-1.354-1.28-1.354-.78 0-1.441.585-1.528 1.354h2.808zm2.353 2.654c.802-.108 1.344-.78 1.344-3.044v-2.005h4.662v6.392h-1.594v-5.092h-1.55v.716c0 2.784-.737 4.376-2.852 4.441v-1.397l-.01-.011zm10.56-5.2c1.832 0 2.83 1.343 2.83 3.022 0 .217-.022.412-.044.629h-4.38a1.805 1.805 0 001.919 1.679 2.996 2.996 0 001.832-.715l.63 1.148a4.133 4.133 0 01-2.57.91c-2.115 0-3.459-1.527-3.459-3.347-.022-1.94 1.323-3.326 3.242-3.326zm1.236 2.546c-.022-.845-.564-1.354-1.28-1.354-.78 0-1.442.585-1.528 1.354h2.808zm2.938-2.373h1.594v2.438h.78l1.551-2.438h1.767l-2.027 3.044v.022l2.287 3.326h-1.832l-1.68-2.59h-.825v2.59h-1.593v-6.392h-.022z" fill="#2D3540"/><path d="M72.826 9.674v15.102a.412.412 0 01-.412.412h-3.09a.412.412 0 01-.412-.412V9.674c0-.216.174-.412.412-.412h3.09c.217 0 .412.174.412.412zm24.06-.412h-3.46a.416.416 0 00-.39.304l-2.743 8.916-3.003-8.938a.417.417 0 00-.39-.282h-2.418a.417.417 0 00-.39.282l-3.004 8.938-2.721-8.938a.416.416 0 00-.39-.303h-3.46c-.13 0-.26.065-.346.173a.378.378 0 00-.065.369l5.096 15.101a.417.417 0 00.39.282h2.743a.417.417 0 00.39-.282l2.982-8.829 2.981 8.83a.417.417 0 00.39.28h2.744a.417.417 0 00.39-.28l5.096-15.103a.378.378 0 00-.065-.368c-.109-.108-.239-.173-.369-.152h.011zm5.203 0h-3.09a.412.412 0 00-.412.412v15.102c0 .216.174.412.412.412h3.09a.411.411 0 00.412-.412V9.674a.411.411 0 00-.412-.412zM67.124 24.667c.13.109.13.304.021.434a.4.4 0 01-.26.108H63.1a.464.464 0 01-.39-.195l-.65-.78c-3.871 2.503-9.054 1.376-11.559-2.48-2.504-3.857-1.376-9.047 2.483-11.549 3.871-2.503 9.053-1.376 11.558 2.48a8.337 8.337 0 010 9.047l2.57 2.936h.01zm-7.514-3.369l-1.659-2.004a.336.336 0 01.043-.455.35.35 0 01.196-.065h3.48a4.79 4.79 0 00.26-1.549c0-2.503-1.854-4.637-4.402-4.637-2.548-.021-4.402 2.135-4.402 4.615 0 2.481 1.854 4.615 4.402 4.615.738 0 1.464-.173 2.093-.52h-.011zM35.595 31.98c-.304-.152-.694-.065-.868.238-.217.412-.065 1.235.39 1.94.456.704.868 1.083 1.172 1.083.303 0 .563-.368.433-1.279-.043-.52-.347-1.679-1.127-1.982zm-4.554 3.37a1.195 1.195 0 00-.976.41c-.542.672-.303 1.853.542 2.568.39.325.89.499 1.399.499.477.021.932-.174 1.236-.542.477-.65.217-1.57-.716-2.35a2.465 2.465 0 00-1.485-.586zm-10.452 8.655C9.205 44.005 0 34.797 0 23.422 0 12.047 9.227 2.86 20.6 2.86c11.373 0 20.578 9.22 20.578 20.583 0 3.716-1.019 7.356-2.916 10.552-.044.065-.109.087-.174.043-.043-.021-.065-.065-.065-.086-.715-5.049-3.805-7.854-8.294-8.678-.39-.065-.455-.303.043-.347a19.145 19.145 0 014.316.087c.065-.52.086-1.061.086-1.57 0-7.508-6.093-13.596-13.607-13.596-7.513 0-13.596 6.088-13.596 13.595 0 7.508 6.094 13.596 13.607 13.596h.65a17.362 17.362 0 01-.26-3.672c.044-.845.196-.954.586-.304 1.876 3.24 4.576 6.197 9.845 7.356 4.293.954 8.597 2.07 13.26 7.941.412.52-.217 1.04-.694.628-4.75-4.181-9.032-5.546-12.978-5.546-4.38-.022-7.384.563-10.409.563h.011z" fill="#FF8C00"/></svg><svg fill="none" viewBox="0 0 24 24" id="remove" xmlns="http://www.w3.org/2000/svg"><path d="M16.243 7.757l-8.485 8.486m8.485 0L7.758 7.757" stroke="currentColor" stroke-width="1.5" stroke-linecap="round" stroke-linejoin="round"/></svg><svg fill="none" viewBox="0 0 20 20" id="remove-red" xmlns="http://www.w3.org/2000/svg"><path d="M13.536 6.464l-7.071 7.072m7.07 0l-7.07-7.072" stroke="#DE3618" stroke-width="1.5" stroke-linecap="round" stroke-linejoin="round"/></svg><svg fill="none" viewBox="0 0 14 14" id="s-flag" xmlns="http://www.w3.org/2000/svg"><path fill-rule="evenodd" clip-rule="evenodd" d="M2.438 1.167c.241 0 .437.196.437.437v.146H9c.644 0 1.167.522 1.167 1.167v4.521a.73.73 0 01-.73.729h-.435-6.127v4.229a.438.438 0 01-.875 0V1.604c0-.241.196-.437.438-.437zm1.895 8.166v-.291h5.104c.886 0 1.605-.718 1.605-1.604V4.083h.291c.645 0 1.167.523 1.167 1.167v4.083c0 .645-.522 1.167-1.167 1.167H5.5a1.167 1.167 0 01-1.167-1.167z" fill="#808191"/></svg><svg fill="none" viewBox="0 0 96 49" id="sbp_logo" xmlns="http://www.w3.org/2000/svg"><path d="M83.01 13.987v11.98h-4.207v-8.404H74.75v8.404h-4.208v-11.98H83.01z" fill="#000"/><path fill-rule="evenodd" clip-rule="evenodd" d="M61.902 26.395c3.767 0 6.565-2.348 6.565-5.907 0-3.445-2.064-5.682-5.513-5.682-1.592 0-2.906.57-3.895 1.552.236-2.031 1.926-3.514 3.787-3.514l3.662-.007 1.828-3.557s-4.059.094-5.945.094c-4.311.077-7.223 4.06-7.223 8.898 0 5.636 2.84 8.123 6.734 8.123zm.023-8.44c1.399 0 2.369.935 2.369 2.532 0 1.438-.862 2.623-2.369 2.626-1.44 0-2.41-1.098-2.41-2.601 0-1.598.97-2.556 2.41-2.556z" fill="#000"/><path d="M51.743 21.956s-.993.582-2.478.692c-1.706.052-3.226-1.044-3.226-2.99 0-1.899 1.341-2.987 3.183-2.987 1.13 0 2.624.796 2.624.796s1.094-2.04 1.66-3.06c-1.037-.799-2.419-1.237-4.025-1.237-4.055 0-7.196 2.688-7.196 6.464 0 3.824 2.952 6.45 7.196 6.37 1.186-.045 2.822-.468 3.82-1.12l-1.558-2.928z" fill="#000"/><path d="M0 10.666l5.837 10.606v6.47L.007 38.327 0 10.666z" fill="#5B57A2"/><path d="M22.412 17.413l5.47-3.408 11.193-.011-16.663 10.377v-6.958z" fill="#D90751"/><path d="M22.38 10.603l.031 14.043-5.85-3.655V0l5.82 10.603z" fill="#FAB718"/><path d="M39.075 13.994l-11.195.01-5.5-3.4L16.56 0l22.515 13.994z" fill="#ED6F26"/><path d="M22.411 38.386v-6.813l-5.85-3.585L16.564 49l5.847-10.614z" fill="#63B22F"/><path d="M27.868 35.01L5.837 21.271 0 10.666l39.052 24.33-11.184.013z" fill="#1487C9"/><path d="M16.566 49l5.847-10.614 5.456-3.377 11.184-.014L16.566 49z" fill="#017F36"/><path d="M.006 38.327l16.602-10.339-5.581-3.481-5.19 3.235L.005 38.327z" fill="#984995"/><path d="M46.038 34.03a1.212 1.212 0 01-.5.376c-.209.087-.431.13-.656.13a1.831 1.831 0 01-.656-.112 1.451 1.451 0 01-.507-.32 1.448 1.448 0 01-.33-.5 1.73 1.73 0 01-.12-.648c0-.22.038-.425.116-.619.074-.194.182-.36.317-.5a1.502 1.502 0 011.092-.462c.24 0 .463.031.666.092.203.062.375.164.517.306l-.247.425c-.119-.11-.26-.193-.412-.245a1.428 1.428 0 00-.45-.07 1.039 1.039 0 00-.72.296 1.092 1.092 0 00-.31.781c0 .166.03.315.087.444.058.133.136.245.233.34a.95.95 0 00.345.214c.132.051.27.075.42.075.182 0 .348-.038.49-.11.14-.068.266-.164.372-.28l.253.386zm.696.434V31.44h.534v2.253l1.737-2.253h.535v3.024h-.535v-2.252l-1.737 2.252h-.534zm6.344-.435a1.21 1.21 0 01-.5.377c-.208.087-.43.13-.656.13a1.833 1.833 0 01-.655-.112 1.453 1.453 0 01-.507-.32 1.446 1.446 0 01-.331-.5 1.729 1.729 0 01-.119-.648c0-.22.037-.425.115-.619.075-.194.183-.36.318-.5.135-.142.297-.25.48-.335.192-.087.401-.13.611-.126.24 0 .464.03.666.091.203.062.376.164.518.306l-.247.425a1.15 1.15 0 00-.412-.245 1.43 1.43 0 00-.45-.07c-.268 0-.526.106-.72.295a1.092 1.092 0 00-.31.781 1.089 1.089 0 00.32.785.953.953 0 00.345.214c.132.047.27.075.42.075.182 0 .344-.038.49-.11.14-.068.266-.164.371-.28l.253.386zm.274-2.589h2.742v.537h-1.102v2.487h-.534v-2.487h-1.102v-.537h-.004z" fill="#000"/><path fill-rule="evenodd" clip-rule="evenodd" d="M58.59 34.434c.203-.065.375-.163.524-.3l-.162-.42c-.098.088-.23.163-.389.224s-.338.092-.534.092c-.294 0-.537-.078-.73-.238-.192-.16-.297-.384-.32-.67h2.311c.024-.105.034-.224.034-.363a1.388 1.388 0 00-.41-1.003 1.321 1.321 0 00-.445-.281 1.463 1.463 0 00-.545-.103c-.25 0-.47.045-.662.126a1.46 1.46 0 00-.484.337 1.423 1.423 0 00-.3.5 1.77 1.77 0 00-.105.617c0 .238.04.456.115.65a1.393 1.393 0 00.831.819 1.994 1.994 0 001.27.014zm-1.352-2.328c.166-.152.386-.227.663-.227.26 0 .47.071.622.214.152.143.233.34.246.591h-1.825a.93.93 0 01.294-.578z" fill="#000"/><path d="M60.049 31.44h.487l1.156 1.499 1.095-1.499h.473v3.024h-.534V32.26l-1.041 1.404h-.02l-1.082-1.404v2.205h-.534V31.44z" fill="#000"/><path fill-rule="evenodd" clip-rule="evenodd" d="M64.713 31.45c-.163.044-.317.111-.46.2l.142.43c.121-.062.243-.113.365-.157s.277-.065.463-.065c.149 0 .267.024.358.072a.476.476 0 01.206.194.835.835 0 01.095.302c.017.118.024.247.024.387a.908.908 0 00-.365-.153 2.069 2.069 0 00-.385-.04c-.16 0-.308.023-.45.064a.985.985 0 00-.362.183.873.873 0 00-.236.303.95.95 0 00-.088.41c0 .296.084.528.253.69.17.164.392.245.67.245.25 0 .45-.044.6-.132.153-.089.275-.19.363-.306v.39h.5v-1.854c0-.395-.084-.7-.257-.915-.169-.214-.47-.322-.895-.322-.19 0-.37.027-.541.075zm.892 2.45c-.121.089-.28.13-.476.13-.173 0-.308-.045-.403-.13a.451.451 0 01-.142-.347c0-.084.017-.155.055-.22a.497.497 0 01.145-.156.634.634 0 01.206-.092.924.924 0 01.237-.03c.263 0 .49.064.676.2v.383c-.088.1-.188.189-.298.263zm5.517-3.523a.825.825 0 00.304-.262l-.291-.424a.587.587 0 01-.254.21c-.1.04-.204.07-.31.088l-.102.019-.284.05c-.163.03-.322.08-.473.15a1.5 1.5 0 00-.578.427c-.145.18-.26.384-.338.608a3.229 3.229 0 00-.159.704c-.027.245-.04.479-.04.703 0 .289.037.55.11.785.076.234.18.431.319.59.138.164.304.287.5.375.196.088.416.132.663.132.226 0 .436-.044.625-.126a1.507 1.507 0 00.805-.828 1.55 1.55 0 00.114-.599c0-.227-.033-.434-.098-.618a1.34 1.34 0 00-.277-.472 1.233 1.233 0 00-.443-.306 1.516 1.516 0 00-.956-.058 1.442 1.442 0 00-.619.367 1 1 0 00-.196.289h-.014c.01-.14.028-.282.058-.428.03-.146.074-.286.132-.418.058-.132.132-.252.223-.36.098-.11.218-.197.351-.255.148-.071.303-.123.464-.153l.106-.02c.105-.019.206-.038.302-.058a1.62 1.62 0 00.356-.112zm-1.88 2.905a1.72 1.72 0 01-.074-.53.861.861 0 01.122-.289c.057-.092.131-.173.22-.245.198-.158.443-.243.695-.24.315 0 .552.098.717.292.166.197.247.441.247.737 0 .146-.027.279-.074.4a.966.966 0 01-.916.623.942.942 0 01-.73-.347 1.284 1.284 0 01-.207-.401zm6.588-1.842h-.534v3.024h.534V31.44zm-3.326 0h.534v.908h.494c.233 0 .422.03.574.088a.98.98 0 01.365.231.81.81 0 01.193.333c.037.126.057.255.057.39 0 .136-.02.266-.064.395a.896.896 0 01-.206.343.992.992 0 01-.385.245 1.69 1.69 0 01-.595.095h-.97V31.44h.003zm.534 1.414v1.107h.389c.267 0 .456-.047.564-.142.109-.096.162-.231.162-.411 0-.184-.057-.323-.165-.419-.112-.095-.298-.142-.554-.142h-.396v.007z" fill="#000"/><path d="M79.364 34.03a1.21 1.21 0 01-.5.376c-.209.087-.431.13-.656.13a1.83 1.83 0 01-.656-.112 1.448 1.448 0 01-.507-.32 1.452 1.452 0 01-.331-.5 1.737 1.737 0 01-.118-.648c0-.22.037-.425.115-.619.074-.194.182-.36.317-.5.136-.142.298-.25.48-.335.193-.087.402-.13.612-.126.24 0 .463.03.666.091.203.062.375.164.517.306l-.246.425c-.12-.11-.26-.193-.413-.245a1.428 1.428 0 00-.45-.07 1.036 1.036 0 00-.72.296 1.094 1.094 0 00-.31.781c0 .166.03.315.087.444.058.133.136.245.234.34a.95.95 0 00.344.214c.133.047.271.075.42.075.182 0 .344-.038.49-.11.14-.068.266-.164.372-.28l.253.386zm.274-2.59h2.741v.537h-1.102v2.487h-.534v-2.487h-1.102v-.537h-.003z" fill="#000"/><path fill-rule="evenodd" clip-rule="evenodd" d="M83.493 31.44h-.534v4.37h.534v-1.485c.108.072.237.123.385.157.149.034.305.05.463.05.237 0 .45-.044.643-.125.185-.08.352-.197.493-.343.139-.147.243-.317.318-.517.074-.2.111-.414.111-.642 0-.225-.033-.432-.098-.619a1.446 1.446 0 00-.277-.482 1.204 1.204 0 00-.436-.316c-.182-.08-.38-.119-.578-.116-.21 0-.405.041-.591.123-.186.082-.332.18-.433.302v-.356zm.372.561c.152-.081.318-.122.497-.122.156 0 .294.024.42.075a.837.837 0 01.307.217.905.905 0 01.19.333 1.3 1.3 0 01.064.421c0 .164-.028.31-.075.446a.946.946 0 01-.534.574 1.064 1.064 0 01-.436.085c-.145 0-.28-.017-.41-.051a1.327 1.327 0 01-.394-.184v-1.498a1.22 1.22 0 01.371-.296zm6.138-.56h-.534v3.023h.534V31.44zm-3.33 0h.535v.907h.493c.234 0 .423.03.575.088a.98.98 0 01.365.231.806.806 0 01.192.333c.038.126.058.255.058.39 0 .136-.02.266-.064.395a.896.896 0 01-.206.343.992.992 0 01-.386.245 1.69 1.69 0 01-.594.095h-.97V31.44h.003zm.538 1.413v1.107h.39c.266 0 .456-.047.564-.142.108-.096.162-.231.162-.411 0-.184-.058-.323-.165-.419-.112-.095-.298-.142-.555-.142h-.395v.007z" fill="#000"/><path d="M92.567 32.898l1.142 1.566h-.656l-.882-1.223-.896 1.223h-.622l1.136-1.539-1.068-1.485h.656l.814 1.142.828-1.142h.622l-1.075 1.458zm-46.923 5.304h-1.64v2.521h-.533v-3.024h2.707v3.024h-.534v-2.521zm3.566.034h-1.055l-.034.51a6.235 6.235 0 01-.158 1.042 1.93 1.93 0 01-.26.612.75.75 0 01-.356.29c-.14.05-.287.076-.436.074l-.04-.524a.428.428 0 00.2-.044.56.56 0 00.219-.22c.07-.116.135-.28.193-.49a4.3 4.3 0 00.114-.843l.055-.94h2.092v3.023h-.534v-2.49z" fill="#000"/><path fill-rule="evenodd" clip-rule="evenodd" d="M51.185 37.706a1.658 1.658 0 00-.46.2l.142.429c.122-.062.244-.113.365-.157.122-.044.278-.064.463-.064.15 0 .267.023.359.07a.477.477 0 01.206.195.846.846 0 01.094.302c.017.12.024.248.024.387a.907.907 0 00-.365-.152 2.06 2.06 0 00-.385-.041 1.61 1.61 0 00-.45.064.981.981 0 00-.362.184.872.872 0 00-.236.302.952.952 0 00-.088.412c0 .295.085.526.254.69.168.162.392.244.669.244.25 0 .45-.044.602-.133.151-.088.273-.19.361-.306v.391h.5v-1.855c0-.394-.084-.7-.257-.914-.169-.214-.47-.322-.895-.322-.183 0-.365.025-.54.074zm.896 2.45c-.121.088-.28.129-.477.129-.175 0-.307-.044-.402-.13a.451.451 0 01-.142-.346c0-.085.017-.156.054-.22a.493.493 0 01.146-.157.633.633 0 01.206-.092.922.922 0 01.236-.03c.264 0 .49.064.677.2v.384c-.088.1-.188.187-.298.261z" fill="#000"/><path d="M53.4 37.7h2.742v.536H55.04v2.487h-.534v-2.487h-1.102V37.7H53.4z" fill="#000"/><path fill-rule="evenodd" clip-rule="evenodd" d="M58.636 40.692c.203-.064.375-.163.523-.299l-.162-.421c-.098.089-.23.163-.389.225a1.476 1.476 0 01-.533.091c-.294 0-.538-.078-.73-.238-.194-.16-.298-.383-.322-.67h2.312c.024-.104.034-.223.034-.363a1.39 1.39 0 00-.41-1.002 1.315 1.315 0 00-.445-.282 1.462 1.462 0 00-.544-.102c-.25 0-.47.044-.663.126a1.453 1.453 0 00-.483.336 1.431 1.431 0 00-.301.5 1.78 1.78 0 00-.105.618c0 .238.04.455.115.65a1.391 1.391 0 00.832.819 1.995 1.995 0 001.27.013zm-1.356-2.33c.166-.153.386-.228.663-.228.264 0 .47.075.622.214.152.143.233.34.247.591h-1.826a.928.928 0 01.294-.577zm2.35-.663h.675l1.031 1.458-1.102 1.566h-.655l1.155-1.566-1.105-1.458zm1.838 0h.534v3.024h-.534v-3.024zm2.444 3.024l-1.176-1.566 1.098-1.458h-.663l-1.037 1.458 1.115 1.566h.663zm2.44-.03c.203-.065.375-.164.524-.3l-.162-.421c-.098.089-.23.163-.389.225a1.48 1.48 0 01-.534.091c-.294 0-.537-.078-.73-.238-.193-.16-.297-.383-.321-.67h2.312c.024-.104.034-.223.034-.363a1.383 1.383 0 00-.41-1.002 1.316 1.316 0 00-.445-.282 1.462 1.462 0 00-.545-.102c-.25 0-.47.044-.662.126a1.42 1.42 0 00-.784.836 1.77 1.77 0 00-.105.618c0 .238.04.455.115.65a1.39 1.39 0 00.831.819 1.994 1.994 0 001.27.013zm-1.355-2.331c.166-.153.386-.228.663-.228.26 0 .47.075.621.214.153.143.234.34.247.591h-1.825a.927.927 0 01.294-.577zm4.256-1.679c-.315 0-.487-.176-.514-.53h-.504c0 .136.024.258.068.374a.804.804 0 00.193.296.985.985 0 00.317.196c.125.051.27.075.436.075a1.046 1.046 0 00.72-.271.857.857 0 00.2-.296.967.967 0 00.07-.374h-.5c-.023.354-.189.53-.486.53zM67.809 37.7v3.024h.534l1.738-2.253v2.253h.534v-3.024h-.534l-1.738 2.253v-2.253h-.534z" fill="#000"/></svg><svg fill="none" viewBox="0 0 16 16" id="search" xmlns="http://www.w3.org/2000/svg"><g clip-path="url(#ckclip0_938_9508)"><path d="M12.334 12.334l2.333 2.333m-.667-7a6.333 6.333 0 10-12.667 0 6.333 6.333 0 0012.667 0z" stroke="#000" stroke-width="1.5" stroke-linecap="round" stroke-linejoin="round"/></g><defs><clipPath id="ckclip0_938_9508"><path fill="#fff" d="M0 0h16v16H0z"/></clipPath></defs></svg><svg fill="none" viewBox="0 0 34 34" id="search_icon" xmlns="http://www.w3.org/2000/svg"><path d="M27.625 23.67l2.723 2.721a2.797 2.797 0 11-3.956 3.956l-2.723-2.722M2.834 14.875c0-6.65 5.39-12.042 12.041-12.042 6.65 0 12.042 5.392 12.042 12.042 0 6.65-5.391 12.042-12.042 12.042-6.65 0-12.041-5.392-12.041-12.042z" stroke="#fff" stroke-width="2" stroke-linecap="round"/></svg><svg fill="none" viewBox="0 0 24 24" id="telegram" xmlns="http://www.w3.org/2000/svg"><path d="M12 24C5.373 24 0 18.627 0 12S5.373 0 12 0s12 5.373 12 12-5.373 12-12 12z" fill="#416FF4"/><path d="M10.004 14.441l-.204 3.06c.3 0 .432-.138.6-.3l1.441-1.402 2.999 2.215c.552.305.95.147 1.087-.512l1.969-9.277c.201-.808-.308-1.174-.836-.934L5.5 11.748c-.788.316-.784.756-.143.953l2.966.925 6.868-4.332c.324-.197.621-.091.377.126l-5.564 5.021z" fill="#fff"/></svg><svg fill="none" viewBox="0 0 20 20" id="tick-blue" xmlns="http://www.w3.org/2000/svg"><path d="M4.166 10.833l2.939 2.351c.69.552 1.69.47 2.28-.186l6.448-7.165" stroke="#416FF4" stroke-width="2" stroke-linecap="round" stroke-linejoin="round"/></svg><svg fill="none" viewBox="0 0 20 20" id="tick-green" xmlns="http://www.w3.org/2000/svg"><path d="M4.167 10.834l2.938 2.35c.69.552 1.69.47 2.28-.186l6.448-7.164" stroke="#22C55E" stroke-width="2" stroke-linecap="round" stroke-linejoin="round"/></svg><svg fill="none" viewBox="0 0 18 18" id="tick-white" xmlns="http://www.w3.org/2000/svg"><path d="M3.75 9.75l2.645 2.116a1.5 1.5 0 002.052-.168L14.25 5.25" stroke="#fff" stroke-width="1.5" stroke-linecap="round" stroke-linejoin="round"/></svg><svg fill="none" viewBox="0 0 80 50" id="unionpay_logo" xmlns="http://www.w3.org/2000/svg"><g clip-path="url(#cqclip0_254_14276)"><path d="M15.638 0h19.93c2.783 0 4.513 2.268 3.864 5.06l-9.279 39.839c-.655 2.781-3.44 5.051-6.224 5.051H3.999c-2.778 0-4.512-2.27-3.863-5.051L9.42 5.059C10.07 2.27 12.852 0 15.638 0z" fill="#E21836"/><path d="M33.91 0h22.92c2.782 0 1.527 2.268.873 5.06l-9.278 39.839c-.65 2.781-.448 5.05-3.235 5.05H22.27c-2.788 0-4.513-2.269-3.858-5.05l9.277-39.84C28.35 2.268 31.127 0 33.91 0z" fill="#00447C"/><path d="M55.92 0h19.932c2.786 0 4.516 2.268 3.862 5.06l-9.278 39.839c-.655 2.781-3.442 5.05-6.228 5.05H44.287c-2.788 0-4.517-2.269-3.864-5.05l9.28-39.84C50.35 2.268 53.132 0 55.92 0z" fill="#007B84"/><path d="M20.842 12.768c-2.05.02-2.655 0-2.848-.046-.074.353-1.457 6.733-1.461 6.738-.298 1.291-.515 2.211-1.25 2.805-.419.346-.906.512-1.472.512-.909 0-1.438-.45-1.527-1.307l-.017-.294s.277-1.729.277-1.738c0 0 1.451-5.814 1.711-6.583a.56.56 0 00.021-.088c-2.825.025-3.326 0-3.36-.045-.02.063-.09.423-.09.423l-1.482 6.553-.127.556-.246 1.817c0 .54.106.98.316 1.352.676 1.18 2.602 1.357 3.691 1.357 1.405 0 2.722-.298 3.612-.843 1.544-.913 1.948-2.34 2.309-3.608l.167-.65s1.495-6.038 1.75-6.824c.01-.044.013-.067.026-.088zm5.088 4.87c-.36 0-1.02.088-1.611.378-.215.11-.418.238-.632.365l.193-.698-.106-.118c-1.255.254-1.535.288-2.695.451l-.097.065c-.134 1.116-.254 1.955-.753 4.148-.19.809-.387 1.625-.584 2.431l.053.103a28.817 28.817 0 012.58-.046l.084-.09c.131-.673.148-.83.439-2.19.136-.646.42-2.064.561-2.568.258-.12.513-.237.756-.237.578 0 .508.504.486.705-.025.338-.236 1.44-.452 2.388l-.145.61c-.1.452-.21.89-.311 1.338l.044.09a27.753 27.753 0 012.527-.046l.118-.09c.18-1.05.234-1.331.554-2.859l.162-.702c.313-1.374.47-2.07.233-2.638-.25-.636-.852-.79-1.404-.79zm5.683 1.44c-.622.119-1.019.198-1.413.25-.392.063-.773.12-1.374.203l-.048.043-.044.035c-.062.448-.106.835-.19 1.29-.07.47-.178 1.006-.354 1.774-.137.588-.207.793-.285 1-.076.207-.16.408-.313.987l.036.053.03.05c.562-.027.93-.046 1.308-.05.377-.013.769 0 1.374.004l.053-.043.057-.048c.087-.522.1-.662.154-.917.053-.273.144-.65.368-1.66.106-.474.224-.947.334-1.43.114-.483.233-.957.347-1.431l-.017-.058-.023-.053zm.013-1.94c-.565-.334-1.558-.228-2.226.233-.665.452-.741 1.093-.178 1.431.556.325 1.552.228 2.214-.237.665-.461.748-1.097.19-1.427zm3.42 7.73c1.144 0 2.317-.316 3.2-1.252.679-.759.99-1.888 1.098-2.352.351-1.541.078-2.261-.266-2.7-.521-.667-1.444-.881-2.4-.881-.575 0-1.945.056-3.015 1.043-.769.712-1.124 1.678-1.338 2.604-.216.943-.465 2.641 1.097 3.273.482.207 1.176.264 1.624.264zm-.09-3.468c.265-1.167.576-2.146 1.37-2.146.624 0 .669.728.392 1.9-.05.26-.277 1.225-.585 1.637-.214.303-.468.488-.75.488-.083 0-.58 0-.588-.738-.003-.365.071-.737.162-1.141zm7.248 3.317l.09-.09c.126-.673.147-.83.428-2.19.14-.646.43-2.064.567-2.568.259-.12.509-.238.76-.238.574 0 .504.505.481.706-.02.338-.231 1.44-.451 2.387l-.137.611c-.104.452-.218.89-.319 1.338l.044.09a27.658 27.658 0 012.524-.046l.121-.09c.177-1.05.224-1.331.555-2.859l.157-.702c.315-1.374.474-2.07.241-2.638-.258-.636-.863-.789-1.408-.789a3.93 3.93 0 00-1.611.377c-.21.11-.421.238-.628.365l.18-.698-.097-.118c-1.254.254-1.54.288-2.698.451l-.09.065c-.14 1.116-.254 1.954-.753 4.148-.19.809-.387 1.625-.584 2.431l.053.103a28.724 28.724 0 012.575-.046zm8.63.046c.074-.361.513-2.498.517-2.498 0 0 .373-1.567.396-1.624 0 0 .118-.163.235-.228h.173c1.632 0 3.475 0 4.919-1.062.983-.729 1.655-1.805 1.954-3.113a4.7 4.7 0 00.135-1.083c0-.501-.1-.996-.39-1.384-.737-1.03-2.204-1.049-3.897-1.057l-.834.008c-2.168.027-3.037.019-3.394-.025-.03.158-.087.439-.087.439s-.776 3.598-.776 3.604l-1.945 8.01c1.892-.023 2.668-.023 2.994.012zm1.439-6.392l.821-3.577.027-.184.012-.14.33.034 1.742.15c.672.26.948.93.755 1.804-.176.8-.695 1.471-1.36 1.796-.55.275-1.221.297-1.913.297h-.448l.034-.18zm5.139 3.096c-.218.93-.469 2.628 1.085 3.233.496.21.94.273 1.39.25.477-.025.92-.264 1.328-.608l-.11.425.07.09a41.343 41.343 0 012.675-.037l.11-.084c.177-1.04.344-2.05.803-4.038.224-.953.448-1.896.678-2.845l-.036-.104a50.44 50.44 0 01-2.788.452l-.091.074-.037.282a1.72 1.72 0 00-.876-.72c-.535-.211-1.791.06-2.871 1.043-.759.702-1.123 1.664-1.33 2.587zm2.626.056c.268-1.146.575-2.115 1.372-2.115.504 0 .769.465.715 1.257-.043.198-.089.407-.144.642-.08.34-.166.678-.25 1.016-.086.232-.185.45-.294.595-.205.29-.693.47-.974.47-.08 0-.571 0-.588-.724-.004-.361.07-.733.163-1.14zm13.714-3.784l-.096-.11c-1.238.25-1.462.29-2.598.444l-.084.084c-.004.013-.007.034-.013.053l-.004-.019c-.846 1.953-.822 1.531-1.51 3.069-.004-.07-.004-.114-.008-.189l-.172-3.332-.109-.11c-1.296.25-1.327.29-2.524.444l-.093.084c-.013.04-.013.083-.02.13l.007.018c.15.765.114.594.264 1.8.07.593.163 1.189.233 1.773.118.98.184 1.461.328 2.955-.808 1.334-1 1.839-1.778 3.01l.006.011-.548.867c-.063.091-.12.154-.2.18-.087.044-.2.052-.358.052h-.304l-.451 1.5 1.548.027c.909-.003 1.48-.429 1.788-1l.973-1.668h-.015l.102-.118c.655-1.41 5.636-9.955 5.636-9.955zm-16.34 19.715h-.657l2.43-8.04h.807l.256-.829.025.922c-.03.569.418 1.074 1.594.99h1.361l.468-1.548h-.511c-.295 0-.431-.074-.414-.234l-.025-.937h-2.52v.005c-.815.017-3.248.078-3.74.21-.596.153-1.224.605-1.224.605l.246-.83h-2.357l-.49 1.646-2.464 8.163h-.478l-.47 1.537h4.696l-.158.513h2.314l.153-.513h.65l.508-1.66zm-1.926-6.406c-.378.104-1.08.42-1.08.42l.624-2.054h1.873l-.452 1.497s-.578.034-.965.137zm.036 2.935s-.589.074-.976.162c-.381.115-1.096.48-1.096.48l.645-2.139h1.882l-.455 1.497zm-1.05 3.49h-1.878l.544-1.804h1.873l-.539 1.804zm4.524-4.987h2.708l-.39 1.26h-2.743l-.412 1.378h2.401l-1.818 2.56a.749.749 0 01-.368.307c-.127.065-.294.14-.488.14h-.666l-.457 1.51h1.742c.905 0 1.44-.413 1.835-.953l1.246-1.706.268 1.732c.057.324.29.514.448.588.175.088.355.238.61.26.272.012.47.021.6.021h.857l.514-1.689h-.338c-.194 0-.528-.032-.584-.093-.057-.074-.057-.187-.088-.36l-.271-1.737H62.49l.487-.58h2.739l.421-1.378h-2.535l.395-1.26h2.527l.469-1.554h-7.536l-.46 1.554zm-22.87 5.338l.632-2.102h2.597l.475-1.564h-2.6l.397-1.294h2.54l.471-1.515h-6.357l-.46 1.515h1.443l-.385 1.294h-1.448l-.48 1.59h1.444l-.843 2.782c-.113.368.054.509.16.68a.696.696 0 00.465.34c.254.056.429.09.666.09h2.928l.522-1.732-1.298.178c-.25 0-.945-.03-.87-.262zm.298-10.065l-.659 1.19c-.14.26-.267.42-.381.495-.101.063-.3.09-.589.09h-.343l-.46 1.521h1.141c.549 0 .97-.201 1.171-.302.216-.115.273-.05.44-.21l.386-.334h3.561l.473-1.585h-2.607l.455-.865h-2.588zm5.258 10.096c-.06-.088-.017-.242.076-.562l.973-3.223h3.464c.505-.007.869-.013 1.106-.03.255-.026.531-.117.833-.28.311-.172.47-.352.605-.559.15-.206.391-.658.598-1.355l1.224-4.078-3.594.021s-1.106.164-1.594.344c-.491.201-1.194.763-1.194.763l.325-1.118h-2.22l-3.109 10.308c-.11.4-.184.69-.2.865-.007.188.236.374.394.515.186.14.46.117.725.14.277.02.672.034 1.216.034h1.706l.524-1.768-1.527.144a.402.402 0 01-.33-.161zm1.678-5.961h3.637l-.231.725c-.032.017-.11-.036-.48.008h-3.15l.224-.733zm.728-2.431h3.669l-.264.873s-1.73-.017-2.006.034c-1.218.21-1.93.862-1.93.862l.531-1.769zm2.76 5.583a.388.388 0 01-.145.224c-.074.047-.193.064-.372.064h-.518l.03-.882h-2.155l-.088 4.315c-.003.311.027.492.255.636.228.18.93.203 1.875.203h1.35l.488-1.615-1.176.064-.39.023c-.054-.023-.105-.044-.162-.1-.05-.05-.133-.02-.12-.33l.01-1.107 1.233-.05c.666 0 .95-.218 1.194-.424.231-.198.307-.425.395-.733l.207-.979h-1.695l-.217.69z" fill="#FEFEFE"/></g><defs><clipPath id="cqclip0_254_14276"><path fill="#fff" d="M0 0h80v50H0z"/></clipPath></defs></svg><svg fill="none" viewBox="0 0 98 33" id="visa_logo" xmlns="http://www.w3.org/2000/svg"><path fill-rule="evenodd" clip-rule="evenodd" d="M29.658 31.502L38.836 1.24h8.187L37.845 31.5h-8.187zM25.994 1.247l-7.366 12.825c-1.877 3.359-2.97 5.059-3.5 7.178h-.113c.13-2.692-.248-5.997-.277-7.862l-.815-12.141H.142L0 2.06c3.541 0 5.643 1.777 6.221 5.419l2.685 24.022h8.482L34.54 1.247h-8.546zM89.671 31.502l-.224-4.498H79.224l-2.09 4.498h-8.888L84.36 1.294h10.913L98 31.496h-8.328v.006zm-.938-17.849c-.089-2.237-.166-5.27-.018-7.106h-.118c-.496 1.505-2.638 6.014-3.583 8.234l-3.045 6.634h7.177l-.42-7.756.007-.006zM55.617 32.358c-5.784 0-9.62-1.836-12.36-3.471l3.902-5.955c2.461 1.375 4.392 2.963 8.83 2.963 1.428 0 2.803-.372 3.589-1.724 1.139-1.965-.266-3.028-3.46-4.84l-1.581-1.027c-4.74-3.24-6.794-6.315-4.562-11.692C51.403 3.177 55.169.568 61.384.568c4.285 0 8.304 1.853 10.647 3.665l-4.486 5.26c-2.284-1.848-4.178-2.78-6.344-2.78-1.73 0-3.04.666-3.495 1.563-.855 1.688.278 2.84 2.769 4.392l1.877 1.192c5.754 3.63 7.13 7.437 5.683 10.996-2.484 6.126-7.342 7.496-12.424 7.496l.006.006z" fill="#1434CB"/></svg><svg fill="none" viewBox="0 0 98 57" id="yandex_logo" xmlns="http://www.w3.org/2000/svg"><g clip-path="url(#csclip0_254_14159)"><path d="M18.03.032C37.7-.026 57.369.02 77.038 0c4.22.026 8.553.021 12.605 1.346 2.605.825 4.93 2.586 6.202 5.014 1.865 3.48 2.108 7.527 2.15 11.39-.015 7.701.043 15.402-.026 23.102-.121 4.61-.893 9.861-4.755 12.92-3.83 2.913-8.907 3.044-13.524 3.202-18.49.042-36.987.005-55.482.016-4.766-.043-9.61.204-14.296-.878-3.033-.673-6.028-2.318-7.592-5.089C.333 47.666-.001 43.666.01 39.843c.016-8.09-.053-16.184.037-24.274.085-4.573 1.115-9.776 5.072-12.63C8.875.367 13.635.21 18.031.031z" fill="#FF4833"/><path d="M61.87 22.776c.686 2.292 1.194 4.625 1.817 6.928-1.168-.01-2.34-.021-3.508-.037.57-2.297 1.2-4.578 1.69-6.891zm-12.062-.8c1.3.074 3.08-.236 3.815 1.147.602 1.214.533 2.964-.57 3.884-.915.726-2.156.526-3.24.605v-5.635h-.005zm-24.66-1.329c2.208-1.172 4.802-.615 7.19-.73.026 5.072.036 10.139 0 15.211-.814-.01-1.633-.016-2.452-.016-.026-4.394 0-8.783-.01-13.172-1.802-.2-4.586.242-4.507 2.58-.364 2.372 1.928 3.717 3.593 4.874-1.178 1.929-2.415 3.821-3.64 5.718h-2.853c1.051-1.75 2.234-3.41 3.354-5.114-1.082-.936-2.35-1.855-2.747-3.3-.824-2.146-.053-4.958 2.077-6.046l-.006-.005zm41.751-.7c1.368 2.95 3.08 5.746 4.31 8.758.149 2.129 0 4.268.085 6.407.883 0 1.765 0 2.647.006.064-2.16-.068-4.326.058-6.487 1.226-2.975 2.922-5.745 4.232-8.688-.787-.021-1.569-.048-2.346-.069-1.125 2.056-2.065 4.205-3.132 6.292-1.025-2.092-2.008-4.21-3.086-6.276-.924.021-1.849.042-2.768.058zm-6.44-.01c-1.257 5.078-2.668 10.119-3.936 15.196.787-.031 1.57-.068 2.351-.136.222-1.036.465-2.066.75-3.086a60.166 60.166 0 014.57-.052c.275 1.088.565 2.17.85 3.253.91 0 1.813 0 2.721.011-1.32-5.078-2.583-10.166-3.988-15.217-1.104 0-2.214.016-3.318.031zm-13.297-.015c.068 5.077-.117 10.16.09 15.233.845-.022 1.695-.032 2.54-.043.038-1.813-.036-3.626.096-5.43 2.224.122 4.987-.178 6.186-2.338.999-2.06.84-5.036-1.189-6.44-2.266-1.555-5.156-.846-7.723-.982zm-22.305-4.705c-5.537 1.34-9.695 6.818-9.335 12.5-.201 6.244 5.119 11.995 11.38 12.373 4.358.452 8.811-1.63 11.31-5.204 2.636-3.663 2.98-8.751 1.136-12.825-2.34-5.383-8.823-8.4-14.491-6.844z" fill="#fff"/></g><defs><clipPath id="csclip0_254_14159"><path fill="#fff" d="M0 0h98v57H0z"/></clipPath></defs></svg><svg fill="none" viewBox="0 0 24 24" id="youtube" xmlns="http://www.w3.org/2000/svg"><path d="M0 12C0 5.373 5.373 0 12 0s12 5.373 12 12-5.373 12-12 12S0 18.627 0 12z" fill="#416FF4"/><path fill-rule="evenodd" clip-rule="evenodd" d="M17 7.875c.551.15.985.596 1.132 1.162.268 1.025.268 3.163.268 3.163s0 2.139-.268 3.164A1.625 1.625 0 0117 16.526c-.998.274-5 .274-5 .274s-4.003 0-5.001-.274a1.625 1.625 0 01-1.132-1.162C5.6 14.338 5.6 12.2 5.6 12.2s0-2.138.267-3.163c.147-.566.581-1.011 1.132-1.162.998-.275 5-.275 5-.275s4.003 0 5.001.275zM10.8 10.4v4l3.2-2-3.2-2z" fill="#fff"/></svg></svg>