<svg width="24" height="24" viewBox="0 0 24 24" fill="none" xmlns="http://www.w3.org/2000/svg">
<path d="M12 24C5.37258 24 0 18.6274 0 12C0 5.37258 5.37258 0 12 0C18.6274 0 24 5.37258 24 12C24 18.6274 18.6274 24 12 24Z" fill="#416FF4"/>
<path d="M10.0039 14.4414L9.79973 17.5002C10.0997 17.5002 10.2323 17.363 10.3997 17.2002L11.8411 15.7987L14.8397 18.0141C15.3916 18.3186 15.7899 18.161 15.9273 17.5018L17.8958 8.22549C18.0974 7.41747 17.5878 7.05099 17.0599 7.29067L5.50088 11.7478C4.71187 12.0642 4.71647 12.5044 5.35706 12.7006L8.32337 13.6264L15.1907 9.2939C15.5149 9.09731 15.8124 9.203 15.5682 9.41974L10.0037 14.4412L10.0039 14.4414Z" fill="white"/>
</svg>
