<svg width="80" height="50" viewBox="0 0 80 50" fill="none" xmlns="http://www.w3.org/2000/svg">
<g clip-path="url(#clip0_254_14276)">
<path d="M15.6379 0.000392914H35.5687C38.3509 0.000392914 40.0813 2.26809 39.4323 5.05949L30.1531 44.8988C29.4982 47.6804 26.7127 49.9501 23.9286 49.9501H3.99969C1.22142 49.9501 -0.512877 47.6804 0.136148 44.8988L9.41925 5.05949C10.0683 2.26809 12.8524 0.000392914 15.6379 0.000392914Z" fill="#E21836"/>
<path d="M33.9101 0.000209808H56.83C59.6117 0.000209808 58.3574 2.26791 57.703 5.0593L48.4253 44.8986C47.7743 47.6802 47.9774 49.9499 45.1899 49.9499H22.2699C19.4824 49.9499 17.7574 47.6802 18.4122 44.8986L27.6895 5.0593C28.3482 2.26791 31.1265 0.000209808 33.9101 0.000209808Z" fill="#00447C"/>
<path d="M55.9209 0.000209808H75.8517C78.6378 0.000209808 80.3682 2.26791 79.7138 5.0593L70.436 44.8986C69.7812 47.6802 66.9937 49.9499 64.2081 49.9499H44.2866C41.499 49.9499 39.7701 47.6802 40.423 44.8986L49.7022 5.0593C50.3512 2.26791 53.1334 0.000209808 55.9209 0.000209808Z" fill="#007B84"/>
<path d="M20.8421 12.7675C18.7926 12.7884 18.1872 12.7675 17.9939 12.7219C17.9196 13.0751 16.5365 19.455 16.5326 19.4604C16.2348 20.7511 16.0182 21.6712 15.2822 22.2654C14.8644 22.6108 14.3767 22.7774 13.8112 22.7774C12.9023 22.7774 12.3727 22.3261 12.2838 21.4701L12.2668 21.1762C12.2668 21.1762 12.5437 19.4473 12.5437 19.4375C12.5437 19.4375 13.9953 13.6235 14.2552 12.855C14.2688 12.8113 14.2727 12.7884 14.2761 12.7675C11.4507 12.7923 10.9498 12.7675 10.9153 12.7219C10.8964 12.7845 10.8264 13.145 10.8264 13.145L9.34428 19.6979L9.217 20.2537L8.9707 22.0715C8.9707 22.6108 9.07661 23.0509 9.28744 23.423C9.9627 24.603 11.8889 24.7799 12.9785 24.7799C14.3825 24.7799 15.6995 24.4816 16.5895 23.937C18.1343 23.0242 18.5385 21.5974 18.8989 20.3295L19.0661 19.679C19.0661 19.679 20.5613 13.6405 20.8154 12.855C20.8251 12.8113 20.829 12.7884 20.8421 12.7675ZM25.9297 17.6388C25.5693 17.6388 24.9105 17.7263 24.3188 18.0163C24.1041 18.1266 23.9011 18.2539 23.6868 18.3806L23.8802 17.6826L23.7743 17.565C22.5194 17.8191 22.2387 17.8531 21.0795 18.0163L20.9824 18.0809C20.8478 19.1968 20.7283 20.0358 20.2294 22.2291C20.0394 23.0375 19.8422 23.8536 19.6445 24.6601L19.6979 24.7626C20.8857 24.6999 21.2462 24.6999 22.2785 24.7169L22.362 24.6261C22.4932 23.9542 22.5102 23.7968 22.8007 22.4361C22.9372 21.7909 23.2219 20.3734 23.3623 19.8686C23.6203 19.7491 23.8748 19.6316 24.1177 19.6316C24.6963 19.6316 24.6259 20.1363 24.6035 20.3374C24.5787 20.6751 24.3679 21.7778 24.1517 22.7246L24.0074 23.3358C23.9069 23.7871 23.7966 24.2258 23.696 24.6732L23.7398 24.7626C24.9105 24.6999 25.2676 24.6999 26.2674 24.7169L26.3849 24.6261C26.5656 23.5767 26.6186 23.2959 26.9392 21.7681L27.1005 21.0661C27.4139 19.6923 27.5712 18.9957 27.3342 18.4283C27.0835 17.7923 26.4821 17.6388 25.9297 17.6388ZM31.6132 19.0772C30.9909 19.1967 30.594 19.2764 30.1995 19.3279C29.8084 19.3906 29.4271 19.4474 28.8257 19.531L28.7781 19.5742L28.7343 19.6087C28.6717 20.0566 28.628 20.4438 28.5449 20.899C28.4744 21.3697 28.3661 21.9046 28.1898 22.6731C28.0533 23.2614 27.9828 23.4664 27.9051 23.6734C27.8293 23.8803 27.7457 24.0814 27.5922 24.66L27.6282 24.7134L27.6583 24.7625C28.2204 24.7358 28.5881 24.7169 28.9661 24.7134C29.3435 24.6998 29.7346 24.7134 30.3399 24.7168L30.3929 24.6736L30.4497 24.626C30.5371 24.1043 30.5503 23.9639 30.6037 23.7093C30.6566 23.4363 30.748 23.0583 30.9719 22.0489C31.0778 21.5747 31.1959 21.102 31.3057 20.6182C31.4198 20.1363 31.5393 19.6616 31.653 19.1875L31.636 19.1302L31.6132 19.0772ZM31.6264 17.1378C31.061 16.8041 30.0685 16.91 29.4005 17.371C28.7345 17.8228 28.6587 18.4641 29.2222 18.8022C29.778 19.1267 30.7744 19.03 31.4365 18.5651C32.1011 18.1036 32.1841 17.4682 31.6264 17.1378ZM35.0462 24.8671C36.1903 24.8671 37.363 24.5518 38.2457 23.6162C38.9248 22.8574 39.2362 21.7284 39.3441 21.2635C39.6953 19.7225 39.4218 19.003 39.0783 18.5649C38.5566 17.8969 37.6345 17.6827 36.678 17.6827C36.1028 17.6827 34.7329 17.7395 33.6627 18.7261C32.8941 19.4378 32.539 20.4036 32.3248 21.3295C32.1086 22.2729 31.8599 23.9713 33.4217 24.6033C33.9036 24.8103 34.5983 24.8671 35.0462 24.8671ZM34.9568 21.4C35.2206 20.2331 35.532 19.2537 36.3268 19.2537C36.9496 19.2537 36.9947 19.9824 36.7178 21.1532C36.6683 21.4131 36.4409 22.3793 36.1334 22.7908C35.9187 23.0944 35.6646 23.2785 35.3838 23.2785C35.3003 23.2785 34.8033 23.2786 34.7955 22.5406C34.7917 22.1763 34.866 21.8042 34.9568 21.4ZM42.204 24.717L42.2933 24.6262C42.4201 23.9543 42.441 23.7965 42.7218 22.4362C42.8622 21.7911 43.1527 20.3735 43.2892 19.8688C43.5477 19.7488 43.7979 19.6312 44.0485 19.6312C44.6232 19.6312 44.5533 20.136 44.5304 20.3371C44.5095 20.6752 44.2987 21.7775 44.0786 22.7243L43.9421 23.3354C43.8377 23.7872 43.724 24.2254 43.6235 24.6733L43.6672 24.7627C44.8418 24.7 45.1853 24.7 46.1909 24.717L46.3123 24.6262C46.4887 23.5764 46.5363 23.2956 46.8666 21.7683L47.024 21.0658C47.3388 19.692 47.4982 18.9958 47.265 18.4284C47.007 17.7925 46.4017 17.639 45.8571 17.639C45.4962 17.639 44.8341 17.7259 44.2458 18.0164C44.0354 18.1267 43.8246 18.2535 43.6176 18.3808L43.7979 17.6827L43.7012 17.5646C42.4469 17.8192 42.1602 17.8532 41.0026 18.0164L40.9137 18.0811C40.7733 19.1969 40.6591 20.0354 40.1602 22.2293C39.9703 23.0376 39.773 23.8538 39.5758 24.6602L39.6287 24.7627C40.8185 24.7 41.1736 24.7 42.204 24.717ZM50.8344 24.7625C50.9082 24.402 51.3469 22.2655 51.3508 22.2655C51.3508 22.2655 51.7244 20.6978 51.7472 20.641C51.7472 20.641 51.8648 20.4777 51.9823 20.4131H52.1553C53.7871 20.4131 55.6297 20.4131 57.074 19.3507C58.0567 18.622 58.7286 17.5459 59.0283 16.2382C59.1061 15.9176 59.1634 15.5362 59.1634 15.1549C59.1634 14.654 59.0628 14.1585 58.7723 13.7713C58.0358 12.7409 56.5692 12.722 54.8762 12.7142C54.8709 12.7142 54.0416 12.722 54.0416 12.722C51.8745 12.7487 51.0054 12.7409 50.6483 12.6972C50.6182 12.8551 50.5614 13.1359 50.5614 13.1359C50.5614 13.1359 49.7851 16.7337 49.7851 16.7395C49.7851 16.7395 47.9274 24.3889 47.8399 24.7493C49.7321 24.7265 50.5079 24.7265 50.8344 24.7625ZM52.2728 18.3713C52.2728 18.3713 53.0982 14.7808 53.0943 14.7944L53.121 14.6103L53.1327 14.4699L53.4625 14.5039C53.4625 14.5039 55.1648 14.6501 55.2046 14.654C55.8765 14.9139 56.1534 15.5838 55.96 16.4582C55.7837 17.2574 55.2653 17.9292 54.5993 18.2538C54.0508 18.5287 53.379 18.5515 52.6867 18.5515H52.2388L52.2728 18.3713ZM57.4118 21.4665C57.1937 22.3963 56.943 24.0946 58.4971 24.6999C58.9926 24.9108 59.4366 24.9734 59.8879 24.9506C60.3645 24.9249 60.8061 24.6859 61.2151 24.3419C61.1782 24.4833 61.1413 24.6246 61.1043 24.7665L61.1748 24.8573C62.2926 24.8102 62.6395 24.8102 63.8505 24.8195L63.9603 24.7359C64.1372 23.6963 64.3038 22.6868 64.7634 20.6979C64.9873 19.7453 65.2108 18.8019 65.4406 17.8531L65.4046 17.7487C64.1542 17.9804 63.8199 18.0299 62.6171 18.2005L62.5258 18.2748C62.5136 18.3715 62.501 18.4643 62.4893 18.557C62.3023 18.2549 62.0312 17.9969 61.613 17.8361C61.0781 17.6258 59.8218 17.8968 58.7419 18.8801C57.9831 19.5821 57.6187 20.5439 57.4118 21.4665ZM60.038 21.5233C60.3057 20.3773 60.6132 19.4077 61.4099 19.4077C61.9137 19.4077 62.1789 19.8726 62.125 20.6654C62.0822 20.8631 62.0361 21.0715 61.9812 21.3071C61.9015 21.6477 61.8151 21.9853 61.731 22.3234C61.6455 22.5547 61.5459 22.7728 61.4366 22.918C61.2316 23.2085 60.7439 23.3888 60.4631 23.3888C60.3834 23.3888 59.8918 23.3888 59.8748 22.664C59.8709 22.303 59.9452 21.9314 60.038 21.5233ZM73.7523 17.7394L73.6556 17.6291C72.4183 17.8798 72.1944 17.9196 71.0576 18.0731L70.974 18.1567C70.9701 18.1703 70.9667 18.1912 70.9609 18.2101L70.957 18.1912C70.1108 20.1436 70.1355 19.7224 69.4467 21.2595C69.4428 21.1895 69.4428 21.1458 69.4389 21.0715L69.2665 17.7394L69.1581 17.6291C67.862 17.8798 67.8314 17.9196 66.6344 18.0731L66.5411 18.1567C66.528 18.1965 66.528 18.2402 66.5202 18.2879L66.528 18.3049C66.6776 19.0695 66.6417 18.899 66.7918 20.1057C66.8618 20.6979 66.955 21.2935 67.025 21.8784C67.143 22.8573 67.2091 23.3392 67.3534 24.833C66.545 26.167 66.3536 26.6717 65.5754 27.8425L65.5807 27.8542L65.0327 28.7208C64.9701 28.8122 64.9132 28.8748 64.8336 28.9016C64.7461 28.9448 64.6324 28.9526 64.4746 28.9526H64.1709L63.7196 30.4537L65.2679 30.4804C66.1768 30.4765 66.7481 30.0514 67.0556 29.4801L68.0291 27.8119H68.0136L68.1161 27.6943C68.7709 26.2846 73.7523 17.7394 73.7523 17.7394ZM57.4117 37.4543H56.7549L59.1859 29.4138H59.9923L60.2483 28.5855L60.2731 29.5066C60.243 30.076 60.6909 30.5807 61.8675 30.4972H63.2282L63.6965 28.9489H63.1845C62.8901 28.9489 62.7536 28.8746 62.7706 28.7153L62.7458 27.7781H60.226V27.783C59.4113 27.8 56.9784 27.8612 56.4858 27.9924C55.8897 28.1459 55.2616 28.5977 55.2616 28.5977L55.5084 27.7684H53.1513L52.6602 29.4138L50.1967 37.5772H49.7187L49.2499 39.1142H53.9446L53.7872 39.6267H56.1006L56.2541 39.1142H56.9031L57.4117 37.4543ZM55.4856 31.0476C55.1081 31.152 54.4056 31.4688 54.4056 31.4688L55.0304 29.4138H56.9031L56.4513 30.9111C56.4513 30.9111 55.8727 30.9451 55.4856 31.0476ZM55.5215 33.9832C55.5215 33.9832 54.9332 34.0571 54.546 34.1445C54.1647 34.2601 53.4496 34.6245 53.4496 34.6245L54.0947 32.486H55.9772L55.5215 33.9832ZM54.4722 37.4732H52.5936L53.1382 35.6685H55.0109L54.4722 37.4732ZM58.9962 32.486H61.704L61.3149 33.7462H58.5711L58.1592 35.1239H60.56L58.7421 37.6836C58.6149 37.8716 58.5007 37.9381 58.3739 37.9911C58.2466 38.0557 58.0795 38.1315 57.8862 38.1315H57.2201L56.7625 39.6404H58.5046C59.4101 39.6404 59.945 39.2284 60.3399 38.6877L61.5865 36.9816L61.8542 38.7139C61.911 39.0384 62.1442 39.2284 62.3021 39.3022C62.4765 39.3897 62.6567 39.5398 62.9113 39.5621C63.1843 39.5738 63.3815 39.583 63.5127 39.583H64.3686L64.8826 37.8944H64.545C64.3512 37.8944 64.0174 37.8618 63.9606 37.8011C63.9037 37.7273 63.9037 37.6136 63.8731 37.4407L63.6016 35.7044H62.4896L62.9773 35.1239H65.7158L66.137 33.7462H63.6016L63.9965 32.486H66.5241L66.9929 30.9319H59.4572L58.9962 32.486ZM36.1258 37.8241L36.7578 35.7216H39.3553L39.83 34.1578H37.23L37.6269 32.8636H40.1676L40.6383 31.3494H34.2812L33.8202 32.8636H35.2644L34.8792 34.1578H33.431L32.9511 35.7483H34.3949L33.5525 38.53C33.4388 38.8982 33.6059 39.0386 33.7118 39.2096C33.8202 39.3762 33.93 39.4865 34.1767 39.5492C34.4313 39.606 34.6057 39.64 34.8428 39.64H37.7711L38.2929 37.9077L36.9948 38.0859C36.7442 38.0859 36.05 38.0558 36.1258 37.8241ZM36.4237 27.759L35.7654 28.9487C35.6246 29.2086 35.4978 29.3699 35.3836 29.4442C35.283 29.5069 35.0839 29.5331 34.7953 29.5331H34.4518L33.9928 31.0551H35.1334C35.6819 31.0551 36.1031 30.854 36.3042 30.7534C36.5204 30.6378 36.5772 30.7039 36.7443 30.5426L37.1296 30.2088H40.6914L41.1641 28.6242H38.5568L39.012 27.759H36.4237ZM41.6822 37.8547C41.6214 37.7672 41.6652 37.6132 41.7579 37.2926L42.7315 34.0703H46.1947C46.6995 34.063 47.0638 34.0572 47.3009 34.0402C47.5555 34.0135 47.8324 33.9226 48.134 33.7594C48.4454 33.5884 48.6048 33.4082 48.7393 33.2012C48.8895 32.9947 49.1304 32.5429 49.3374 31.8463L50.5611 27.7685L46.9671 27.7894C46.9671 27.7894 45.8605 27.9526 45.3732 28.1329C44.8816 28.334 44.1792 28.8956 44.1792 28.8956L44.5037 27.7778H42.2836L39.1754 38.0859C39.0652 38.4862 38.9913 38.7767 38.9743 38.9511C38.9685 39.1391 39.2114 39.3252 39.3688 39.4656C39.5549 39.606 39.8298 39.5831 40.0936 39.606C40.371 39.6268 40.7655 39.64 41.31 39.64H43.0162L43.5398 37.8717L42.0125 38.0159C41.8493 38.0159 41.7312 37.9285 41.6822 37.8547ZM43.3596 31.8939H46.9973L46.766 32.6187C46.7335 32.6357 46.6558 32.5828 46.2856 32.6265H43.1357L43.3596 31.8939ZM44.0883 29.463H47.7566L47.4928 30.336C47.4928 30.336 45.7638 30.319 45.4869 30.37C44.2685 30.5808 43.5569 31.2318 43.5569 31.2318L44.0883 29.463ZM46.8474 35.0459C46.8173 35.1543 46.7697 35.2203 46.7032 35.2699C46.6293 35.3175 46.5098 35.3345 46.3315 35.3345H45.8132L45.8438 34.4518H43.6878L43.6004 38.7671C43.597 39.0785 43.6271 39.2588 43.8549 39.403C44.0828 39.5833 44.7848 39.6061 45.7296 39.6061H47.0806L47.5684 37.9908L46.3923 38.0554L46.0012 38.0783C45.9477 38.0554 45.8967 38.0345 45.8399 37.9777C45.7903 37.9286 45.7068 37.9588 45.7204 37.6474L45.7296 36.5412L46.9631 36.4902C47.6291 36.4902 47.9138 36.2735 48.1567 36.0671C48.3884 35.8693 48.4642 35.642 48.5516 35.3345L48.7586 34.3551H47.0636L46.8474 35.0459Z" fill="#FEFEFE"/>
</g>
<defs>
<clipPath id="clip0_254_14276">
<rect width="80" height="50" fill="white"/>
</clipPath>
</defs>
</svg>
