<svg width="98" height="33" viewBox="0 0 98 33" fill="none" xmlns="http://www.w3.org/2000/svg">
<path fill-rule="evenodd" clip-rule="evenodd" d="M29.6582 31.5017L38.8362 1.24092H47.0226L37.8446 31.5017H29.6582Z" fill="#1434CB"/>
<path fill-rule="evenodd" clip-rule="evenodd" d="M25.9935 1.24683L18.6275 14.0724C16.7506 17.4308 15.6586 19.1306 15.1274 21.2495H15.0153C15.1451 18.5581 14.7674 15.2528 14.7379 13.3877L13.9234 1.24683H0.141654L0 2.06133C3.54134 2.06133 5.64254 3.83791 6.22096 7.47959L8.90648 31.5017H17.388L34.5399 1.24683H25.9935Z" fill="#1434CB"/>
<path fill-rule="evenodd" clip-rule="evenodd" d="M89.6712 31.5017L89.4469 27.0042H79.2243L77.1349 31.5017H68.2461L84.3592 1.29402H95.2724L97.9993 31.4958H89.6712V31.5017ZM88.7328 13.6533C88.6442 11.4164 88.5675 8.38261 88.7151 6.54701H88.597C88.1012 8.05208 85.9587 12.5614 85.0143 14.7806L81.9688 21.4148H89.1459L88.7269 13.6592L88.7328 13.6533Z" fill="#1434CB"/>
<path fill-rule="evenodd" clip-rule="evenodd" d="M55.6171 32.3575C49.8329 32.3575 45.9965 30.5219 43.2578 28.887L47.1592 22.9316C49.6204 24.3069 51.5505 25.8946 55.9889 25.8946C57.4173 25.8946 58.7925 25.5227 59.5775 24.1711C60.7166 22.2057 59.3119 21.1433 56.1188 19.3313L54.537 18.3043C49.7975 15.0639 47.7435 11.9889 49.9746 6.61195C51.4029 3.17684 55.1685 0.568054 61.3836 0.568054C65.6686 0.568054 69.688 2.42136 72.0312 4.23334L67.5455 9.49224C65.2614 7.64484 63.3667 6.71228 61.2006 6.71228C59.4713 6.71228 58.161 7.37924 57.7065 8.27638C56.8507 9.96442 57.9839 11.1154 60.4746 12.6676L62.3516 13.8599C68.1062 17.4898 69.4815 21.2967 68.0354 24.8558C65.5506 30.9823 60.693 32.3516 55.6112 32.3516L55.6171 32.3575Z" fill="#1434CB"/>
</svg>
