<svg width="98" height="57" viewBox="0 0 98 57" fill="none" xmlns="http://www.w3.org/2000/svg">
<g clip-path="url(#clip0_254_14159)">
<path d="M18.0307 0.0315382C37.6994 -0.0262818 57.3681 0.0210255 77.0367 0C81.2579 0.0262818 85.5899 0.0210254 89.642 1.34563C92.2465 2.17088 94.5711 3.93176 95.8443 6.3602C97.7092 9.83991 97.9522 13.8873 97.9945 17.7507C97.9786 25.4513 98.0367 33.1519 97.9681 40.8525C97.8465 45.4623 97.0752 50.7134 93.2133 53.7726C89.3831 56.6846 84.3062 56.816 79.6888 56.9737C61.1982 57.0158 42.7024 56.979 24.2065 56.9895C19.4413 56.9474 14.5967 57.1945 9.91069 56.1117C6.87824 55.4389 3.88277 53.7936 2.31899 51.0235C0.332579 47.6647 -0.000250629 43.6646 0.0103154 39.8432C0.0261645 31.7537 -0.0425148 23.6589 0.0472965 15.5693C0.131825 10.9963 1.16201 5.79251 5.11899 2.93831C8.87522 0.367946 13.6352 0.210255 18.0307 0.0315382Z" fill="#FF4833"/>
<path d="M61.8696 22.7758C62.5563 25.0676 63.0635 27.4014 63.6869 29.7037C62.5194 29.6932 61.3465 29.6827 60.179 29.6669C60.7496 27.3699 61.3782 25.0886 61.8696 22.7758ZM49.8084 21.9769C51.108 22.0504 52.8884 21.7403 53.6228 23.1227C54.225 24.337 54.1563 26.0873 53.0522 27.0072C52.1382 27.7326 50.8967 27.5328 49.8137 27.6117C49.8137 25.7299 49.8137 23.8534 49.8137 21.9769H49.8084ZM25.1473 20.647C27.3556 19.4748 29.9496 20.032 32.3375 19.9164C32.3639 24.9887 32.3745 30.0559 32.3375 35.1283C31.5239 35.1178 30.705 35.1125 29.8862 35.1125C29.8597 30.7182 29.8862 26.3291 29.8756 21.9401C28.0741 21.7403 25.2899 22.1819 25.3692 24.5209C25.0047 26.8916 27.2975 28.2372 28.9616 29.3936C27.7835 31.3227 26.5473 33.215 25.3216 35.1125C24.3707 35.1125 23.4197 35.1125 22.4688 35.1125C23.5201 33.3621 24.7035 31.7011 25.8235 29.9981C24.7405 29.0624 23.4726 28.1426 23.0763 26.6971C22.2522 24.5525 23.0235 21.7403 25.1526 20.6523L25.1473 20.647ZM66.899 19.9479C68.2673 22.8967 69.979 25.6931 71.2099 28.705C71.3579 30.8338 71.2099 32.9732 71.2945 35.1125C72.1767 35.1125 73.059 35.1125 73.9413 35.1178C74.0047 32.9574 73.8726 30.7918 73.9994 28.6314C75.225 25.6563 76.9209 22.8862 78.2311 19.9426C77.4439 19.9216 76.662 19.8953 75.8854 19.8743C74.7601 21.9295 73.8197 24.0794 72.7526 26.1662C71.7277 24.0741 70.745 21.9558 69.6673 19.8901C68.7428 19.9111 67.8182 19.9321 66.899 19.9479ZM60.459 19.9374C59.2016 25.015 57.7911 30.0559 56.5231 35.1335C57.3103 35.102 58.0922 35.0652 58.8741 34.9969C59.096 33.9614 59.339 32.9311 59.6243 31.9114C61.1458 31.8325 62.6673 31.822 64.1941 31.8588C64.4688 32.9469 64.7594 34.0297 65.0447 35.1125C65.9533 35.1125 66.8567 35.1125 67.7654 35.123C66.4447 30.0454 65.182 24.9572 63.7767 19.9058C62.6726 19.9058 61.5631 19.9216 60.459 19.9374ZM47.1616 19.9216C47.2303 24.9993 47.0454 30.0822 47.2514 35.1546C48.0967 35.1335 48.9473 35.123 49.7926 35.1125C49.8296 33.2991 49.7556 31.4856 49.8877 29.6827C52.1118 29.8036 54.8748 29.504 56.0741 27.3436C57.0726 25.2831 56.9141 22.308 54.8854 20.9046C52.619 19.3487 49.7292 20.0583 47.1616 19.9216ZM24.8567 15.2172C19.3201 16.5575 15.1624 22.0347 15.5216 27.7168C15.3209 33.9614 20.6409 39.7118 26.9013 40.0903C31.2597 40.5423 35.7133 38.4608 38.2122 34.8865C40.8484 31.2228 41.1918 26.1346 39.348 22.061C37.0077 16.6784 30.5254 13.6613 24.8567 15.2172Z" fill="white"/>
</g>
<defs>
<clipPath id="clip0_254_14159">
<rect width="98" height="57" fill="white"/>
</clipPath>
</defs>
</svg>
